<svg width="50" height="50" viewBox="0 0 50 50" fill="none" xmlns="http://www.w3.org/2000/svg">
<rect x="1" y="1" width="48" height="48" rx="8" fill="white" stroke="#E4E4E7"/>
<g clip-path="url(#clip0_10634_9056)">
<path d="M40.6679 28.8972C38.5131 37.5425 29.7568 42.8217 21.0956 40.6656C12.4502 38.5043 7.17956 29.748 9.3343 21.1026C11.489 12.4573 20.24 7.17811 28.8801 9.33416C37.5467 11.4638 42.8173 20.2465 40.6679 28.8972Z" fill="#F7931A"/>
<path d="M32.6467 22.879C32.9369 20.7259 31.3011 19.6019 29.0583 18.842L29.7549 15.9291L27.9818 15.5016L27.3063 18.3513C26.8367 18.2404 26.3617 18.1296 25.8921 18.0346L26.5675 15.185L24.7733 14.7576L24.0767 17.6705C23.6968 17.5808 23.3116 17.5122 22.9316 17.4225L20.4883 16.8367L20.0398 18.7207C20.0398 18.7207 21.3643 19.0109 21.3168 19.0373C22.0345 19.2167 22.1717 19.6864 22.1453 20.0452L21.359 23.3645C21.4065 23.3856 21.4699 23.3856 21.5385 23.4331C21.4699 23.412 21.4277 23.412 21.359 23.3909L20.2825 28.0347C20.1928 28.2563 19.9659 28.573 19.4751 28.4622C19.4962 28.4833 18.1717 28.1455 18.1717 28.1455L17.3326 30.1878L19.644 30.726C20.0714 30.8368 20.4989 30.9266 20.8999 31.0426L20.2034 33.982L21.9765 34.4094L22.673 31.4965C23.1691 31.6284 23.6387 31.7445 24.0873 31.8553L23.3907 34.7472L25.1638 35.1746L25.8604 32.2353C28.8894 32.7735 31.1533 32.5255 32.0715 29.7656C32.8103 27.565 32.0029 26.3091 30.3881 25.4806C31.5702 25.2115 32.4251 24.4463 32.6467 22.879ZM28.6572 28.5941C28.1401 30.7946 24.4198 29.6495 23.2271 29.3593L24.1453 25.4542C25.3591 25.7497 29.1955 26.288 28.6572 28.5941ZM29.148 22.879C28.6783 24.8737 25.5807 23.9133 24.5728 23.6653L25.4277 20.1244C26.4145 20.3671 29.6441 20.7946 29.148 22.879Z" fill="white"/>
</g>
<defs>
<clipPath id="clip0_10634_9056">
<rect width="32.4324" height="32.4324" fill="white" transform="translate(8.78381 8.78394)"/>
</clipPath>
</defs>
</svg>
