<svg width="32" height="32" viewBox="0 0 32 32" fill="none" xmlns="http://www.w3.org/2000/svg">
<path d="M31.9106 24.6003C31.9002 24.5348 31.8902 24.4701 31.8792 24.4053C31.8132 24.0036 31.7309 23.6065 31.6354 23.2149C31.4676 22.5307 31.2565 21.863 31.0045 21.2163C30.7915 20.6686 30.5491 20.1358 30.28 19.6194C29.9339 18.9563 29.5436 18.3197 29.1124 17.7143C28.5837 16.9725 27.9933 16.2774 27.3486 15.637C27.0781 15.3678 26.7981 15.108 26.5091 14.8591C25.883 14.3186 25.2141 13.8263 24.5095 13.3863C24.5157 13.3762 24.5209 13.3653 24.5271 13.3551C24.8499 12.7974 25.1737 12.2403 25.4965 11.6826C25.8121 11.138 26.1278 10.5935 26.4435 10.049C26.6707 9.65821 26.8975 9.26657 27.1233 8.87574C27.177 8.78289 27.2193 8.68695 27.2512 8.58869C27.3396 8.31485 27.3434 8.027 27.2726 7.75939C27.2545 7.69312 27.2326 7.62837 27.206 7.56519C27.1794 7.50196 27.1485 7.44035 27.1133 7.38106C26.9926 7.17826 26.82 7.00193 26.6032 6.87319C26.4116 6.75933 26.1972 6.69144 25.9776 6.67195C25.8853 6.66415 25.7926 6.66491 25.7004 6.67428C25.6243 6.68208 25.5487 6.69615 25.4736 6.71564C25.2065 6.78662 24.9583 6.93328 24.7653 7.14545C24.6959 7.2219 24.6331 7.30619 24.5794 7.39899C24.3526 7.78982 24.1259 8.18146 23.8996 8.57229L22.9526 10.2058C22.6298 10.7636 22.306 11.3206 21.9832 11.8784C21.948 11.9392 21.9124 12.0001 21.8772 12.0617C21.8282 12.0422 21.7797 12.0227 21.7308 12.004C19.9509 11.3253 18.0198 10.954 16.0012 10.954C15.946 10.954 15.8914 10.954 15.8357 10.9547C14.0411 10.9727 12.3168 11.2847 10.708 11.8448C10.5221 11.9096 10.3382 11.9782 10.1556 12.05C10.1228 11.9931 10.089 11.9361 10.0567 11.8792C9.73392 11.3214 9.41017 10.7644 9.08737 10.2066C8.7717 9.66211 8.45603 9.11758 8.14036 8.57305C7.91312 8.18222 7.68635 7.79063 7.46053 7.39979C7.40633 7.30695 7.34406 7.22271 7.27465 7.14626C7.08164 6.93404 6.83347 6.78738 6.5663 6.7164C6.49118 6.69691 6.41559 6.68288 6.33905 6.67509C6.2473 6.66572 6.1546 6.66491 6.06237 6.67271C5.84273 6.69144 5.62832 6.75933 5.43626 6.874C5.21947 7.00269 5.04833 7.17902 4.92662 7.38182C4.89144 7.44111 4.86006 7.50277 4.83392 7.56595C4.80729 7.62913 4.78448 7.69388 4.76736 7.7602C4.69653 8.02776 4.70033 8.31562 4.78828 8.58945C4.82061 8.68776 4.86245 8.7837 4.91617 8.87655C5.14341 9.26738 5.37018 9.65897 5.59599 10.0498C5.91214 10.5943 6.22781 11.1389 6.54348 11.6833C6.86628 12.2411 7.18955 12.7981 7.51235 13.3559C7.51473 13.3606 7.51806 13.3653 7.52043 13.3699C6.86913 13.7748 6.24968 14.2234 5.66493 14.714C5.31456 15.0082 4.97702 15.3163 4.65374 15.6385C4.00957 16.2789 3.41959 16.974 2.88998 17.7159C2.45832 18.3213 2.06754 18.957 1.72239 19.6209C1.45331 20.1374 1.21086 20.6702 0.997875 21.2178C0.74591 21.8645 0.534829 22.5323 0.367011 23.2164C0.271455 23.6081 0.19016 24.0044 0.123128 24.4069C0.112194 24.4716 0.102209 24.5372 0.0922258 24.6019C0.056095 24.8352 0.0256719 25.07 0 25.3064H32C31.9743 25.07 31.9439 24.8352 31.9083 24.6019L31.9106 24.6003Z" fill="#34A853"/>
<path d="M24.3236 20.8806C24.964 20.4544 25.0571 19.4682 24.5313 18.678C24.006 17.8878 23.0609 17.5928 22.421 18.0191C21.7806 18.4454 21.6875 19.4315 22.2133 20.2217C22.7386 21.0119 23.6837 21.3069 24.3236 20.8806Z" fill="#202124"/>
<path d="M9.81491 20.2244C10.3407 19.4342 10.2475 18.448 9.60715 18.0218C8.96678 17.5955 8.02215 17.8905 7.49635 18.6807C6.97103 19.4709 7.06421 20.457 7.70411 20.8833C8.34448 21.3096 9.28959 21.0145 9.81491 20.2244Z" fill="#202124"/>
</svg>
