<svg width="50" height="50" viewBox="0 0 50 50" fill="none" xmlns="http://www.w3.org/2000/svg">
<rect x="1" y="1" width="48" height="48" rx="8" fill="white" stroke="#E4E4E7"/>
<g clip-path="url(#clip0_10634_9084)">
<path d="M24.9166 39.9666C33.2009 39.9666 39.9166 33.2508 39.9166 24.9666C39.9166 16.6823 33.2009 9.96655 24.9166 9.96655C16.6324 9.96655 9.91663 16.6823 9.91663 24.9666C9.91663 33.2508 16.6324 39.9666 24.9166 39.9666Z" fill="#F3BA2F"/>
<path fill-rule="evenodd" clip-rule="evenodd" d="M28.807 26.5617L31.0697 28.8179L24.9188 34.9622L18.7745 28.8179L21.0372 26.5617L24.9188 30.4434L28.807 26.5617ZM24.9188 22.6736L27.214 24.9687L24.9188 27.2639L22.6301 24.9753V24.9687L23.0333 24.5656L23.2283 24.3706L24.9188 22.6736ZM17.1815 22.7061L19.4442 24.9687L17.1815 27.2249L14.9188 24.9622L17.1815 22.7061ZM32.6561 22.7061L34.9188 24.9687L32.6561 27.2249L30.3935 24.9622L32.6561 22.7061ZM24.9188 14.9688L31.0632 21.1131L28.8005 23.3758L24.9188 19.4876L21.0372 23.3693L18.7745 21.1131L24.9188 14.9688Z" fill="#131415"/>
</g>
<defs>
<clipPath id="clip0_10634_9084">
<rect width="30" height="30" fill="white" transform="translate(10 10)"/>
</clipPath>
</defs>
</svg>
