<svg width="24" height="24" viewBox="0 0 24 24" fill="none" xmlns="http://www.w3.org/2000/svg">
<path d="M0 12C0 5.37258 5.37258 0 12 0C18.6274 0 24 5.37258 24 12C24 18.6274 18.6274 24 12 24C5.37258 24 0 18.6274 0 12Z" fill="#EAFAEF"/>
<path d="M7.99992 12H8.00659M15.9999 12H16.0066M6.66659 8H17.3333C18.0696 8 18.6666 8.59695 18.6666 9.33333V14.6667C18.6666 15.403 18.0696 16 17.3333 16H6.66659C5.93021 16 5.33325 15.403 5.33325 14.6667V9.33333C5.33325 8.59695 5.93021 8 6.66659 8ZM13.3333 12C13.3333 12.7364 12.7363 13.3333 11.9999 13.3333C11.2635 13.3333 10.6666 12.7364 10.6666 12C10.6666 11.2636 11.2635 10.6667 11.9999 10.6667C12.7363 10.6667 13.3333 11.2636 13.3333 12Z" stroke="#26CD58" stroke-width="1.5" stroke-linecap="round" stroke-linejoin="round"/>
</svg>
