<svg width="24" height="24" viewBox="0 0 24 24" fill="none" xmlns="http://www.w3.org/2000/svg">
<path d="M0 12C0 5.37258 5.37258 0 12 0C18.6274 0 24 5.37258 24 12C24 18.6274 18.6274 24 12 24C5.37258 24 0 18.6274 0 12Z" fill="#FFECEB"/>
<g clip-path="url(#clip0_10695_72008)">
<path d="M16.06 10.9133C16.6902 11.1483 17.251 11.5384 17.6905 12.0475C18.13 12.5566 18.434 13.1683 18.5745 13.826C18.7149 14.4838 18.6872 15.1663 18.494 15.8106C18.3008 16.4548 17.9482 17.0399 17.4689 17.5117C16.9896 17.9836 16.3991 18.327 15.752 18.5101C15.1048 18.6933 14.4219 18.7103 13.7664 18.5596C13.111 18.4089 12.5041 18.0954 12.0019 17.648C11.4997 17.2006 11.1184 16.6338 10.8933 16M8.66659 7.99992H9.33325V10.6666M15.14 13.2532L15.6066 13.7265L13.7266 15.6065M13.3333 9.33325C13.3333 11.5424 11.5424 13.3333 9.33325 13.3333C7.12411 13.3333 5.33325 11.5424 5.33325 9.33325C5.33325 7.12411 7.12411 5.33325 9.33325 5.33325C11.5424 5.33325 13.3333 7.12411 13.3333 9.33325Z" stroke="#FF3A34" stroke-width="1.5" stroke-linecap="round" stroke-linejoin="round"/>
</g>
<defs>
<clipPath id="clip0_10695_72008">
<rect width="16" height="16" fill="white" transform="translate(4 4)"/>
</clipPath>
</defs>
</svg>
