<svg width="50" height="50" viewBox="0 0 50 50" fill="none" xmlns="http://www.w3.org/2000/svg">
<rect x="1" y="1" width="48" height="48" rx="8" fill="white" stroke="#E4E4E7"/>
<path d="M38.9986 28.4778C37.0752 36.1951 29.2589 40.9075 21.5274 38.9829C13.8101 37.0536 9.1052 29.2373 11.0286 21.52C12.9521 13.8027 20.7637 9.09023 28.4763 11.0148C36.2125 12.9159 40.9173 20.7558 38.9986 28.4778Z" fill="#ECEFF0"/>
<path d="M25.1808 28.4956C25.1248 28.5146 25.0928 28.4659 25.0548 28.4435C23.188 27.3417 21.3233 26.2392 19.4607 25.136C19.4426 25.1269 19.4239 25.1192 19.4047 25.113V25.0884L19.4377 25.0693C19.4846 25.057 19.5308 25.042 19.576 25.0245L23.975 23.023C24.367 22.8443 24.7591 22.6685 25.1511 22.4915H25.1791C25.1791 22.5475 25.1791 22.5974 25.1791 22.6506C25.1806 24.5991 25.1811 26.5474 25.1808 28.4956Z" fill="#343535"/>
<path d="M25.1835 22.4929H25.1555C25.1555 22.4369 25.1611 22.3809 25.1611 22.3221C25.1611 20.1335 25.1611 17.9447 25.1611 15.7558C25.1547 15.6996 25.1585 15.6427 25.1723 15.5878H25.1841C25.4143 15.9277 25.6148 16.2861 25.8265 16.6373C27.5035 19.4191 29.1797 22.2006 30.8549 24.9816C30.8712 25.0091 30.884 25.0376 30.8986 25.0679C30.8512 25.0577 30.8045 25.0441 30.7591 25.027C30.4517 24.8881 30.1431 24.747 29.8385 24.6053C29.3613 24.3869 28.884 24.1689 28.4065 23.9512L26.1059 22.909C25.7996 22.7679 25.4916 22.6307 25.1835 22.4929Z" fill="#2F3030"/>
<path d="M25.1742 15.5849C25.1603 15.6398 25.1565 15.6967 25.163 15.7529C25.163 17.9415 25.163 20.1302 25.163 22.3192C25.163 22.3752 25.1596 22.4312 25.1574 22.49C24.7654 22.667 24.3734 22.8428 23.9813 23.0215L19.5823 25.023C19.5371 25.0405 19.4909 25.0555 19.444 25.0678C19.5711 24.8035 19.7363 24.5638 19.887 24.3106C21.6324 21.4093 23.3791 18.5086 25.1271 15.6084C25.1387 15.5923 25.1512 15.577 25.1647 15.5625L25.1742 15.5849Z" fill="#828384"/>
<path d="M25.1835 22.4929C25.4916 22.6307 25.7997 22.7679 26.1071 22.9068L28.4077 23.949C28.8856 24.1663 29.3629 24.3843 29.8397 24.6031C30.1466 24.7437 30.4557 24.8859 30.7604 25.0248C30.8058 25.0419 30.8524 25.0556 30.8998 25.0657C30.9558 25.1357 30.8729 25.1385 30.8477 25.1536C30.37 25.4392 29.8901 25.7209 29.4113 26.0043C28.037 26.8174 26.663 27.6304 25.2895 28.4432C25.2548 28.4634 25.2172 28.4782 25.1808 28.4956C25.1808 26.5478 25.1808 24.6001 25.1808 22.652C25.1814 22.5988 25.183 22.5461 25.1835 22.4929Z" fill="#131313"/>
<path d="M25.1611 29.602L28.7592 27.4812C29.4462 27.0757 30.1328 26.6699 30.819 26.2637L30.8812 26.2295C30.8873 26.2855 30.8487 26.3152 30.8252 26.3477C29.2571 28.5583 27.689 30.7681 26.121 32.9772C25.8242 33.3961 25.5279 33.8173 25.2283 34.2328C25.2126 34.2547 25.1885 34.3571 25.1404 34.2485C25.1784 34.216 25.1616 34.1723 25.1616 34.1365C25.162 32.6244 25.1618 31.1129 25.1611 29.602Z" fill="#2F3030"/>
<path d="M25.1608 29.6023C25.1608 31.1132 25.1608 32.6238 25.1608 34.134C25.1608 34.1726 25.1776 34.2163 25.1395 34.246C25.0594 34.1978 25.0247 34.1116 24.9715 34.0404C23.1533 31.4793 21.336 28.9177 19.5196 26.3558C19.4967 26.3233 19.4754 26.2886 19.4519 26.2528C19.4989 26.2253 19.5241 26.2628 19.5516 26.2791C21.3903 27.3648 23.2287 28.4514 25.0667 29.539C25.1009 29.5603 25.13 29.5821 25.1608 29.6023Z" fill="#828384"/>
<path d="M25.1746 15.5849L25.1612 15.5641C25.1858 15.5485 25.1824 15.5714 25.1864 15.5832L25.1746 15.5849Z" fill="#393939"/>
</svg>
