<svg width="32" height="32" viewBox="0 0 32 32" fill="none" xmlns="http://www.w3.org/2000/svg">
<g clip-path="url(#clip0_17627_12680)">
<rect width="32" height="32" rx="8" fill="#1275B1"/>
<path d="M32 16C32 7.16344 24.8366 0 16 0C7.16344 0 0 7.16344 0 16C0 24.8366 7.16344 32 16 32C24.8366 32 32 24.8366 32 16Z" fill="#1275B1"/>
<path d="M12.16 8.96004C12.16 10.0204 11.3003 10.88 10.24 10.88C9.17961 10.88 8.32001 10.0204 8.32001 8.96004C8.32001 7.89965 9.17961 7.04004 10.24 7.04004C11.3003 7.04004 12.16 7.89965 12.16 8.96004Z" fill="white"/>
<path d="M8.32001 12.16H11.52V23.04H8.32001V12.16Z" fill="white"/>
<path d="M17.523 12.374H14.08V23.04H17.523C17.523 23.04 17.523 19.6822 17.523 17.5828C17.523 16.3226 17.944 15.0569 19.6233 15.0569C21.5212 15.0569 21.5098 16.706 21.5009 17.9836C21.4893 19.6535 21.5169 21.3578 21.5169 23.04H24.96V17.4107C24.9308 13.8163 24.0146 12.16 21.0005 12.16C19.2105 12.16 18.1009 12.9908 17.523 13.7424V12.374Z" fill="white"/>
</g>
<defs>
<clipPath id="clip0_17627_12680">
<rect width="32" height="32" fill="white"/>
</clipPath>
</defs>
</svg>
