<svg width="32" height="32" viewBox="0 0 32 32" fill="none" xmlns="http://www.w3.org/2000/svg">
<g clip-path="url(#clip0_14384_93205)">
<path fill-rule="evenodd" clip-rule="evenodd" d="M18.2205 26.5208C20.5077 28.1616 21.8799 30.1106 21.9098 31.9403V32H27.4685V31.9503C27.4884 30.1604 28.5822 28.5395 31.0384 26.8888C31.0483 26.8788 31.0683 26.8689 31.0781 26.8589L31.1578 26.7992C31.1677 26.7893 31.1776 26.7893 31.1876 26.7794L31.2473 26.7396V19.9379C31.0683 20.0373 30.9191 20.1268 30.8097 20.1864L30.6207 20.2958C29.5965 20.8925 28.7811 21.3996 28.0155 21.9465L27.916 22.0162C26.7028 22.8912 25.599 23.8757 24.6842 24.9695C23.7693 23.8757 22.6755 22.8912 21.4524 22.0162C20.6569 21.4493 19.8216 20.9124 18.7476 20.2958L18.5885 20.2063C18.499 20.1566 18.3697 20.0771 18.2107 19.9876L16.4903 19.0131C16.2119 18.8539 15.9732 18.7147 15.8141 18.6252L15.6451 18.5258C14.5413 17.8894 13.6165 17.3225 12.6917 16.7061C11.0012 15.5724 9.95711 14.3592 9.39029 13.1063C9.00248 12.2511 8.86326 11.4755 8.86326 10.66C8.86326 7.84587 11.1504 5.55873 13.9745 5.55873C16.7986 5.55873 19.0857 7.84587 19.0857 10.66C19.0857 11.4655 18.9465 12.2511 18.5587 13.1063C18.0615 14.2001 17.1964 15.2641 15.8638 16.2685C16.1025 16.4077 16.3511 16.5569 16.6096 16.7061L16.7688 16.7955L16.8881 16.8651L18.2007 17.6109C18.9166 18.0087 19.2945 18.2275 19.5232 18.3567L19.8116 18.5258C20.1795 18.7346 20.5077 18.9335 20.8259 19.1324L20.9552 19.212C22.1286 18.0385 23.0136 16.7656 23.6202 15.4232C24.3759 13.7725 24.6444 12.2213 24.6444 10.6799C24.6345 4.83282 19.9508 0.0994409 14.1336 0H13.9645H13.7855C7.98819 0.0994409 3.30456 4.83282 3.30456 10.66C3.30456 12.2113 3.58299 13.7625 4.3288 15.4034C5.33314 17.601 7.05346 19.5997 9.5892 21.3001C10.6532 22.0162 11.7172 22.6625 12.9602 23.3785L12.9999 23.3984C13.0994 23.4481 13.2287 23.5276 13.3778 23.6171L15.2274 24.6613C15.4263 24.7706 15.5953 24.8701 15.7147 24.9397L15.9036 25.0491C16.8682 25.6159 17.5841 26.0634 18.2205 26.5208ZM8.44562 23.0205C7.85892 22.6228 7.312 22.2151 6.79492 21.7875L6.77502 21.8073C6.67558 21.877 6.57614 21.9465 6.4767 22.0162C4.90555 23.1497 3.52333 24.4724 2.48916 25.964C1.19643 27.8036 0.47052 29.8422 0.47052 32H6.02922C6.02922 30.1604 7.40149 28.1815 9.71843 26.5208C10.2853 26.1131 10.9117 25.7154 11.7172 25.248L11.8862 25.1485L11.7769 25.0888C10.514 24.353 9.46986 23.7066 8.44562 23.0205Z" fill="#0540F7"/>
</g>
<defs>
<clipPath id="clip0_14384_93205">
<rect width="32" height="32" fill="white"/>
</clipPath>
</defs>
</svg>
