<svg width="32" height="32" viewBox="0 0 32 32" fill="none" xmlns="http://www.w3.org/2000/svg">
<path d="M0 0V32H22.9547C27.9431 32 32 27.9431 32 22.9547V0H0ZM9.60414 12.6468C7.36869 12.6468 5.56792 10.8254 5.56792 8.58991C5.56792 6.35446 7.36869 4.53299 9.60414 4.53299C11.8396 4.53299 13.6611 6.33376 13.6611 8.58991C13.6611 10.8254 11.8396 12.6468 9.60414 12.6468ZM26.4321 21.5679C26.4321 24.5071 24.2587 26.784 21.5679 26.784C18.8771 26.784 16.7037 24.5071 16.7037 21.5679V11.8396H21.5679C24.2587 11.8396 26.4321 14.1164 26.4321 17.0556V21.5679Z" fill="url(#paint0_linear_14963_14779)"/>
<defs>
<linearGradient id="paint0_linear_14963_14779" x1="0" y1="0" x2="32" y2="32" gradientUnits="userSpaceOnUse">
<stop stop-color="#630EA2"/>
<stop offset="1" stop-color="#7515BD"/>
</linearGradient>
</defs>
</svg>
