<svg width="32" height="32" viewBox="0 0 32 32" fill="none" xmlns="http://www.w3.org/2000/svg">
<g clip-path="url(#clip0_14963_14782)">
<path d="M15.9925 32C24.825 32 31.9851 24.8366 31.9851 16C31.9851 7.16344 24.825 0 15.9925 0C7.1601 0 0 7.16344 0 16C0 24.8366 7.1601 32 15.9925 32Z" fill="#0D1228"/>
<path d="M15.9925 32C24.825 32 31.9851 24.8366 31.9851 16C31.9851 7.16344 24.825 0 15.9925 0C7.1601 0 0 7.16344 0 16C0 24.8366 7.1601 32 15.9925 32Z" fill="url(#paint0_linear_14963_14782)"/>
<path d="M15.9925 32C24.825 32 31.9851 24.8366 31.9851 16C31.9851 7.16344 24.825 0 15.9925 0C7.1601 0 0 7.16344 0 16C0 24.8366 7.1601 32 15.9925 32Z" fill="url(#paint1_radial_14963_14782)"/>
<path d="M15.9925 32C24.825 32 31.9851 24.8366 31.9851 16C31.9851 7.16344 24.825 0 15.9925 0C7.1601 0 0 7.16344 0 16C0 24.8366 7.1601 32 15.9925 32Z" fill="url(#paint2_radial_14963_14782)"/>
<mask id="mask0_14963_14782" style="mask-type:luminance" maskUnits="userSpaceOnUse" x="0" y="0" width="32" height="32">
<path fill-rule="evenodd" clip-rule="evenodd" d="M32.0001 9.96633C32.0001 9.96667 32.0001 9.966 32.0001 9.96633C32.0001 9.96607 32.0001 9.966 32.0001 9.96567C32.0001 9.96533 32.0001 9.965 32.0001 9.96433C32.0001 9.585 32.0002 9.20567 31.9979 8.8264C31.9959 8.50633 31.9923 8.1864 31.9836 7.86647C31.9648 7.16927 31.9237 6.46611 31.7997 5.77668C31.6741 5.0773 31.4688 4.42639 31.1453 3.79094C30.8273 3.16636 30.412 2.59483 29.9164 2.09933C29.4209 1.60384 28.8495 1.18854 28.2249 0.8706C27.5891 0.546911 26.9378 0.34163 26.238 0.215921C25.5488 0.092116 24.8457 0.0510678 24.1489 0.0322329C23.8289 0.0235727 23.5089 0.0199223 23.1889 0.0179417C22.809 0.0156116 22.4291 0.0158058 22.0491 0.0158058L17.6377 0H14.3383L10.0049 0.0158058C9.62426 0.0158058 9.2436 0.0156116 8.86286 0.0179417C8.5422 0.0199223 8.22166 0.0235727 7.90106 0.0322329C7.20253 0.0510678 6.49792 0.0921547 5.8071 0.216116C5.10634 0.341785 4.45407 0.546988 3.8174 0.870447C3.19156 1.18842 2.6189 1.60376 2.12236 2.09933C1.6259 2.59479 1.20974 3.1662 0.891175 3.79067C0.566824 4.42643 0.361174 5.07773 0.235175 5.77749C0.111118 6.46665 0.0700109 7.1696 0.0511071 7.86647C0.0424898 8.1864 0.0387635 8.5064 0.0368226 8.8264C0.0344936 9.20633 0.0149689 9.67827 0.0149689 10.0582L0.0150853 14.3335L0.0149689 17.6699L0.0346877 22.036C0.0346877 22.4164 0.0345324 22.7969 0.0368226 23.1773C0.0387635 23.4977 0.0424898 23.8181 0.0511459 24.1385C0.0700109 24.8366 0.111195 25.5407 0.235369 26.2311C0.361329 26.9315 0.56694 27.5833 0.891022 28.2195C1.20963 28.845 1.62586 29.4173 2.12236 29.9135C2.61886 30.4097 3.19137 30.8255 3.81709 31.1439C4.45415 31.4681 5.10673 31.6736 5.80791 31.7995C6.49842 31.9235 7.20279 31.9646 7.90106 31.9834C8.22166 31.9921 8.5422 31.9957 8.86293 31.9977C9.2436 32.0001 9.62426 31.9999 10.0049 31.9999L14.3775 32H17.6851L22.0491 31.9999C22.4291 31.9999 22.809 32.0001 23.1889 31.9977C23.5089 31.9957 23.8289 31.9921 24.1489 31.9834C24.8461 31.9645 25.5493 31.9234 26.2388 31.7993C26.9382 31.6735 27.5892 31.4679 28.2247 31.1441C28.8493 30.8257 29.4209 30.4097 29.9164 29.9135C30.4119 29.4174 30.8273 28.8452 31.1452 28.2198C31.4689 27.5833 31.6741 26.9311 31.7999 26.2303C31.9237 25.5402 31.9648 24.8363 31.9836 24.1385C31.9923 23.8181 31.9959 23.4977 31.9979 23.1773C32.0002 22.7975 32.0001 22.4176 32.0001 22.0378C32.0001 22.0371 32.0001 22.0367 32.0001 22.0364C32.0001 21.9975 31.9998 17.7466 31.9998 17.6699V14.3301C31.9998 14.2734 32.0001 10.0051 32.0001 9.96633Z" fill="white"/>
</mask>
<g mask="url(#mask0_14963_14782)">
<path d="M15.5461 4.80593C15.2368 4.66627 14.8631 4.80065 14.7195 5.10125C12.7407 9.18863 11.9375 13.4677 12.8537 18.1924C12.9577 18.4248 13.2114 18.5712 13.4559 18.5456C13.5334 18.5403 13.6008 18.5236 13.6799 18.4971C13.9879 18.358 14.1361 17.9935 13.9929 17.6941C13.2567 13.5702 14.0889 9.25916 15.8605 5.62098C15.9939 5.30893 15.8555 4.94559 15.5461 4.80593Z" fill="white" fill-opacity="0.5"/>
<path d="M16.114 8.85391C15.3361 11.467 15.0259 14.1667 15.1966 16.9217C15.2152 17.2659 15.5167 17.5121 15.8605 17.4828C16.2146 17.4649 16.4678 17.172 16.4375 16.8377C16.2777 14.2335 16.5683 11.6503 17.3131 9.18484C17.4143 8.85984 17.2187 8.52458 16.8843 8.42604C16.5601 8.33891 16.2153 8.52891 16.114 8.85391Z" fill="white" fill-opacity="0.5"/>
<path d="M20.8396 5.85781C20.5036 5.67323 20.0759 5.79756 19.9071 6.13491C18.9843 7.97979 17.5163 11.3967 17.8538 16.7662L17.864 16.7776C17.8957 17.3906 17.6439 17.9622 17.14 18.3659C16.6463 18.7812 16.0062 18.9397 15.3882 18.7997C15.0522 18.7224 14.7176 18.9238 14.6485 19.2618C14.5691 19.5884 14.7765 19.9137 15.1243 19.9811C15.4282 20.0454 15.7353 20.067 16.0337 20.0559C16.7317 20.0087 17.4016 19.7451 17.9643 19.2919C18.7621 18.641 19.1857 17.6851 19.1166 16.6837C19.1166 16.6837 19.1064 16.6723 19.1182 16.6625C18.8073 11.6263 20.1649 8.45525 21.1006 6.76385C21.2788 6.44163 21.1672 6.03781 20.8396 5.85781Z" fill="white" fill-opacity="0.5"/>
<path d="M12.4772 5.30271C12.1467 5.17733 11.7735 5.33582 11.6433 5.6566C11.1331 6.7196 10.8307 7.7982 10.6685 9.01846C10.6231 9.36026 10.874 9.6552 11.2177 9.68653C11.5693 9.73086 11.8727 9.487 11.9047 9.15286C12.1057 8.05213 12.3746 7.39086 12.8487 6.08038C12.9622 5.7666 12.796 5.42366 12.4772 5.30271Z" fill="white" fill-opacity="0.5"/>
<path d="M7.17947 22.2922C6.90707 22.4954 6.84741 22.8781 7.05667 23.143C7.52707 23.7496 8.06507 24.3161 8.66114 24.81C8.78861 24.9219 8.96261 24.9715 9.13927 24.9571C9.29394 24.9417 9.43987 24.8725 9.55494 24.7487C9.78514 24.501 9.75687 24.1149 9.50194 23.891C8.98067 23.4535 8.49534 22.9425 8.07687 22.4128C7.84561 22.1471 7.45187 22.0889 7.17947 22.2922Z" fill="white" fill-opacity="0.5"/>
<path d="M24.4229 22.4291C24.1493 22.2243 23.7533 22.2644 23.5426 22.5302C20.7825 25.9208 15.6179 27.1152 11.5286 25.2817C11.2107 25.1407 10.8469 25.2772 10.7019 25.5861C10.557 25.8951 10.6976 26.2487 11.0155 26.3898C15.5823 28.4159 21.4093 27.1162 24.5383 23.2742C24.7379 23.019 24.6964 22.634 24.4229 22.4291Z" fill="white" fill-opacity="0.5"/>
<path d="M5.94979 10.8144C5.66818 10.7872 5.40207 10.9484 5.31693 11.2107C4.43615 13.9243 4.38969 17.5626 5.48029 20.5618C5.57836 20.8122 5.81259 20.962 6.0676 20.9635C6.14534 20.963 6.21367 20.9506 6.27259 20.926C6.59839 20.8184 6.7702 20.4636 6.65922 20.1469C5.62667 17.3576 5.87333 14.3245 6.49767 11.5564C6.57817 11.1995 6.32389 10.8504 5.94979 10.8144Z" fill="white" fill-opacity="0.5"/>
<path d="M25.9437 10.8144C26.2253 10.7872 26.4915 10.9484 26.5766 11.2107C27.4573 13.9243 27.5038 17.5626 26.4132 20.5618C26.3151 20.8122 26.0809 20.962 25.8259 20.9635C25.7482 20.963 25.6799 20.9506 25.6209 20.926C25.2951 20.8184 25.1233 20.4636 25.2343 20.1469C26.2669 17.3576 26.0202 14.3245 25.3959 11.5564C25.3153 11.1995 25.5696 10.8504 25.9437 10.8144Z" fill="white" fill-opacity="0.5"/>
<path d="M23.2217 7.1402C22.9161 6.9878 22.5347 7.09914 22.3779 7.39627C22.1741 7.67247 21.8861 8.33914 21.8183 8.73287C21.7687 8.89274 21.7971 9.0668 21.8861 9.2158C21.9665 9.34514 22.0932 9.44374 22.2577 9.49187C22.5865 9.58814 22.9335 9.3982 23.0326 9.07847C23.1239 8.78387 23.2822 8.28787 23.4933 7.98014C23.7044 7.67247 23.5272 7.29254 23.2217 7.1402Z" fill="white" fill-opacity="0.5"/>
<path d="M9.05019 6.86934C8.72466 6.76301 8.36459 6.92834 8.25513 7.24487C8.09606 7.54754 7.91353 8.45367 7.90693 8.85281C7.88246 9.01807 7.93719 9.18614 8.04806 9.32054C8.14746 9.43674 8.28793 9.51587 8.45786 9.53961C8.79779 9.58714 9.11173 9.34901 9.16073 9.01847C9.20586 8.71394 9.33853 8.02507 9.44773 7.66054C9.55686 7.29601 9.37573 6.97567 9.05019 6.86934Z" fill="white" fill-opacity="0.5"/>
<path d="M18.3579 5.12701C18.0524 4.97464 17.6709 5.08593 17.5141 5.38307C17.3104 5.65927 17.0223 6.32598 16.9545 6.71968C16.905 6.87955 16.9333 7.05368 17.0223 7.20268C17.1028 7.33195 17.2295 7.43055 17.3939 7.47868C17.7227 7.57495 18.0697 7.38501 18.1689 7.06528C18.2602 6.77068 18.4185 6.27469 18.6296 5.96699C18.8407 5.65929 18.6635 5.27937 18.3579 5.12701Z" fill="white" fill-opacity="0.5"/>
<path d="M25.6567 9.15966C25.6567 9.49952 25.3732 9.77506 25.0235 9.77506C24.6738 9.77506 24.3903 9.49952 24.3903 9.15966C24.3903 8.81972 24.6738 8.54419 25.0235 8.54419C25.3732 8.54419 25.6567 8.81972 25.6567 9.15966Z" fill="white" fill-opacity="0.5"/>
<path d="M7.53287 16.7543C7.53287 18.5587 8.25367 19.8626 9.303 20.7272C11.1287 22.2315 13.9327 22.4555 16.0736 21.4835C15.9825 21.4885 15.8907 21.491 15.7984 21.491C13.1276 21.491 10.9625 19.3703 10.9625 16.7543V11.0047C10.9625 10.6365 10.6555 10.338 10.2766 10.338C8.76127 10.338 7.53287 11.5319 7.53287 13.0047V16.7543Z" fill="white"/>
<path d="M9.17087 21.5928C10.6779 23.5701 13.0856 24.8504 15.7985 24.8504C20.3635 24.8504 24.0641 21.2257 24.0641 16.7543V11.0047C24.0641 10.6365 23.757 10.338 23.3781 10.338C21.8628 10.338 20.6344 11.5319 20.6344 13.0047V16.7543C20.6344 22.2151 13.3445 24.5105 9.17087 21.5928Z" fill="white"/>
</g>
</g>
<defs>
<linearGradient id="paint0_linear_14963_14782" x1="9.4356" y1="-15.6" x2="53.5989" y2="16.0911" gradientUnits="userSpaceOnUse">
<stop stop-color="#5F3A75"/>
<stop offset="1" stop-color="#1A2E62"/>
</linearGradient>
<radialGradient id="paint1_radial_14963_14782" cx="0" cy="0" r="1" gradientUnits="userSpaceOnUse" gradientTransform="translate(35.1242 31.5469) rotate(151.279) scale(21.8157 31.5191)">
<stop stop-color="#D065EC"/>
<stop offset="1" stop-color="#EB9CFF" stop-opacity="0"/>
</radialGradient>
<radialGradient id="paint2_radial_14963_14782" cx="0" cy="0" r="1" gradientUnits="userSpaceOnUse" gradientTransform="translate(27.9089 -17.3594) rotate(110.421) scale(53.8031 30.1206)">
<stop stop-color="#588BBF"/>
<stop offset="1" stop-color="#336699" stop-opacity="0"/>
</radialGradient>
<clipPath id="clip0_14963_14782">
<rect width="32" height="32" fill="white"/>
</clipPath>
</defs>
</svg>
