<svg width="32" height="32" viewBox="0 0 32 32" fill="none" xmlns="http://www.w3.org/2000/svg">
<path fill-rule="evenodd" clip-rule="evenodd" d="M0 15.9029C0 11.5818 3.50932 8.07898 7.83838 8.07898C10.3899 8.07898 12.8811 9.70857 14.2326 11.3463L20.1418 18.5248C21.1008 19.6888 22.786 20.6674 24.1616 20.6674C26.7979 20.6674 28.9349 18.5343 28.9349 15.9029C28.9349 13.2715 26.7979 11.1384 24.1616 11.1384C22.7874 11.1384 21.0919 12.1261 20.1311 13.2939L19.0931 14.5549L17.1307 12.1198L17.7624 11.3524C19.1149 9.70857 21.6072 8.07898 24.1616 8.07898C28.4907 8.07898 32 11.5818 32 15.9029C32 20.2239 28.4907 23.7268 24.1616 23.7268C21.6108 23.7268 19.1285 22.1119 17.7742 20.4677L15.853 18.1338V23.9149H13.1711V21.54C11.7681 22.75 9.82457 23.7268 7.83838 23.7268C3.50932 23.7268 0 20.2239 0 15.9029ZM11.8667 13.2914L14.4029 16.3723H8.23632V19.0493H11.3652C10.3866 19.969 9.0033 20.6674 7.83838 20.6674C5.20207 20.6674 3.06504 18.5343 3.06504 15.9029C3.06504 13.2715 5.20207 11.1384 7.83838 11.1384C9.20878 11.1384 10.9041 12.1254 11.8659 13.2904L11.8667 13.2914Z" fill="#00A987"/>
</svg>
