<svg width="33" height="32" viewBox="0 0 33 32" fill="none" xmlns="http://www.w3.org/2000/svg">
<path d="M11.0742 4.27822C12.5475 3.93707 14.1947 4.60599 14.9673 5.91706C15.4423 6.63949 15.4523 7.52915 15.5443 8.36028C15.7148 10.1179 17.036 11.6764 18.7116 12.2015C19.6715 12.5059 20.7334 12.332 21.6565 12.7684C23.0177 13.3805 23.879 14.909 23.7034 16.3906C23.5713 18.083 22.0729 19.5362 20.3738 19.6114C18.929 19.7369 17.4707 18.8807 16.8754 17.5595C16.4557 16.6782 16.6012 15.6699 16.342 14.7484C15.9841 13.439 14.9958 12.3353 13.7599 11.7868C12.5609 11.2433 11.1278 11.2483 9.93541 11.8069C8.6628 12.3838 7.65775 13.5561 7.35172 14.9274C7.16443 15.7284 7.2447 16.5796 6.95205 17.3589C6.42193 18.7402 4.96537 19.7001 3.48204 19.6165C1.83317 19.6014 0.324761 18.2853 0.0672282 16.6599C-0.222078 15.1598 0.568915 13.531 1.9335 12.8403C2.95193 12.2902 4.16936 12.5427 5.22959 12.1346C6.7497 11.5644 7.95876 10.1496 8.16613 8.52416C8.26981 7.8519 8.24974 7.15288 8.48554 6.50571C8.89023 5.3836 9.912 4.52404 11.0742 4.27822Z" fill="#4B4E50" stroke="#4B4E50" stroke-width="0.0156777"/>
<path d="M19.4357 4.27661C21.1197 3.88195 22.9776 4.90539 23.5512 6.53253C24.0044 7.75664 23.7519 9.22157 22.8673 10.1932C22.0261 11.1564 20.6515 11.5845 19.4073 11.3052C17.8688 10.9992 16.6497 9.57442 16.5945 8.00414C16.4523 6.28336 17.7367 4.591 19.4357 4.27661Z" fill="#4993C6" stroke="#4993C6" stroke-width="0.0156777"/>
<path d="M11.0743 12.4759C12.5944 12.0929 14.2867 12.8404 15.0342 14.215C15.6814 15.2887 15.3235 16.6231 15.8436 17.7386C16.561 19.5196 18.4591 20.7387 20.3805 20.6149C22.215 20.5447 23.9208 19.2787 24.5379 17.5546C24.9325 16.5245 24.6733 15.3489 25.1951 14.3572C25.8707 12.9642 27.5145 12.1448 29.0346 12.4357C30.6802 12.6866 32.013 14.2234 32.0046 15.8924C32.0698 17.3439 31.1384 18.762 29.7955 19.3005C29.0179 19.6199 28.1567 19.5229 27.3506 19.7052C25.6884 20.0814 24.3004 21.4527 23.9158 23.1133C23.7301 23.8842 23.8121 24.6986 23.5562 25.4545C23.093 26.779 21.7802 27.7455 20.3789 27.8007C18.9374 27.9128 17.4741 27.0733 16.8754 25.7539C16.5276 25.0448 16.5644 24.2371 16.459 23.4745C16.2115 21.6985 14.7984 20.1634 13.0643 19.7303C12.1679 19.5045 11.1913 19.65 10.3451 19.2252C8.97887 18.6031 8.12768 17.0513 8.32501 15.5629C8.46882 14.088 9.62605 12.7903 11.0743 12.4759Z" fill="#4993C6" stroke="#4993C6" stroke-width="0.0156777"/>
<path d="M11.2465 20.6682C12.4271 20.4542 13.7081 20.8538 14.5209 21.7468C15.4306 22.6883 15.7216 24.1416 15.3001 25.374C14.8653 26.7069 13.5777 27.7002 12.1796 27.7938C10.984 27.8992 9.7565 27.3574 9.03574 26.3958C8.25646 25.3975 8.08588 23.9794 8.57586 22.8171C9.03073 21.7134 10.0675 20.8689 11.2465 20.6682Z" fill="#4B4E50" stroke="#4B4E50" stroke-width="0.0156777"/>
</svg>
