<svg width="32" height="32" viewBox="0 0 32 32" fill="none" xmlns="http://www.w3.org/2000/svg">
<path fill-rule="evenodd" clip-rule="evenodd" d="M14.3924 4.38011C15.5726 2.56837 17.7364 0.104417 21.2252 0.301119C23.7824 0.446058 25.6459 1.70909 26.2774 4.18341C26.7122 5.91232 26.3395 8.32451 25.884 10.0534C24.3828 15.675 20.5627 17.3418 23.8859 24.392C25.004 26.7524 28.1098 28.2122 26.3706 29.4441C24.6934 30.6347 20.3246 29.351 17.7157 26.9595C8.96758 18.9361 11.0071 9.57719 14.3924 4.38011Z" fill="#AE04BC"/>
<path fill-rule="evenodd" clip-rule="evenodd" d="M24.5795 11.1922C25.6355 10.6849 28.4308 10.1362 30.4082 11.7823C31.8575 12.9833 32.4062 14.5465 31.6815 16.2961C31.1846 17.5074 29.9009 18.7704 28.8759 19.5883C25.5216 22.249 22.54 21.5553 21.4116 27.1872C21.0389 29.0714 22.2295 31.2973 20.6662 31.2662C19.1547 31.2352 17.1359 28.5538 16.639 26.007C14.9929 17.4142 20.4591 13.1592 24.5795 11.1922Z" fill="#1900CE"/>
<path fill-rule="evenodd" clip-rule="evenodd" d="M20.045 31.67C12.1976 30.966 4.40198 25.479 1.1305 18.2114C-1.72686 11.8652 0.716394 1.40887 9.78542 6.54384C16.2145 10.188 13.999 18.0251 19.0304 23.6673C22.6539 27.7256 27.7785 26.535 26.8054 29.2475C26.0082 31.5147 21.9603 31.846 20.045 31.67Z" fill="black"/>
</svg>
