<svg width="32" height="32" viewBox="0 0 32 32" fill="none" xmlns="http://www.w3.org/2000/svg">
<path d="M29.6364 10.3521L28.6497 7.67214L29.3359 6.13367C29.379 6.03662 29.3918 5.92881 29.3726 5.82436C29.3534 5.71991 29.3031 5.6237 29.2283 5.54834L27.3624 3.66226C26.9618 3.25583 26.4541 2.97153 25.8982 2.84249C25.3424 2.71346 24.7613 2.74498 24.2227 2.9334L23.7001 3.11505L20.8497 0.0269108L16.0145 0H15.9831L11.1166 0.0381248L8.26838 3.15094L7.76154 2.97152C7.21941 2.78088 6.63416 2.74882 6.07445 2.87911C5.51475 3.00941 5.00382 3.29664 4.60163 3.70712L2.70209 5.62907C2.64248 5.68915 2.60244 5.76586 2.58723 5.84911C2.57202 5.93237 2.58235 6.01828 2.61688 6.09555L3.33228 7.69232L2.35 10.3701L2.98467 12.7854L5.87995 23.7924C6.21349 25.0603 6.98085 26.1713 8.0486 26.9321C8.0486 26.9321 11.5628 29.4102 15.03 31.6619C15.3042 31.8808 15.6446 32 15.9955 32C16.3463 32 16.6867 31.8808 16.9609 31.6619C20.8564 29.1097 23.9378 26.9231 23.9378 26.9231C25.0048 26.1619 25.7713 25.051 26.1043 23.7834L28.9838 12.7719L29.6364 10.3521Z" fill="url(#paint0_linear_14928_35990)"/>
<path d="M16.7905 19.8365C16.6059 19.7538 16.4155 19.6849 16.2208 19.6301H15.8777C15.683 19.6849 15.4927 19.7538 15.3081 19.8365L14.4447 20.1953C14.1711 20.3097 13.7315 20.5137 13.4691 20.6438L11.8813 21.4713C11.8238 21.49 11.7732 21.5254 11.736 21.5731C11.6988 21.6208 11.6768 21.6785 11.6727 21.7388C11.6686 21.7991 11.6826 21.8593 11.713 21.9115C11.7434 21.9638 11.7887 22.0057 11.8432 22.032L13.2224 23.0053C13.4646 23.1758 13.8459 23.4763 14.0701 23.6781L14.4581 24.0123C14.6824 24.2052 15.0479 24.5259 15.27 24.7232L15.6378 25.0484C15.7514 25.1431 15.8946 25.1949 16.0426 25.1949C16.1905 25.1949 16.3337 25.1431 16.4474 25.0484L16.8331 24.712L17.6449 24.0033L18.0352 23.6624C18.2594 23.4673 18.6384 23.1668 18.8806 22.9896L20.2599 22.0029C20.3144 21.9767 20.3598 21.9346 20.3901 21.8822C20.4203 21.8298 20.4341 21.7694 20.4295 21.7091C20.4249 21.6487 20.4021 21.5912 20.3643 21.544C20.3264 21.4967 20.2752 21.4621 20.2173 21.4444L18.6317 20.6393C18.3671 20.5048 17.9275 20.3029 17.6517 20.1908L16.7905 19.8365Z" fill="white"/>
<path d="M26.5685 10.9511L26.6133 10.8076C26.616 10.6156 26.604 10.4236 26.5775 10.2334C26.4439 9.89374 26.2724 9.57023 26.0661 9.26911L25.1691 7.95266C25.0031 7.70597 24.7205 7.31575 24.5299 7.08475L23.3279 5.57993C23.2182 5.43326 23.0991 5.29392 22.9713 5.1628H22.9466C22.9466 5.1628 22.7044 5.2054 22.4128 5.26147L20.5761 5.61581L19.771 5.77055C19.5037 5.78311 19.2365 5.74429 18.9838 5.65618L17.5328 5.18746C17.2502 5.09551 16.7838 4.9632 16.4945 4.9004C16.1896 4.868 15.8821 4.868 15.5772 4.9004C15.2879 4.96768 14.8214 5.09776 14.5389 5.18971L13.0879 5.66066C12.8352 5.74877 12.568 5.7876 12.3007 5.77504L11.4956 5.62254L9.6566 5.27044C9.36505 5.21438 9.12509 5.16952 9.12284 5.17176H9.09817C8.97035 5.30289 8.85124 5.44223 8.74159 5.5889L7.54177 7.09372C7.35787 7.31799 7.06857 7.71718 6.90261 7.96163L6.00555 9.27807C5.85062 9.50509 5.70909 9.74098 5.58168 9.98451C5.50483 10.2561 5.46411 10.5366 5.46058 10.8188L5.50543 10.9623C5.52702 11.0545 5.55475 11.1452 5.58841 11.2337C5.77455 11.4579 6.09301 11.8302 6.29709 12.0478L9.43681 15.3848C9.54105 15.5065 9.61079 15.6539 9.63879 15.8117C9.66679 15.9694 9.65203 16.1318 9.59604 16.2819L9.08248 17.4997C8.9657 17.8223 8.95704 18.1742 9.05781 18.5021L9.16097 18.7847C9.32953 19.2436 9.61846 19.6488 9.99748 19.9576L10.4909 20.3591C10.619 20.4515 10.7686 20.5099 10.9255 20.5287C11.0824 20.5475 11.2415 20.5262 11.3879 20.4667L13.1417 19.6302C13.4636 19.469 13.7648 19.2695 14.0388 19.0359L15.4427 17.7688C15.4986 17.7183 15.5438 17.6571 15.5756 17.5888C15.6075 17.5205 15.6253 17.4466 15.628 17.3713C15.6307 17.296 15.6183 17.2209 15.5915 17.1505C15.5646 17.0801 15.5239 17.0158 15.4718 16.9614L12.3029 14.8264C12.183 14.7413 12.0975 14.6159 12.0621 14.4731C12.0267 14.3303 12.0437 14.1795 12.1101 14.0482L13.339 11.7383C13.4089 11.5969 13.4503 11.4431 13.4606 11.2857C13.471 11.1283 13.4503 10.9704 13.3996 10.821C13.247 10.5361 13.0006 10.3127 12.7021 10.1886L8.84924 8.73311C8.57115 8.62771 8.58685 8.50884 8.88064 8.4909L11.1435 8.26664C11.4983 8.24407 11.8545 8.27583 12.1998 8.36083L14.1688 8.91028C14.3086 8.95241 14.4284 9.04382 14.5059 9.16754C14.5835 9.29126 14.6135 9.4389 14.5904 9.58308L13.8167 13.8082C13.765 14.0423 13.7521 14.2832 13.7786 14.5214C13.81 14.6223 14.0746 14.7457 14.3639 14.8174L15.5638 15.0731C15.9122 15.1371 16.2694 15.1371 16.6178 15.0731L17.6965 14.8287C17.9858 14.7636 18.2482 14.6268 18.2819 14.5259C18.3077 14.2876 18.294 14.0466 18.2415 13.8127L17.4633 9.58756C17.4403 9.44339 17.4703 9.29575 17.5478 9.17203C17.6254 9.04831 17.7451 8.9569 17.8849 8.91476L19.854 8.36307C20.1992 8.27804 20.5554 8.24628 20.9103 8.26888L23.1731 8.47969C23.4691 8.5066 23.4826 8.61649 23.2067 8.7219L19.3561 10.1819C19.0576 10.306 18.8113 10.5294 18.6586 10.8143C18.5565 11.116 18.5783 11.4459 18.7192 11.7315L19.9504 14.0415C20.0167 14.1728 20.0338 14.3236 19.9984 14.4664C19.963 14.6092 19.8775 14.7345 19.7575 14.8197L16.5909 16.9592C16.5388 17.0136 16.4981 17.0779 16.4713 17.1483C16.4444 17.2187 16.432 17.2937 16.4347 17.369C16.4374 17.4443 16.4552 17.5183 16.4871 17.5866C16.5189 17.6549 16.5641 17.7161 16.6201 17.7665L18.0262 19.0336C18.3003 19.2665 18.6015 19.4653 18.9233 19.6257L20.677 20.46C20.8236 20.5192 20.9828 20.5401 21.1398 20.5209C21.2967 20.5017 21.4461 20.4429 21.5741 20.3501L22.0675 19.9464C22.4469 19.637 22.7359 19.2311 22.904 18.7713L23.0072 18.4887C23.1079 18.1607 23.0993 17.8088 22.9825 17.4862L22.4667 16.2684C22.4107 16.1183 22.3959 15.9559 22.4239 15.7982C22.4519 15.6404 22.5217 15.4931 22.6259 15.3714L25.7656 12.0298C25.9697 11.8056 26.2859 11.4467 26.4721 11.2157C26.51 11.1297 26.5422 11.0413 26.5685 10.9511Z" fill="white"/>
<defs>
<linearGradient id="paint0_linear_14928_35990" x1="2.35897" y1="16.0014" x2="29.6275" y2="16.0014" gradientUnits="userSpaceOnUse">
<stop stop-color="#F1562B"/>
<stop offset="0.3" stop-color="#F1542B"/>
<stop offset="0.41" stop-color="#F04D2A"/>
<stop offset="0.49" stop-color="#EF4229"/>
<stop offset="0.5" stop-color="#EF4029"/>
<stop offset="0.56" stop-color="#E83E28"/>
<stop offset="0.67" stop-color="#E13C26"/>
<stop offset="1" stop-color="#DF3C26"/>
</linearGradient>
</defs>
</svg>
