<svg width="50" height="50" viewBox="0 0 50 50" fill="none" xmlns="http://www.w3.org/2000/svg">
<rect x="1" y="1" width="48" height="48" rx="8" fill="white" stroke="#E4E4E7"/>
<path d="M25 41C33.8366 41 41 33.8366 41 25C41 16.1634 33.8366 9 25 9C16.1634 9 9 16.1634 9 25C9 33.8366 16.1634 41 25 41Z" fill="#FF0420"/>
<path fill-rule="evenodd" clip-rule="evenodd" d="M17.9907 28.5709C18.6777 29.0427 19.4989 29.2787 20.3314 29.2431C21.484 29.2431 22.4036 28.9751 23.0916 28.4389C23.7801 27.8948 24.2642 27.0746 24.544 25.9784C24.712 25.3062 24.8559 24.614 24.9758 23.9018C25.0117 23.6915 25.0317 23.4789 25.0358 23.2657C25.0501 22.7534 24.9036 22.2496 24.6162 21.8252C24.3314 21.4133 23.9302 21.0957 23.464 20.9129C22.9389 20.6977 22.3754 20.5915 21.8078 20.6008C19.5429 20.6008 18.1387 21.7011 17.5947 23.9018C17.4026 24.7091 17.2545 25.4013 17.1505 25.9784C17.1141 26.1926 17.0942 26.4092 17.0906 26.6265C17.0716 26.9993 17.1433 27.3712 17.3001 27.71C17.4569 28.0488 17.6941 28.3443 17.9907 28.5709ZM21.6403 27.1185C21.3211 27.3852 20.9154 27.5261 20.4994 27.5146C19.7315 27.5146 19.3472 27.1465 19.3472 26.4103C19.3467 26.3157 19.3519 26.2212 19.3616 26.1272C19.3693 26.0531 19.3805 25.9794 19.3949 25.9062C19.5388 25.13 19.6828 24.4738 19.8273 23.9377C19.9179 23.4729 20.1531 23.0486 20.4994 22.7254C20.8237 22.4598 21.2325 22.3193 21.6515 22.3293C22.4118 22.3291 22.7919 22.6932 22.7919 23.4215C22.7919 23.5947 22.776 23.7675 22.7438 23.9377C22.648 24.4981 22.5081 25.1543 22.3242 25.9062C22.2325 26.3735 21.9927 26.7987 21.6403 27.1185Z" fill="white"/>
<path fill-rule="evenodd" clip-rule="evenodd" d="M25.4774 29.1046C25.5127 29.1191 25.5506 29.1255 25.589 29.1233L27.2217 29.1235C27.2617 29.1229 27.3011 29.1158 27.338 29.1027C27.3785 29.0884 27.4164 29.0672 27.4497 29.0396C27.5194 28.9868 27.5665 28.9096 27.5808 28.8235L28.1331 26.1948H29.7535C30.8016 26.1948 31.6259 25.9747 32.2258 25.5346C32.8729 25.0315 33.3057 24.3026 33.4384 23.4939C33.485 23.2891 33.5091 23.0797 33.5107 22.8696C33.525 22.5555 33.4569 22.2431 33.3139 21.9631C33.171 21.6832 32.9574 21.4453 32.6941 21.2731C32.0542 20.8766 31.3093 20.684 30.5573 20.7209H27.3647C27.3032 20.7218 27.2438 20.738 27.191 20.7675C27.172 20.7782 27.1536 20.7907 27.1362 20.8048C27.067 20.8576 27.0199 20.9349 27.005 21.021L25.3488 28.8232C25.3319 28.8972 25.3447 28.9748 25.3846 29.0393C25.4056 29.0626 25.4307 29.0817 25.4584 29.0958L25.4774 29.1046ZM30.7146 24.2619C30.4605 24.4478 30.1526 24.5448 29.838 24.5378H28.4579L28.9138 22.3894H30.3544C30.6018 22.365 30.8503 22.4334 31.0506 22.5814C31.1208 22.6491 31.1761 22.7315 31.2115 22.8228C31.2463 22.9141 31.2612 23.012 31.2545 23.1096C31.253 23.2305 31.2407 23.351 31.2187 23.4698C31.1551 23.7875 30.9753 24.0701 30.7146 24.2619Z" fill="white"/>
</svg>
