<svg width="32" height="32" viewBox="0 0 32 32" fill="none" xmlns="http://www.w3.org/2000/svg">
<g clip-path="url(#clip0_14384_93196)">
<path d="M15.9134 0.00212097C7.12484 0.00212097 0.000244141 7.12672 0.000244141 15.9153C0.000244141 24.4495 6.71895 31.4147 15.1555 31.8099C15.4073 31.8218 15.6595 31.8285 15.9136 31.8285C19.9878 31.8285 23.7035 30.2965 26.5188 27.7788C24.6535 29.0159 22.4727 29.7277 20.142 29.7277C16.3524 29.7277 12.9585 27.8477 10.6759 24.883C8.91623 22.806 7.77656 19.7356 7.69892 16.2898V15.5404C7.7765 12.0948 8.91618 9.02384 10.6754 6.94726C12.9583 3.98262 16.3522 2.10264 20.1416 2.10264C22.4728 2.10264 24.654 2.81443 26.5195 4.05229C23.7179 1.54608 20.0248 0.0172482 15.9732 0.00220299C15.953 0.00220299 15.9333 0.00141335 15.9131 0.00141335L15.9134 0.00212097Z" fill="url(#paint0_linear_14384_93196)"/>
<path d="M10.6756 6.94838C12.1359 5.22441 14.0219 4.18483 16.0823 4.18483C20.7151 4.18483 24.4701 9.43719 24.4701 15.9162C24.4701 22.3952 20.7149 27.6475 16.0823 27.6475C14.0219 27.6475 12.1359 26.6084 10.676 24.8844C12.9585 27.849 16.3522 29.729 20.1421 29.729C22.473 29.729 24.6538 29.0172 26.519 27.7801C29.7761 24.8662 31.8271 20.6308 31.8271 15.9163C31.8271 11.2023 29.7765 6.96719 26.5201 4.05357C24.6544 2.81571 22.4732 2.10393 20.1422 2.10393C16.3526 2.10393 12.9582 3.98374 10.6756 6.94838Z" fill="url(#paint1_linear_14384_93196)"/>
</g>
<defs>
<linearGradient id="paint0_linear_14384_93196" x1="13.2603" y1="0.520846" x2="13.2603" y2="31.3658" gradientUnits="userSpaceOnUse">
<stop stop-color="#FF1B2D"/>
<stop offset="0.3" stop-color="#FF1B2D"/>
<stop offset="0.614" stop-color="#FF1B2D"/>
<stop offset="1" stop-color="#A70014"/>
</linearGradient>
<linearGradient id="paint1_linear_14384_93196" x1="21.2511" y1="2.33937" x2="21.2511" y2="29.6201" gradientUnits="userSpaceOnUse">
<stop stop-color="#9C0000"/>
<stop offset="0.7" stop-color="#FF4B4B"/>
<stop offset="1" stop-color="#FF4B4B"/>
</linearGradient>
<clipPath id="clip0_14384_93196">
<rect width="32" height="32" fill="white"/>
</clipPath>
</defs>
</svg>
