<svg width="50" height="50" viewBox="0 0 50 50" fill="none" xmlns="http://www.w3.org/2000/svg">
<rect x="1" y="1" width="48" height="48" rx="8" fill="white" stroke="#E4E4E7"/>
<path d="M24.9353 39.3496C32.8961 39.3496 39.3497 32.896 39.3497 24.9352C39.3497 16.9743 32.8961 10.5208 24.9353 10.5208C16.9744 10.5208 10.5209 16.9743 10.5209 24.9352C10.5209 32.896 16.9744 39.3496 24.9353 39.3496Z" fill="url(#paint0_linear_10634_9078)"/>
<path d="M29.0948 28.0519L33.173 25.6971C33.389 25.5723 33.5226 25.3404 33.5226 25.0909V20.3818C33.5226 20.1328 33.3884 19.9004 33.173 19.7756L29.0948 17.4208C28.8788 17.296 28.611 17.2966 28.395 17.4208L24.3169 19.7756C24.1009 19.9004 23.9673 20.1328 23.9673 20.3818V28.7976L21.1075 30.4485L18.2477 28.7976V25.4952L21.1075 23.8443L22.9938 24.9331V22.7178L21.4571 21.8308C21.3512 21.7696 21.2299 21.7372 21.1069 21.7372C20.9839 21.7372 20.8627 21.7696 20.7573 21.8308L16.6792 24.1857C16.4632 24.3104 16.3296 24.5423 16.3296 24.7919V29.5009C16.3296 29.7499 16.4638 29.9824 16.6792 30.1072L20.7573 32.462C20.9727 32.5862 21.2411 32.5862 21.4571 32.462L25.5352 30.1077C25.7512 29.983 25.8848 29.7505 25.8848 29.5015V21.0857L25.9366 21.0563L28.7447 19.4348L31.6045 21.0857V24.3881L28.7447 26.039L26.8613 24.9514V27.1667L28.395 28.0525C28.611 28.1767 28.8788 28.1767 29.0948 28.0525V28.0519Z" fill="white"/>
<defs>
<linearGradient id="paint0_linear_10634_9078" x1="5.25244" y1="12.8902" x2="35.0135" y2="31.1025" gradientUnits="userSpaceOnUse">
<stop stop-color="#A229C5"/>
<stop offset="1" stop-color="#7B3FE4"/>
</linearGradient>
</defs>
</svg>
