<svg width="32" height="32" viewBox="0 0 32 32" fill="none" xmlns="http://www.w3.org/2000/svg">
<g clip-path="url(#clip0_14384_93197)">
<g opacity="0.53" filter="url(#filter0_f_14384_93197)">
<path d="M30.5958 16.4182C30.5958 18.2637 30.2183 20.0912 29.4849 21.7962C28.7514 23.5012 27.6764 25.0505 26.3212 26.3555C24.966 27.6604 23.3572 28.6956 21.5865 29.4019C19.8158 30.1081 17.9181 30.4716 16.0015 30.4716C14.085 30.4716 12.1872 30.1081 10.4165 29.4019C8.64586 28.6956 7.037 27.6604 5.68179 26.3555C4.32659 25.0505 3.25158 23.5012 2.51815 21.7962C1.78472 20.0912 1.40723 18.2637 1.40723 16.4182C1.40723 12.691 2.94483 9.11643 5.68179 6.4809C8.41875 3.84537 12.1309 2.36475 16.0015 2.36475C17.9181 2.36475 19.8158 2.72825 21.5865 3.4345C23.3572 4.14075 24.966 5.17592 26.3212 6.4809C27.6764 7.78588 28.7514 9.33512 29.4849 11.0402C30.2183 12.7452 30.5958 14.5727 30.5958 16.4182Z" fill="black"/>
</g>
<path d="M31.1504 15.1774C31.1504 17.1669 30.7585 19.1369 29.9972 20.975C29.2358 22.8131 28.1199 24.4832 26.7131 25.89C25.3063 27.2968 23.6362 28.4127 21.7981 29.1741C19.96 29.9354 17.99 30.3273 16.0005 30.3273C11.9825 30.3273 8.12904 28.7311 5.28789 25.89C2.44673 23.0488 0.850586 19.1954 0.850586 15.1774C0.850586 11.1594 2.44673 7.30593 5.28789 4.46477C8.12904 1.62362 11.9825 0.0274668 16.0005 0.0274658C17.99 0.0274657 19.96 0.419331 21.7981 1.18069C23.6362 1.94204 25.3063 3.05797 26.7131 4.46477C28.1199 5.87157 29.2358 7.54168 29.9972 9.37975C30.7585 11.2178 31.1504 13.1879 31.1504 15.1774Z" fill="url(#paint0_linear_14384_93197)" stroke="#CDCDCD" stroke-width="0.0449839" stroke-linecap="round" stroke-linejoin="round"/>
<path d="M29.9628 15.1771C29.9628 18.8803 28.4918 22.4318 25.8732 25.0503C23.2547 27.6688 19.7032 29.1399 16.0001 29.1399C12.2969 29.1399 8.74542 27.6688 6.12689 25.0503C3.50837 22.4318 2.03729 18.8803 2.03729 15.1771C2.03729 11.474 3.50837 7.92248 6.12689 5.30396C8.74542 2.68543 12.2969 1.21436 16.0001 1.21436C19.7032 1.21436 23.2547 2.68543 25.8732 5.30396C28.4918 7.92248 29.9628 11.474 29.9628 15.1771Z" fill="url(#paint1_radial_14384_93197)"/>
<path d="M15.9997 1.94263C15.8869 1.94263 15.7961 2.03341 15.7961 2.1462V4.49432C15.7961 4.6071 15.8869 4.69789 15.9997 4.69789C16.1125 4.69789 16.2033 4.6071 16.2033 4.49432V2.1462C16.2033 2.03341 16.1125 1.94263 15.9997 1.94263ZM14.668 2.0268C14.6545 2.02535 14.6406 2.02535 14.6266 2.02697C14.5144 2.03867 14.4335 2.1384 14.4452 2.25057L14.5478 3.23292C14.5595 3.3451 14.6593 3.42598 14.7714 3.41427C14.8836 3.40256 14.9645 3.30284 14.9528 3.19066L14.8502 2.20832C14.84 2.11016 14.7624 2.03596 14.668 2.0268ZM17.3408 2.02777C17.2464 2.03686 17.1687 2.11105 17.1584 2.20919L17.0551 3.19146C17.0433 3.30362 17.1242 3.40344 17.2363 3.41524C17.3485 3.42704 17.4482 3.34623 17.46 3.23407L17.5633 2.25172C17.5752 2.13955 17.4943 2.03982 17.3821 2.02803C17.3681 2.02658 17.3543 2.02657 17.3408 2.02777ZM13.2999 2.22518C13.2864 2.22529 13.2726 2.22664 13.2588 2.22954C13.1485 2.2529 13.0784 2.36055 13.1018 2.47089L13.5881 4.76805C13.6114 4.87839 13.7191 4.94841 13.8294 4.92506C13.9398 4.9017 14.0098 4.79413 13.9864 4.68379L13.5001 2.38654C13.4797 2.29 13.3947 2.22444 13.2999 2.22518ZM18.7088 2.22712C18.6139 2.22615 18.529 2.2919 18.5085 2.38843L18.0205 4.68532C17.997 4.79564 18.067 4.90332 18.1773 4.92676C18.2876 4.95022 18.3953 4.88023 18.4187 4.76993L18.9067 2.47303C18.9302 2.36271 18.8602 2.25503 18.7499 2.23159C18.7361 2.22869 18.7223 2.22712 18.7088 2.22712ZM11.9943 2.59331C11.968 2.59089 11.9407 2.5938 11.9139 2.60269C11.8067 2.63756 11.7483 2.7519 11.7832 2.85916L12.0884 3.79855C12.1233 3.90581 12.2377 3.96413 12.345 3.92928C12.4522 3.89441 12.5105 3.77999 12.4756 3.67273L12.1704 2.73334C12.1443 2.6529 12.0734 2.60003 11.9943 2.59331ZM20.007 2.5938C19.9279 2.60052 19.8571 2.6534 19.8309 2.73384L19.5255 3.67314C19.4906 3.7804 19.5489 3.89483 19.6562 3.92969C19.7634 3.96456 19.8778 3.90628 19.9127 3.79905L20.2181 2.85966C20.253 2.7524 20.1947 2.63798 20.0875 2.60311C20.0607 2.59441 20.0333 2.59157 20.007 2.5938ZM10.7032 3.06577C10.6768 3.06626 10.65 3.07206 10.6242 3.08352C10.5212 3.12932 10.4751 3.24914 10.5209 3.3522L11.4746 5.49789C11.5204 5.60095 11.6402 5.64703 11.7433 5.60122C11.8463 5.55542 11.8925 5.4356 11.8467 5.33254L10.8929 3.18685C10.8586 3.10955 10.7826 3.06424 10.7032 3.06577ZM21.3127 3.07298C21.2333 3.07153 21.1572 3.11655 21.1228 3.19379L20.1662 5.33817C20.1202 5.44116 20.1662 5.56106 20.2691 5.60701C20.3721 5.65296 20.492 5.60704 20.538 5.50404L21.4946 3.35967C21.5406 3.25667 21.4946 3.13677 21.3916 3.09082C21.3659 3.07935 21.3391 3.07356 21.3127 3.07298ZM9.50482 3.69986C9.46574 3.69695 9.42548 3.70566 9.38885 3.72684C9.29118 3.78323 9.25796 3.90725 9.31434 4.00492L9.8082 4.86031C9.8646 4.95799 9.9886 4.99121 10.0863 4.93482C10.1839 4.87843 10.2172 4.75442 10.1608 4.65674L9.66692 3.80135C9.63166 3.7403 9.56997 3.70441 9.50482 3.69986ZM22.4946 3.69986C22.4295 3.70421 22.3678 3.74029 22.3326 3.80134L21.8387 4.65673C21.7823 4.7544 21.8156 4.87841 21.9133 4.9348C22.0109 4.99119 22.1349 4.95797 22.1913 4.8603L22.6852 4.0049C22.7416 3.90723 22.7084 3.78322 22.6107 3.72683C22.5741 3.70569 22.5337 3.69715 22.4946 3.69986ZM8.34113 4.42566C8.30196 4.42711 8.26273 4.43968 8.22849 4.46449C8.13721 4.53072 8.11703 4.65752 8.18327 4.74881L9.56204 6.64946C9.62827 6.74075 9.75515 6.76093 9.84644 6.69473C9.93774 6.62851 9.95792 6.50171 9.89166 6.41042L8.51281 4.50976C8.47141 4.4527 8.40639 4.42343 8.34113 4.42566ZM23.6729 4.43601C23.6076 4.43359 23.5426 4.46285 23.5011 4.51983L22.1197 6.41864C22.0534 6.50984 22.0734 6.63669 22.1646 6.70304C22.2558 6.76938 22.3827 6.74942 22.449 6.65825L23.8303 4.75944C23.8967 4.66824 23.8766 4.54139 23.7855 4.47504C23.7513 4.45018 23.712 4.43741 23.6729 4.43601ZM7.30096 5.29799C7.249 5.29509 7.19597 5.31245 7.15406 5.35018C7.07024 5.42564 7.0635 5.55383 7.13897 5.63766L7.79985 6.37181C7.8753 6.45563 8.0035 6.46237 8.08733 6.3869C8.17115 6.31144 8.17789 6.18316 8.10241 6.09933L7.44163 5.36527C7.4039 5.32334 7.35293 5.30073 7.30096 5.29799ZM24.7 5.29944C24.648 5.30235 24.597 5.32483 24.5593 5.36674L23.8984 6.10072C23.823 6.18453 23.8296 6.31281 23.9135 6.38828C23.9973 6.46375 24.1255 6.45698 24.201 6.37319L24.8619 5.63922C24.9374 5.5554 24.9306 5.42712 24.8468 5.35166C24.8049 5.31393 24.7519 5.29672 24.7 5.29944ZM6.30403 6.25561C6.25206 6.25851 6.20118 6.281 6.16345 6.32291C6.088 6.40674 6.09474 6.53493 6.17854 6.61039L7.92369 8.18139C8.00751 8.25686 8.13571 8.2501 8.21116 8.16631C8.28662 8.08249 8.27996 7.95429 8.19612 7.87883L6.45089 6.30782C6.40896 6.2701 6.356 6.25288 6.30403 6.25561ZM25.7017 6.26248C25.6498 6.25958 25.5967 6.27689 25.5548 6.31458L23.8085 7.88436C23.7247 7.95975 23.7178 8.08796 23.7932 8.17183C23.8686 8.2557 23.9969 8.26252 24.0807 8.18712L25.827 6.61734C25.9109 6.54194 25.9177 6.41374 25.8423 6.32986C25.8046 6.28793 25.7537 6.26524 25.7017 6.26248ZM5.47499 7.32163C5.40973 7.31921 5.34466 7.34861 5.30323 7.40562C5.23694 7.49686 5.25704 7.62364 5.3483 7.68993L6.14738 8.2705C6.23862 8.3368 6.3654 8.31679 6.43169 8.22553C6.49799 8.13428 6.47792 8.00742 6.38671 7.94113L5.58763 7.36055C5.55344 7.33569 5.51415 7.32303 5.47499 7.32163ZM26.53 7.32902C26.4908 7.33048 26.4516 7.343 26.4174 7.36786L25.6179 7.94791C25.5266 8.01414 25.5064 8.14102 25.5727 8.23231C25.6389 8.3236 25.7657 8.3437 25.857 8.27748L26.6565 7.69744C26.7478 7.63121 26.7679 7.50441 26.7017 7.41312C26.6603 7.35607 26.5952 7.32679 26.53 7.32902ZM4.70025 8.45872C4.63511 8.46307 4.57348 8.49915 4.53824 8.5602C4.48184 8.65787 4.51507 8.78188 4.61274 8.83827L6.64624 10.0123C6.74391 10.0687 6.86792 10.0355 6.92431 9.93783C6.9807 9.84016 6.94748 9.71614 6.84981 9.65975L4.81631 8.48569C4.7797 8.46455 4.73933 8.45601 4.70025 8.45872ZM27.2992 8.45872C27.2601 8.45582 27.2198 8.46452 27.1831 8.48571L25.1496 9.65977C25.052 9.71616 25.0187 9.84017 25.0751 9.93784C25.1315 10.0355 25.2555 10.0687 25.3532 10.0123L27.3868 8.83829C27.4845 8.7819 27.5177 8.65788 27.4613 8.56021C27.426 8.49917 27.3643 8.46327 27.2992 8.45872ZM4.11449 9.67073C4.03516 9.6688 3.95909 9.71421 3.92463 9.79145C3.87868 9.89445 3.9246 10.0144 4.0276 10.0603L4.92973 10.4627C5.03274 10.5086 5.15264 10.4627 5.19858 10.3597C5.24453 10.2567 5.19853 10.1368 5.09553 10.0909L4.19348 9.68848C4.16775 9.67697 4.14093 9.67127 4.11449 9.67073ZM27.8889 9.6791C27.8625 9.67958 27.8356 9.68539 27.8098 9.69685L26.9075 10.0985C26.8045 10.1444 26.7584 10.2643 26.8043 10.3673C26.8502 10.4703 26.9701 10.5164 27.0731 10.4705L27.9754 10.0688C28.0785 10.0229 28.1245 9.90303 28.0786 9.79999C28.0442 9.72272 27.9682 9.67752 27.8889 9.6791ZM3.59243 10.9375C3.51336 10.9441 3.44248 10.997 3.41627 11.0774C3.38136 11.1846 3.43949 11.2991 3.54674 11.334L5.77934 12.0615C5.88656 12.0964 6.00103 12.0382 6.03597 11.931C6.07089 11.8238 6.01276 11.7093 5.9055 11.6744L3.67291 10.9469C3.64612 10.9382 3.61879 10.9353 3.59243 10.9375ZM28.41 10.9462C28.3836 10.9438 28.3564 10.9467 28.3296 10.9556L26.0965 11.6815C25.9892 11.7164 25.931 11.8308 25.9658 11.938C26.0007 12.0453 26.1151 12.1036 26.2224 12.0687L28.4554 11.3428C28.5627 11.3079 28.621 11.1935 28.5862 11.0862C28.56 11.0058 28.4891 10.9529 28.41 10.9462ZM3.26718 12.2673C3.17234 12.2663 3.08729 12.3321 3.06677 12.4287C3.04332 12.539 3.1133 12.6467 3.2236 12.6701L4.18979 12.8754C4.3001 12.8989 4.40777 12.8289 4.43122 12.7186C4.45468 12.6083 4.3847 12.5006 4.27439 12.4772L3.30829 12.2718C3.29451 12.2689 3.28072 12.2673 3.26718 12.2673ZM28.7327 12.2692C28.7192 12.2693 28.7055 12.2711 28.6917 12.2736L27.7255 12.4788C27.6152 12.5023 27.5452 12.6098 27.5687 12.7201C27.5921 12.8305 27.6998 12.9005 27.8101 12.8771L28.7762 12.6718C28.8865 12.6484 28.9566 12.5407 28.9331 12.4304C28.9126 12.3339 28.8275 12.2684 28.7327 12.2692ZM3.021 13.6048C2.92659 13.6139 2.84889 13.688 2.83852 13.7861C2.82667 13.8982 2.90735 13.9981 3.0195 14.01L5.35462 14.2568C5.46678 14.2687 5.56664 14.1879 5.57849 14.0758C5.59034 13.9636 5.50957 13.8637 5.39741 13.8519L3.06229 13.605C3.04827 13.6036 3.03449 13.6036 3.021 13.6048ZM28.9806 13.6224C28.9671 13.6209 28.9533 13.6209 28.9392 13.6226L26.6039 13.8663C26.4917 13.878 26.4108 13.9777 26.4225 14.0899C26.4342 14.2021 26.5339 14.2829 26.6461 14.2712L28.9815 14.0275C29.0937 14.0158 29.1745 13.9161 29.1628 13.8039C29.1526 13.7058 29.075 13.6316 28.9806 13.6224ZM2.98146 14.974C2.86868 14.974 2.77789 15.0648 2.77789 15.1776C2.77789 15.2904 2.86868 15.3812 2.98146 15.3812H3.96917C4.08195 15.3812 4.17283 15.2904 4.17283 15.1776C4.17283 15.0648 4.08195 14.974 3.96917 14.974H2.98146ZM28.0303 14.974C27.9175 14.974 27.8267 15.0648 27.8267 15.1776C27.8267 15.2904 27.9175 15.3812 28.0303 15.3812H29.018C29.1308 15.3812 29.2216 15.2904 29.2216 15.1776C29.2216 15.0648 29.1308 14.974 29.018 14.974H28.0303ZM5.39469 16.0838C5.38119 16.0823 5.36741 16.0823 5.35339 16.0839L3.01791 16.3277C2.90574 16.3394 2.82488 16.4391 2.83657 16.5513C2.84828 16.6634 2.948 16.7443 3.06017 16.7326L5.39565 16.4889C5.50782 16.4772 5.58868 16.3775 5.57698 16.2653C5.56673 16.1671 5.48908 16.0929 5.39469 16.0838ZM26.6035 16.0982C26.5091 16.1072 26.4314 16.1813 26.421 16.2794C26.4092 16.3916 26.4899 16.4915 26.602 16.5033L28.9372 16.7502C29.0493 16.762 29.1492 16.6813 29.161 16.5691C29.1729 16.457 29.0921 16.3571 28.9799 16.3452L26.6449 16.0984C26.6309 16.0969 26.617 16.0969 26.6035 16.0982ZM4.23055 17.4734C4.21701 17.4736 4.20323 17.4749 4.18944 17.4778L3.22326 17.683C3.11293 17.7065 3.043 17.8141 3.06643 17.9245C3.08988 18.0348 3.19755 18.1047 3.30787 18.0813L4.27406 17.8761C4.38437 17.8527 4.45431 17.745 4.43088 17.6347C4.41037 17.5382 4.32539 17.4726 4.23055 17.4734ZM27.7686 17.4754C27.6738 17.4744 27.5888 17.5402 27.5683 17.6367C27.5448 17.747 27.6147 17.8547 27.725 17.8781L28.6912 18.0834C28.8015 18.1069 28.9092 18.037 28.9327 17.9267C28.9561 17.8164 28.8861 17.7086 28.7758 17.6852L27.8097 17.4799C27.796 17.477 27.7822 17.4754 27.7686 17.4754ZM5.85752 18.2772C5.83117 18.2748 5.80395 18.2777 5.77714 18.2866L3.54403 19.0124C3.43677 19.0473 3.37851 19.1617 3.41338 19.269C3.44825 19.3763 3.56267 19.4345 3.66993 19.3996L5.90295 18.6738C6.01021 18.6389 6.06855 18.5245 6.03369 18.4172C6.00752 18.3368 5.93659 18.2839 5.85752 18.2772ZM26.1397 18.2844C26.0606 18.291 25.9898 18.3438 25.9636 18.4243C25.9286 18.5315 25.9868 18.646 26.094 18.6809L28.3266 19.4084C28.4338 19.4433 28.5483 19.3851 28.5833 19.2779C28.6182 19.1707 28.56 19.0562 28.4528 19.0213L26.2202 18.2938C26.1934 18.285 26.1661 18.2822 26.1397 18.2844ZM5.00538 19.8671C4.97893 19.8676 4.95215 19.8733 4.9264 19.8847L4.024 20.2865C3.92096 20.3324 3.87498 20.4522 3.92085 20.5553C3.96675 20.6583 4.08658 20.7043 4.18961 20.6584L5.09202 20.2567C5.19504 20.2109 5.24103 20.091 5.19516 19.988C5.16077 19.9107 5.08471 19.8655 5.00538 19.8671ZM26.9908 19.8748C26.9115 19.8729 26.8354 19.9183 26.8009 19.9955C26.755 20.0985 26.8009 20.2184 26.9039 20.2644L27.806 20.6668C27.909 20.7127 28.0289 20.6668 28.0748 20.5638C28.1208 20.4608 28.0748 20.3409 27.9718 20.295L27.0698 19.8926C27.0441 19.8811 27.0173 19.8753 26.9908 19.8748ZM6.7623 20.316C6.72322 20.3131 6.68287 20.3218 6.64624 20.3429L4.61274 21.517C4.51507 21.5734 4.48184 21.6974 4.53824 21.7951C4.59463 21.8927 4.71864 21.926 4.81631 21.8696L6.84981 20.6956C6.94748 20.6392 6.9807 20.5151 6.92431 20.4174C6.88906 20.3564 6.82744 20.3205 6.7623 20.316ZM25.2372 20.316C25.1721 20.3203 25.1104 20.3564 25.0751 20.4174C25.0187 20.5151 25.052 20.6392 25.1496 20.6956L27.1831 21.8696C27.2808 21.926 27.4049 21.8927 27.4613 21.7951C27.5177 21.6974 27.4845 21.5734 27.3868 21.517L25.3532 20.3429C25.3166 20.3218 25.2763 20.3132 25.2372 20.316ZM6.25509 22.0389C6.21592 22.0403 6.17669 22.0529 6.14245 22.0778L5.34303 22.6579C5.25174 22.7241 5.23155 22.8509 5.29776 22.9422C5.36399 23.0334 5.49079 23.0536 5.58207 22.9874L6.38158 22.4073C6.47288 22.3411 6.49307 22.2143 6.42685 22.123C6.38545 22.066 6.32035 22.0366 6.25509 22.0389ZM25.7395 22.0457C25.6743 22.0433 25.6092 22.0727 25.5678 22.1297C25.5015 22.221 25.5216 22.3478 25.6128 22.4141L26.4119 22.9947C26.5032 23.061 26.6299 23.0409 26.6962 22.9496C26.7625 22.8584 26.7425 22.7316 26.6512 22.6653L25.8522 22.0847C25.818 22.0599 25.7787 22.0471 25.7395 22.0457ZM8.06569 22.116C8.01373 22.1131 7.96073 22.1304 7.91879 22.1681L6.17251 23.7379C6.08863 23.8133 6.08182 23.9415 6.15722 24.0254C6.23262 24.1093 6.36082 24.1161 6.44469 24.0407L8.19098 22.4709C8.27485 22.3955 8.28167 22.2673 8.20627 22.1834C8.16859 22.1415 8.11765 22.1188 8.06569 22.116ZM23.9289 22.1216C23.877 22.1245 23.826 22.147 23.7883 22.1889C23.7128 22.2728 23.7195 22.401 23.8033 22.4764L25.5485 24.0474C25.6323 24.1229 25.7606 24.1161 25.8361 24.0323C25.9115 23.9485 25.9048 23.8203 25.821 23.7449L24.0757 22.1738C24.0338 22.1361 23.9809 22.1189 23.9289 22.1216ZM9.72236 23.613C9.65711 23.6105 9.59198 23.6398 9.55051 23.6968L8.16919 25.5956C8.10284 25.6868 8.12281 25.8136 8.21397 25.88C8.30517 25.9463 8.43203 25.9264 8.49837 25.8352L9.87969 23.9363C9.94604 23.8451 9.92607 23.7183 9.83491 23.6519C9.80072 23.6271 9.76152 23.6143 9.72236 23.613ZM22.2657 23.6215C22.2266 23.6229 22.1873 23.6354 22.1531 23.6603C22.0618 23.7265 22.0416 23.8533 22.1078 23.9446L23.4866 25.8453C23.5528 25.9366 23.6796 25.9568 23.7709 25.8905C23.8622 25.8243 23.8824 25.6975 23.8162 25.6062L22.4374 23.7056C22.396 23.6485 22.331 23.6192 22.2657 23.6215ZM7.93917 23.9147C7.88721 23.9176 7.83625 23.9401 7.79851 23.982L7.13763 24.716C7.06216 24.7998 7.06885 24.9281 7.15268 25.0036C7.23649 25.079 7.36469 25.0723 7.44015 24.9884L8.10111 24.2545C8.17659 24.1707 8.16981 24.0424 8.08602 23.9669C8.04409 23.9292 7.99115 23.912 7.93917 23.9147ZM24.059 23.9157C24.0071 23.9128 23.9541 23.9302 23.9122 23.9679C23.8284 24.0433 23.8217 24.1716 23.8971 24.2554L24.5579 24.9895C24.6333 25.0734 24.7615 25.0801 24.8454 25.0046C24.9292 24.9292 24.9359 24.8009 24.8604 24.717L24.1997 23.983C24.1619 23.9411 24.111 23.9184 24.059 23.9157ZM11.6513 24.73C11.572 24.7281 11.496 24.7735 11.4615 24.8507L10.5048 26.9951C10.4589 27.0981 10.5048 27.218 10.6078 27.2639C10.7108 27.3099 10.8307 27.264 10.8767 27.161L11.8334 25.0166C11.8793 24.9136 11.8334 24.7937 11.7304 24.7477C11.7046 24.7362 11.6778 24.7305 11.6513 24.73ZM20.3352 24.7359C20.3088 24.7364 20.2819 24.7421 20.2561 24.7535C20.1531 24.7993 20.107 24.9192 20.1528 25.0222L21.1065 27.1679C21.1523 27.2709 21.2722 27.317 21.3753 27.2712C21.4783 27.2254 21.5244 27.1056 21.4786 27.0026L20.5249 24.8569C20.4906 24.7796 20.4145 24.7344 20.3352 24.7359ZM9.97021 25.393C9.90508 25.3973 9.84344 25.4334 9.8082 25.4945L9.31434 26.3499C9.25796 26.4475 9.29118 26.5715 9.38885 26.6279C9.48652 26.6843 9.61053 26.6511 9.66692 26.5534L10.1608 25.698C10.2172 25.6004 10.1839 25.4763 10.0863 25.42C10.0497 25.3988 10.0093 25.3903 9.97021 25.393ZM22.0292 25.393C21.9901 25.3901 21.9499 25.3988 21.9133 25.42C21.8156 25.4764 21.7824 25.6004 21.8388 25.698L22.3326 26.5534C22.389 26.6511 22.513 26.6843 22.6107 26.6279C22.7084 26.5716 22.7416 26.4475 22.6852 26.3499L22.1913 25.4945C22.1561 25.4334 22.0944 25.3975 22.0292 25.393ZM13.7811 25.4236C13.6863 25.4227 13.6013 25.4884 13.5808 25.585L13.0928 27.8819C13.0694 27.9922 13.1393 28.0999 13.2496 28.1233C13.36 28.1467 13.4676 28.0768 13.4911 27.9665L13.979 25.6696C14.0025 25.5592 13.9325 25.4516 13.8222 25.4281C13.8084 25.4252 13.7946 25.4236 13.7811 25.4236ZM18.2111 25.4251C18.1976 25.4252 18.1839 25.4265 18.1701 25.4295C18.0598 25.4528 17.9898 25.5604 18.0131 25.6707L18.4994 27.968C18.5228 28.0783 18.6304 28.1483 18.7408 28.125C18.8511 28.1016 18.9211 27.994 18.8978 27.8836L18.4114 25.5865C18.3909 25.49 18.306 25.4244 18.2111 25.4251ZM15.9997 25.6568C15.8869 25.6568 15.7961 25.7476 15.7961 25.8604V28.2085C15.7961 28.3213 15.8869 28.412 15.9997 28.412C16.1125 28.412 16.2033 28.3213 16.2033 28.2085V25.8604C16.2033 25.7476 16.1125 25.6568 15.9997 25.6568ZM12.2629 26.4155C12.1838 26.4223 12.1129 26.4751 12.0867 26.5556L11.7814 27.495C11.7466 27.6022 11.8048 27.7167 11.9121 27.7515C12.0193 27.7864 12.1338 27.728 12.1686 27.6208L12.4739 26.6815C12.5088 26.5742 12.4505 26.4598 12.3433 26.4249C12.3165 26.4162 12.2893 26.4133 12.2629 26.4155ZM19.735 26.416C19.7086 26.4136 19.6814 26.4165 19.6546 26.4254C19.5473 26.4602 19.489 26.5746 19.5238 26.6819L19.8291 27.6213C19.8639 27.7286 19.9783 27.7868 20.0856 27.7519C20.1929 27.7171 20.2512 27.6027 20.2163 27.4955L19.911 26.5561C19.8849 26.4756 19.814 26.4227 19.735 26.416ZM14.7219 26.9392C14.6275 26.9483 14.5497 27.0224 14.5394 27.1206L14.4362 28.1029C14.4244 28.2151 14.5052 28.3148 14.6173 28.3266C14.7295 28.3384 14.8293 28.2576 14.8411 28.1454L14.9444 27.1632C14.9562 27.051 14.8754 26.9512 14.7632 26.9394C14.7492 26.9379 14.7354 26.9379 14.7219 26.9392ZM17.2694 26.9402C17.2559 26.9387 17.242 26.9387 17.228 26.9404C17.1158 26.9521 17.0349 27.0518 17.0466 27.164L17.1493 28.1464C17.161 28.2586 17.2607 28.3394 17.3729 28.3277C17.485 28.3159 17.5659 28.2162 17.5542 28.104L17.4517 27.1217C17.4414 27.0235 17.3638 26.9494 17.2694 26.9402Z" fill="#F4F2F3"/>
<g opacity="0.409" filter="url(#filter1_f_14384_93197)">
<path d="M25.5414 7.03442L14.4037 13.5055L7.36163 24.5916L17.6636 16.9611L25.5414 7.03442Z" fill="black"/>
</g>
<path d="M17.5963 16.8487L14.4039 13.5055L25.7287 5.88733L17.5963 16.8487Z" fill="#FF5150"/>
<path d="M17.5963 16.849L14.4039 13.5057L6.27155 24.4671L17.5963 16.849Z" fill="#F1F1F1"/>
<path opacity="0.243" d="M6.27155 24.4669L17.5963 16.8487L25.7287 5.88733L6.27155 24.4669Z" fill="black"/>
</g>
<defs>
<filter id="filter0_f_14384_93197" x="0.261522" y="1.21904" width="31.48" height="30.3983" filterUnits="userSpaceOnUse" color-interpolation-filters="sRGB">
<feFlood flood-opacity="0" result="BackgroundImageFix"/>
<feBlend mode="normal" in="SourceGraphic" in2="BackgroundImageFix" result="shape"/>
<feGaussianBlur stdDeviation="0.572852" result="effect1_foregroundBlur_14384_93197"/>
</filter>
<filter id="filter1_f_14384_93197" x="7.03599" y="6.70878" width="18.831" height="18.2085" filterUnits="userSpaceOnUse" color-interpolation-filters="sRGB">
<feFlood flood-opacity="0" result="BackgroundImageFix"/>
<feBlend mode="normal" in="SourceGraphic" in2="BackgroundImageFix" result="shape"/>
<feGaussianBlur stdDeviation="0.16282" result="effect1_foregroundBlur_14384_93197"/>
</filter>
<linearGradient id="paint0_linear_14384_93197" x1="15.9999" y1="30.327" x2="15.9999" y2="0.0273864" gradientUnits="userSpaceOnUse">
<stop stop-color="#BDBDBD"/>
<stop offset="1" stop-color="white"/>
</linearGradient>
<radialGradient id="paint1_radial_14384_93197" cx="0" cy="0" r="1" gradientUnits="userSpaceOnUse" gradientTransform="translate(16.063 13.1412) scale(15.1498 15.1498)">
<stop stop-color="#06C2E7"/>
<stop offset="0.25" stop-color="#0DB8EC"/>
<stop offset="0.5" stop-color="#12AEF1"/>
<stop offset="0.75" stop-color="#1F86F9"/>
<stop offset="1" stop-color="#107DDD"/>
</radialGradient>
<clipPath id="clip0_14384_93197">
<rect width="32" height="32" fill="white"/>
</clipPath>
</defs>
</svg>
