<svg width="88" height="48" viewBox="0 0 88 48" fill="none" xmlns="http://www.w3.org/2000/svg">
<rect x="0.48" y="0.48" width="87.04" height="47.04" rx="7.2" fill="white"/>
<rect x="0.48" y="0.48" width="87.04" height="47.04" rx="7.2" stroke="#E4E4E7" stroke-width="0.96"/>
<g clip-path="url(#clip0_11435_56710)">
<path d="M76.913 20.4579V29.2593H73.7746V23.0853H70.7527V29.2593H67.6143V20.4573H76.913V20.4579Z" fill="#252525"/>
<path fill-rule="evenodd" clip-rule="evenodd" d="M61.1686 29.5739C63.9781 29.5739 66.0644 27.8489 66.0644 25.2338C66.0644 22.7027 64.5251 21.0593 61.9526 21.0593C60.7654 21.0593 59.7857 21.4778 59.0479 22.1999C59.224 20.7074 60.4844 19.6178 61.872 19.6178C62.1923 19.6178 64.6033 19.6127 64.6033 19.6127L65.9667 17C65.9667 17 62.9397 17.069 61.5326 17.069C58.3175 17.1251 56.1458 20.0516 56.1458 23.606C56.1458 27.7469 58.2639 29.5739 61.1686 29.5739ZM61.1857 23.3735C62.2288 23.3735 62.952 24.0599 62.952 25.2335C62.952 26.2898 62.3094 27.1601 61.1857 27.1625C60.1108 27.1625 59.3876 26.3561 59.3876 25.2515C59.3876 24.0776 60.1108 23.3735 61.1857 23.3735Z" fill="#252525"/>
<path d="M53.5914 26.3125C53.5914 26.3125 52.8502 26.7403 51.7432 26.8213C50.4706 26.8591 49.3367 26.0542 49.3367 24.6241C49.3367 23.2291 50.3373 22.4296 51.7112 22.4296C52.5536 22.4296 53.6681 23.0143 53.6681 23.0143C53.6681 23.0143 54.4835 21.5158 54.9059 20.7664C54.1324 20.1793 53.1021 19.8574 51.9038 19.8574C48.8795 19.8574 46.5371 21.832 46.5371 24.6064C46.5371 27.4162 48.7387 29.3449 51.9038 29.2867C52.7885 29.2537 54.009 28.9426 54.7528 28.4641L53.5914 26.3125Z" fill="#252525"/>
<path d="M14 13.8359L18.3535 21.6284V26.3816L14.0051 34.1588L14 13.8359Z" fill="#5B57A2"/>
<path d="M30.7157 18.7929L34.7951 16.2891L43.1438 16.2812L30.7157 23.9055V18.7929Z" fill="#D90751"/>
<path d="M30.6926 13.7901L30.7157 24.1071L26.352 21.4221V6L30.6926 13.7901Z" fill="#FAB718"/>
<path d="M43.1438 16.2813L34.7948 16.2891L30.6926 13.7901L26.352 6L43.1438 16.2813Z" fill="#ED6F26"/>
<path d="M30.7157 34.2022V29.1967L26.352 26.5627L26.3544 42.0001L30.7157 34.2022Z" fill="#63B22F"/>
<path d="M34.785 31.721L18.3532 21.6284L14 13.8359L43.1262 31.7108L34.785 31.721Z" fill="#1487C9"/>
<path d="M26.3547 42L30.7154 34.2021L34.7847 31.7211L43.1259 31.7109L26.3547 42Z" fill="#017F36"/>
<path d="M14.005 34.1589L26.3876 26.5629L22.2246 24.0051L18.3534 26.3817L14.005 34.1589Z" fill="#984995"/>
</g>
<defs>
<clipPath id="clip0_11435_56710">
<rect width="71.6" height="36" fill="white" transform="translate(9.59998 6)"/>
</clipPath>
</defs>
</svg>
