<svg width="32" height="32" viewBox="0 0 32 32" fill="none" xmlns="http://www.w3.org/2000/svg">
<g clip-path="url(#clip0_17627_12823)">
<rect width="32" height="32" rx="16" fill="#1D9BF0"/>
<g clip-path="url(#clip1_17627_12823)">
<path d="M23.8992 12.0227C23.9113 12.1929 23.9113 12.3631 23.9113 12.5349C23.9113 17.7686 19.8145 23.8047 12.3234 23.8047V23.8016C10.1105 23.8047 7.94356 23.1882 6.08066 22.0259C6.40243 22.0635 6.72582 22.0823 7.05001 22.0831C8.88388 22.0847 10.6653 21.4863 12.1081 20.3843C10.3653 20.3521 8.83711 19.247 8.30324 17.6337C8.91372 17.7482 9.54275 17.7247 10.1419 17.5655C8.24195 17.1921 6.87501 15.5686 6.87501 13.6831V13.6329C7.44114 13.9396 8.07501 14.1098 8.7234 14.1286C6.93388 12.9655 6.38227 10.6502 7.46292 8.83999C9.53066 11.3145 12.5815 12.8188 15.8565 12.978C15.5282 11.6023 15.9766 10.1608 17.0347 9.19372C18.675 7.69411 21.2549 7.77097 22.7968 9.36548C23.7089 9.19058 24.5831 8.86509 25.3831 8.40391C25.079 9.32077 24.4428 10.0996 23.5928 10.5945C24.4 10.502 25.1887 10.2918 25.9315 9.97097C25.3847 10.7678 24.696 11.462 23.8992 12.0227Z" fill="white"/>
</g>
</g>
<defs>
<clipPath id="clip0_17627_12823">
<rect width="32" height="32" fill="white"/>
</clipPath>
<clipPath id="clip1_17627_12823">
<rect width="20" height="16" fill="white" transform="translate(6 8)"/>
</clipPath>
</defs>
</svg>
