<svg width="70" height="48" viewBox="0 0 70 48" fill="none" xmlns="http://www.w3.org/2000/svg">
<rect x="0.48" y="0.48" width="69.04" height="47.04" rx="7.2" fill="white"/>
<rect x="0.48" y="0.48" width="69.04" height="47.04" rx="7.2" stroke="#E4E4E7" stroke-width="0.96"/>
<path fill-rule="evenodd" clip-rule="evenodd" d="M22.1453 31.0995H17.958L14.818 18.768C14.669 18.2007 14.3525 17.6992 13.887 17.4629C12.7254 16.8689 11.4453 16.3962 10.0488 16.1578V15.683H16.7943C17.7253 15.683 18.4235 16.3962 18.5399 17.2244L20.1691 26.1196L24.3544 15.683H28.4253L22.1453 31.0995ZM30.7527 31.0995H26.7981L30.0545 15.683H34.0091L30.7527 31.0995ZM39.1254 19.954C39.2418 19.1237 39.94 18.6489 40.7546 18.6489C42.0347 18.5297 43.4291 18.7681 44.5928 19.3601L45.291 16.0408C44.1273 15.566 42.8472 15.3276 41.6856 15.3276C37.8473 15.3276 35.0544 17.4631 35.0544 20.4267C35.0544 22.6814 37.0327 23.8652 38.4292 24.5784C39.94 25.2895 40.5218 25.7643 40.4055 26.4754C40.4055 27.5421 39.2418 28.0168 38.0801 28.0168C36.6836 28.0168 35.2872 27.6613 34.0091 27.0673L33.3109 30.3886C34.7074 30.9805 36.2181 31.2189 37.6146 31.2189C41.9183 31.3361 44.5928 29.2027 44.5928 26.0006C44.5928 21.9682 39.1254 21.7318 39.1254 19.954ZM58.4329 31.0995L55.2929 15.683H51.9201C51.2219 15.683 50.5237 16.1578 50.2909 16.8689L44.4764 31.0995H48.5474L49.36 28.8469H54.3619L54.8274 31.0995H58.4329ZM52.5019 19.8348L53.6636 25.645H50.4073L52.5019 19.8348Z" fill="#172B85"/>
</svg>
