<svg width="32" height="32" viewBox="0 0 32 32" fill="none" xmlns="http://www.w3.org/2000/svg">
<g clip-path="url(#clip0_14384_93194)">
<path d="M28.8876 23.8125C28.4584 24.0355 28.0159 24.2317 27.5626 24.4C26.127 24.9343 24.6068 25.2053 23.0751 25.2C17.1626 25.2 12.0126 21.1375 12.0126 15.9125C12.0202 15.2129 12.2142 14.5279 12.5745 13.9281C12.9348 13.3283 13.4485 12.8354 14.0626 12.5C8.71255 12.725 7.33755 18.3 7.33755 21.5625C7.33755 30.8125 15.8501 31.7375 17.6876 31.7375C18.6751 31.7375 20.1626 31.45 21.0626 31.1625L21.2251 31.1125C24.6693 29.9222 27.6055 27.5944 29.5501 24.5125C29.6066 24.4189 29.6308 24.3093 29.6191 24.2005C29.6074 24.0918 29.5603 23.9899 29.4851 23.9104C29.4099 23.831 29.3108 23.7784 29.2029 23.7607C29.0949 23.743 28.9842 23.7612 28.8876 23.8125Z" fill="url(#paint0_linear_14384_93194)"/>
<path opacity="0.35" d="M28.8876 23.8125C28.4584 24.0355 28.0159 24.2317 27.5626 24.4C26.127 24.9343 24.6068 25.2053 23.0751 25.2C17.1626 25.2 12.0126 21.1375 12.0126 15.9125C12.0202 15.2129 12.2142 14.5279 12.5745 13.9281C12.9348 13.3283 13.4485 12.8354 14.0626 12.5C8.71255 12.725 7.33755 18.3 7.33755 21.5625C7.33755 30.8125 15.8501 31.7375 17.6876 31.7375C18.6751 31.7375 20.1626 31.45 21.0626 31.1625L21.2251 31.1125C24.6693 29.9222 27.6055 27.5944 29.5501 24.5125C29.6066 24.4189 29.6308 24.3093 29.6191 24.2005C29.6074 24.0918 29.5603 23.9899 29.4851 23.9104C29.4099 23.831 29.3108 23.7784 29.2029 23.7607C29.0949 23.743 28.9842 23.7612 28.8876 23.8125Z" fill="url(#paint1_radial_14384_93194)"/>
<path d="M13.2125 30.1626C12.0999 29.4715 11.1354 28.5665 10.375 27.5001C9.50668 26.3116 8.90897 24.9474 8.62382 23.5034C8.33867 22.0593 8.373 20.5704 8.72438 19.141C9.07577 17.7117 9.7357 16.3765 10.6579 15.2293C11.58 14.0821 12.7421 13.1505 14.0625 12.5001C14.4625 12.3126 15.125 11.9876 16.0125 12.0001C16.637 12.0049 17.252 12.1541 17.8092 12.436C18.3665 12.7179 18.8511 13.1249 19.225 13.6251C19.728 14.3014 20.0036 15.1198 20.0125 15.9626C20.0125 15.9376 23.075 6.01257 10.0125 6.01257C4.525 6.01257 0.0125047 11.2126 0.0125047 15.7876C-0.00932218 18.2043 0.507352 20.5955 1.525 22.7876C3.1916 26.3364 6.10317 29.1497 9.70705 30.6936C13.3109 32.2374 17.3562 32.4043 21.075 31.1626C19.7721 31.5741 18.3955 31.6978 17.0401 31.5251C15.6848 31.3524 14.3831 30.8876 13.225 30.1626H13.2125Z" fill="url(#paint2_linear_14384_93194)"/>
<path opacity="0.41" d="M13.2125 30.1626C12.0999 29.4715 11.1354 28.5665 10.375 27.5001C9.50668 26.3116 8.90897 24.9474 8.62382 23.5034C8.33867 22.0593 8.373 20.5704 8.72438 19.141C9.07577 17.7117 9.7357 16.3765 10.6579 15.2293C11.58 14.0821 12.7421 13.1505 14.0625 12.5001C14.4625 12.3126 15.125 11.9876 16.0125 12.0001C16.637 12.0049 17.252 12.1541 17.8092 12.436C18.3665 12.7179 18.8511 13.1249 19.225 13.6251C19.728 14.3014 20.0036 15.1198 20.0125 15.9626C20.0125 15.9376 23.075 6.01257 10.0125 6.01257C4.525 6.01257 0.0125047 11.2126 0.0125047 15.7876C-0.00932218 18.2043 0.507352 20.5955 1.525 22.7876C3.1916 26.3364 6.10317 29.1497 9.70705 30.6936C13.3109 32.2374 17.3562 32.4043 21.075 31.1626C19.7721 31.5741 18.3955 31.6978 17.0401 31.5251C15.6848 31.3524 14.3831 30.8876 13.225 30.1626H13.2125Z" fill="url(#paint3_radial_14384_93194)"/>
<path d="M19.05 18.6C18.9375 18.725 18.625 18.9125 18.625 19.3C18.625 19.625 18.8375 19.95 19.225 20.2125C21.0125 21.4625 24.4 21.2875 24.4125 21.2875C25.7451 21.2866 27.053 20.9283 28.2 20.25C29.3548 19.5746 30.3129 18.609 30.9795 17.4492C31.646 16.2893 31.9978 14.9753 32 13.6375C32.0375 10.8375 31 8.975 30.5875 8.15C27.925 2.975 22.2125 7.83303e-08 16 7.83303e-08C11.7952 -0.000415696 7.7593 1.65437 4.7651 4.60646C1.77091 7.55856 0.0591295 11.5706 0 15.775C0.0625 11.2125 4.6 7.525 10 7.525C10.4375 7.525 12.9375 7.5625 15.25 8.775C16.8746 9.58232 18.22 10.858 19.1125 12.4375C19.875 13.7625 20.0125 15.45 20.0125 16.125C20.0125 16.8 19.675 17.7875 19.0375 18.6125L19.05 18.6Z" fill="url(#paint4_radial_14384_93194)"/>
<path d="M19.05 18.6C18.9375 18.725 18.625 18.9125 18.625 19.3C18.625 19.625 18.8375 19.95 19.225 20.2125C21.0125 21.4625 24.4 21.2875 24.4125 21.2875C25.7451 21.2866 27.053 20.9283 28.2 20.25C29.3548 19.5746 30.3129 18.609 30.9795 17.4492C31.646 16.2893 31.9978 14.9753 32 13.6375C32.0375 10.8375 31 8.975 30.5875 8.15C27.925 2.975 22.2125 7.83303e-08 16 7.83303e-08C11.7952 -0.000415696 7.7593 1.65437 4.7651 4.60646C1.77091 7.55856 0.0591295 11.5706 0 15.775C0.0625 11.2125 4.6 7.525 10 7.525C10.4375 7.525 12.9375 7.5625 15.25 8.775C16.8746 9.58232 18.22 10.858 19.1125 12.4375C19.875 13.7625 20.0125 15.45 20.0125 16.125C20.0125 16.8 19.675 17.7875 19.0375 18.6125L19.05 18.6Z" fill="url(#paint5_radial_14384_93194)"/>
</g>
<defs>
<linearGradient id="paint0_linear_14384_93194" x1="7.33755" y1="22.125" x2="29.6376" y2="22.125" gradientUnits="userSpaceOnUse">
<stop stop-color="#0C59A4"/>
<stop offset="1" stop-color="#114A8B"/>
</linearGradient>
<radialGradient id="paint1_radial_14384_93194" cx="0" cy="0" r="1" gradientUnits="userSpaceOnUse" gradientTransform="translate(19.6501 22.2931) scale(11.925 11.3287)">
<stop offset="0.7" stop-opacity="0"/>
<stop offset="0.9" stop-opacity="0.5"/>
<stop offset="1"/>
</radialGradient>
<linearGradient id="paint2_linear_14384_93194" x1="19.0875" y1="12.4501" x2="5.175" y2="27.6126" gradientUnits="userSpaceOnUse">
<stop stop-color="#1B9DE2"/>
<stop offset="0.2" stop-color="#1595DF"/>
<stop offset="0.7" stop-color="#0680D7"/>
<stop offset="1" stop-color="#0078D4"/>
</linearGradient>
<radialGradient id="paint3_radial_14384_93194" cx="0" cy="0" r="1" gradientTransform="matrix(2.685 -17.721 -14.32 -2.148 8.81938 24.8672)" gradientUnits="userSpaceOnUse">
<stop offset="0.8" stop-opacity="0"/>
<stop offset="0.9" stop-opacity="0.5"/>
<stop offset="1"/>
</radialGradient>
<radialGradient id="paint4_radial_14384_93194" cx="0" cy="0" r="1" gradientTransform="matrix(-1.012 25.3 53.889 2.024 3.23625 5.9145)" gradientUnits="userSpaceOnUse">
<stop stop-color="#35C1F1"/>
<stop offset="0.1" stop-color="#34C1ED"/>
<stop offset="0.2" stop-color="#2FC2DF"/>
<stop offset="0.3" stop-color="#2BC3D2"/>
<stop offset="0.7" stop-color="#36C752"/>
</radialGradient>
<radialGradient id="paint5_radial_14384_93194" cx="0" cy="0" r="1" gradientTransform="matrix(3.4055 11.676 9.48675 -2.79737 30.0075 9.6625)" gradientUnits="userSpaceOnUse">
<stop stop-color="#66EB6E"/>
<stop offset="1" stop-color="#66EB6E" stop-opacity="0"/>
</radialGradient>
<clipPath id="clip0_14384_93194">
<rect width="32" height="32" fill="white"/>
</clipPath>
</defs>
</svg>
