<svg width="32" height="32" viewBox="0 0 32 32" fill="none" xmlns="http://www.w3.org/2000/svg">
<path d="M29.9192 10.3971C29.2664 8.82685 27.9442 7.1316 26.906 6.59579C27.751 8.25235 28.24 9.9141 28.4269 11.1543C28.4269 11.1567 28.4279 11.1628 28.4299 11.1793C26.7314 6.94598 23.8515 5.23898 21.4998 1.52223C21.381 1.33429 21.262 1.14585 21.146 0.947228C21.0869 0.845789 21.0318 0.74213 20.9806 0.636478C20.8829 0.447844 20.8075 0.248454 20.756 0.0423531C20.7564 0.0325958 20.7531 0.0230566 20.7468 0.0156091C20.7405 0.00816167 20.7316 0.00334422 20.7219 0.00210308C20.7127 -0.000538266 20.7029 -0.000538266 20.6937 0.00210308C20.6916 0.00285308 20.6885 0.00529058 20.6862 0.00616558C20.6829 0.00747808 20.6787 0.0104781 20.6752 0.0124156C20.6769 0.0101656 20.6804 0.00510308 20.6815 0.00391558C16.9084 2.21367 15.6284 6.30148 15.5107 8.34667C14.004 8.45025 12.5635 9.00537 11.3769 9.93967C11.2526 9.83473 11.1227 9.73667 10.9878 9.64592C10.6454 8.44816 10.6309 7.18046 10.9457 5.97517C9.40267 6.67773 8.20254 7.78829 7.33004 8.76892H7.32311C6.72767 8.01473 6.76967 5.52685 6.80361 5.00742C6.79648 4.97523 6.35942 5.23429 6.30217 5.27335C5.77674 5.6484 5.28553 6.06921 4.83429 6.53085C4.32081 7.05158 3.85164 7.61422 3.43167 8.21292C3.43167 8.21367 3.43123 8.21454 3.43098 8.21529C3.43098 8.21448 3.43142 8.21367 3.43167 8.21292C2.46581 9.58163 1.78081 11.1282 1.41623 12.7632C1.40904 12.7958 1.40298 12.8295 1.39598 12.8624C1.36773 12.9946 1.26598 13.6561 1.24817 13.7999C1.24679 13.8109 1.24617 13.8215 1.24485 13.8326C1.11331 14.5165 1.03184 15.2091 1.0011 15.9049C1.0011 15.9305 0.999542 15.9559 0.999542 15.9816C0.999792 24.2762 7.72479 31 16.02 31C23.4491 31 29.6175 25.607 30.8252 18.5232C30.8506 18.3309 30.871 18.1377 30.8934 17.9437C31.192 15.3681 30.8603 12.6609 29.9192 10.3971ZM12.607 22.153C12.6773 22.1865 12.7433 22.2232 12.8154 22.2554C12.8184 22.2575 12.8225 22.2598 12.8256 22.2617C12.7522 22.2266 12.6793 22.1903 12.607 22.153ZM28.431 11.183L28.429 11.1684C28.4298 11.1737 28.4307 11.1793 28.4315 11.1846L28.431 11.183Z" fill="url(#paint0_linear_14384_93195)"/>
<path d="M29.9196 10.397C29.2667 8.82677 27.9446 7.13152 26.9063 6.5957C27.7513 8.25227 28.2404 9.91402 28.4272 11.1542C28.4272 11.1506 28.4279 11.1572 28.4295 11.1683C28.4302 11.1736 28.4312 11.1792 28.432 11.1845C29.8492 15.0264 29.0771 18.9331 27.9646 21.3205C26.2434 25.0142 22.0761 28.7998 15.5536 28.6152C8.50637 28.4156 2.298 23.1867 1.13906 16.3381C0.927875 15.2581 1.13906 14.7097 1.24531 13.8328C1.11587 14.5088 1.06656 14.7041 1.00156 15.9051C1.00156 15.9308 1 15.9561 1 15.9818C1.00012 24.2761 7.72512 31 16.0204 31C23.4494 31 29.6179 25.607 30.8255 18.5231C30.8509 18.3308 30.8713 18.1376 30.8937 17.9436C31.1923 15.368 30.8606 12.6608 29.9196 10.397Z" fill="url(#paint1_radial_14384_93195)"/>
<path d="M29.9196 10.397C29.2667 8.82677 27.9446 7.13152 26.9063 6.5957C27.7513 8.25227 28.2404 9.91402 28.4272 11.1542C28.4272 11.1506 28.4279 11.1572 28.4295 11.1683C28.4302 11.1736 28.4312 11.1792 28.432 11.1845C29.8492 15.0264 29.0771 18.9331 27.9646 21.3205C26.2434 25.0142 22.0761 28.7998 15.5536 28.6152C8.50637 28.4156 2.298 23.1867 1.13906 16.3381C0.927875 15.2581 1.13906 14.7097 1.24531 13.8328C1.11587 14.5088 1.06656 14.7041 1.00156 15.9051C1.00156 15.9308 1 15.9561 1 15.9818C1.00012 24.2761 7.72512 31 16.0204 31C23.4494 31 29.6179 25.607 30.8255 18.5231C30.8509 18.3308 30.8713 18.1376 30.8937 17.9436C31.1923 15.368 30.8606 12.6608 29.9196 10.397Z" fill="url(#paint2_radial_14384_93195)"/>
<path d="M22.6202 12.1627C22.653 12.1857 22.6827 12.2085 22.7135 12.2314C22.3366 11.5624 21.8672 10.9499 21.3192 10.4119C16.6501 5.74341 20.0949 0.289284 20.6758 0.0122842C20.6775 0.0100342 20.681 0.00497168 20.682 0.00378418C16.9089 2.21353 15.6289 6.30135 15.5113 8.34654C15.6863 8.33441 15.8608 8.31972 16.0389 8.31972C18.8546 8.31972 21.307 9.86785 22.6202 12.1627Z" fill="url(#paint3_radial_14384_93195)"/>
<path d="M16.0481 13.0945C16.0235 13.4681 14.7035 14.7565 14.2418 14.7565C9.97066 14.7565 9.27734 17.34 9.27734 17.34C9.46653 19.5156 10.9812 21.3071 12.8155 22.2551C12.8992 22.2984 12.9839 22.3375 13.0687 22.3761C13.214 22.4404 13.3611 22.5006 13.5098 22.5565C14.1388 22.7791 14.7976 22.9062 15.4643 22.9334C22.9505 23.2845 24.4009 13.9838 18.9983 11.2829C20.3819 11.0423 21.818 11.5987 22.62 12.1621C21.3068 9.86746 18.8544 8.31934 16.0388 8.31934C15.8607 8.31934 15.6862 8.33402 15.5112 8.34615C14.0044 8.44973 12.5639 9.00485 11.3773 9.93915C11.6063 10.1329 11.8648 10.3919 12.4094 10.9284C13.4283 11.9326 16.0425 12.9725 16.0481 13.0945Z" fill="url(#paint4_radial_14384_93195)"/>
<path d="M16.0481 13.0945C16.0235 13.4681 14.7035 14.7565 14.2418 14.7565C9.97066 14.7565 9.27734 17.34 9.27734 17.34C9.46653 19.5156 10.9812 21.3071 12.8155 22.2551C12.8992 22.2984 12.9839 22.3375 13.0687 22.3761C13.214 22.4404 13.3611 22.5006 13.5098 22.5565C14.1388 22.7791 14.7976 22.9062 15.4643 22.9334C22.9505 23.2845 24.4009 13.9838 18.9983 11.2829C20.3819 11.0423 21.818 11.5987 22.62 12.1621C21.3068 9.86746 18.8544 8.31934 16.0388 8.31934C15.8607 8.31934 15.6862 8.33402 15.5112 8.34615C14.0044 8.44973 12.5639 9.00485 11.3773 9.93915C11.6063 10.1329 11.8648 10.3919 12.4094 10.9284C13.4283 11.9326 16.0425 12.9725 16.0481 13.0945Z" fill="url(#paint5_radial_14384_93195)"/>
<path d="M10.677 9.43972C10.7816 9.5072 10.8854 9.57595 10.9883 9.64597C10.6459 8.44821 10.6314 7.18052 10.9462 5.97522C9.40316 6.67778 8.20304 7.78834 7.33054 8.76897C7.40272 8.76691 9.58141 8.72772 10.677 9.43972Z" fill="url(#paint6_radial_14384_93195)"/>
<path d="M1.13883 16.3382C2.29777 23.1868 8.50614 28.4157 15.5533 28.6153C22.0759 28.7999 26.2431 25.014 27.9643 21.3205C29.0768 18.933 29.849 15.0268 28.4318 11.1846L28.4313 11.183L28.4293 11.1684C28.4277 11.1573 28.4268 11.1507 28.427 11.1543C28.427 11.1567 28.428 11.1628 28.43 11.1793C28.9627 14.6581 27.1931 18.0283 24.4268 20.307L24.4185 20.3266C19.0281 24.7155 13.8701 22.9746 12.8257 22.262C12.7523 22.2267 12.6794 22.1903 12.607 22.153C9.46433 20.6512 8.16608 17.7882 8.44445 15.3328C5.79089 15.3328 4.88608 13.0947 4.88608 13.0947C4.88608 13.0947 7.26852 11.396 10.4085 12.8734C13.3166 14.2417 16.0477 13.0948 16.048 13.0947C16.0425 12.9727 13.4282 11.9328 12.4091 10.9287C11.8645 10.3922 11.606 10.1335 11.377 9.93947C11.2527 9.83453 11.1228 9.73647 10.9879 9.64572C10.8848 9.57588 10.7811 9.50712 10.6766 9.43947C9.58108 8.72747 7.40233 8.76666 7.33014 8.76853H7.3232C6.72777 8.01435 6.76977 5.52647 6.8037 5.00703C6.79658 4.97485 6.35952 5.23391 6.30227 5.27297C5.77684 5.64802 5.28563 6.06882 4.83439 6.53047C4.32089 7.05132 3.85172 7.61408 3.43177 8.21291C3.43177 8.21366 3.43133 8.21453 3.43108 8.21528C3.43108 8.21447 3.43152 8.21366 3.43177 8.21291C2.46591 9.58162 1.7809 11.1282 1.41633 12.7632C1.40914 12.7958 0.875703 15.1283 1.13883 16.3382Z" fill="url(#paint7_radial_14384_93195)"/>
<path d="M21.3189 10.4117C21.8669 10.9497 22.3363 11.5622 22.7132 12.2312C22.7959 12.2934 22.8732 12.3553 22.9387 12.4157C26.3439 15.5532 24.5597 19.9907 24.4267 20.307C27.193 18.0282 28.9626 14.658 28.4299 11.1792C26.7314 6.94598 23.8515 5.23898 21.4998 1.52223C21.381 1.33429 21.262 1.14585 21.146 0.947228C21.0869 0.845789 21.0317 0.74213 20.9806 0.636478C20.8829 0.447844 20.8075 0.248454 20.756 0.0423531C20.7564 0.0325958 20.7531 0.0230566 20.7468 0.0156091C20.7405 0.00816167 20.7316 0.00334422 20.7219 0.00210308C20.7127 -0.000538266 20.7029 -0.000538266 20.6937 0.00210308C20.6916 0.00285308 20.6885 0.00529058 20.6862 0.00616558C20.6829 0.00747808 20.6787 0.0104781 20.6752 0.0124156C20.0945 0.289166 16.6498 5.74329 21.3189 10.4117Z" fill="url(#paint8_radial_14384_93195)"/>
<path d="M22.9387 12.4156C22.8732 12.3551 22.7959 12.2932 22.7132 12.2311C22.6827 12.2081 22.6527 12.1852 22.6199 12.1623C21.8179 11.599 20.3818 11.0425 18.9982 11.2831C24.4008 13.984 22.9504 23.2848 15.4642 22.9336C14.7975 22.9064 14.1387 22.7794 13.5097 22.5567C13.361 22.5008 13.2139 22.4406 13.0686 22.3763C12.9838 22.3377 12.8991 22.2986 12.8154 22.2554C12.8184 22.2575 12.8226 22.2598 12.8256 22.2616C13.87 22.9741 19.0281 24.7152 24.4184 20.3263L24.4267 20.3067C24.5597 19.9908 26.3439 15.5531 22.9387 12.4156Z" fill="url(#paint9_radial_14384_93195)"/>
<path d="M9.27745 17.3401C9.27745 17.3401 9.97076 14.7567 14.2419 14.7567C14.7037 14.7567 16.0238 13.4682 16.0482 13.0946C16.0726 12.721 13.3169 14.2416 10.4086 12.8733C7.2687 11.3959 4.88626 13.0946 4.88626 13.0946C4.88626 13.0946 5.79107 15.3327 8.44464 15.3327C8.16632 17.788 9.46457 20.6514 12.6071 22.1529C12.6774 22.1865 12.7434 22.2232 12.8155 22.2554C10.9813 21.3073 9.46664 19.5157 9.27745 17.3401Z" fill="url(#paint10_radial_14384_93195)"/>
<path d="M29.9194 10.3971C29.2666 8.82685 27.9444 7.1316 26.9062 6.59579C27.7512 8.25235 28.2402 9.9141 28.4271 11.1543C28.4271 11.1567 28.4281 11.1628 28.4301 11.1793C26.7316 6.94598 23.8517 5.23898 21.5 1.52223C21.3812 1.33429 21.2622 1.14585 21.1462 0.947228C21.0871 0.845789 21.032 0.74213 20.9808 0.636478C20.8831 0.447844 20.8077 0.248454 20.7562 0.0423531C20.7566 0.0325958 20.7533 0.0230566 20.747 0.0156091C20.7407 0.00816167 20.7318 0.00334422 20.7221 0.00210308C20.7129 -0.000538266 20.7031 -0.000538266 20.6939 0.00210308C20.6918 0.00285308 20.6887 0.00529058 20.6864 0.00616558C20.6831 0.00747808 20.6789 0.0104781 20.6754 0.0124156C20.6771 0.0101656 20.6806 0.00510308 20.6817 0.00391558C16.9086 2.21367 15.6286 6.30148 15.5109 8.34667C15.6859 8.33454 15.8604 8.31985 16.0386 8.31985C18.8544 8.31985 21.3067 9.86798 22.6198 12.1626C21.8178 11.5992 20.3817 11.0428 18.9981 11.2834C24.4007 13.9843 22.9503 23.285 15.4641 22.9339C14.7974 22.9067 14.1386 22.7796 13.5096 22.557C13.3609 22.501 13.2138 22.4409 13.0684 22.3766C12.9837 22.338 12.899 22.2989 12.8153 22.2557C12.8183 22.2577 12.8224 22.26 12.8255 22.2619C12.7521 22.2266 12.6792 22.1903 12.6067 22.153C12.677 22.1865 12.743 22.2232 12.8151 22.2554C10.9808 21.3074 9.46612 19.5159 9.27694 17.3402C9.27694 17.3402 9.97025 14.7568 14.2414 14.7568C14.7032 14.7568 16.0232 13.4684 16.0477 13.0947C16.0421 12.9727 13.4279 11.9329 12.4087 10.9287C11.8642 10.3922 11.6056 10.1335 11.3766 9.93948C11.2524 9.83454 11.1225 9.73648 10.9876 9.64573C10.6452 8.44797 10.6307 7.18027 10.9454 5.97498C9.40244 6.67754 8.20231 7.7881 7.32981 8.76873H7.32287C6.72744 8.01454 6.76944 5.52667 6.80337 5.00723C6.79625 4.97504 6.35919 5.2341 6.30194 5.27317C5.77651 5.64821 5.2853 6.06902 4.83406 6.53067C4.32072 7.05147 3.8517 7.61417 3.43187 8.21292C3.43187 8.21367 3.43144 8.21454 3.43119 8.21529C3.43119 8.21448 3.43162 8.21367 3.43187 8.21292C2.46602 9.58163 1.78101 11.1282 1.41644 12.7632C1.40925 12.7958 1.40319 12.8295 1.39619 12.8624C1.36794 12.9946 1.24081 13.6657 1.22306 13.8096C1.22169 13.8207 1.22437 13.7986 1.22306 13.8096C1.10713 14.5031 1.03317 15.2029 1.00156 15.9052C1.00156 15.9309 1 15.9562 1 15.9819C1 24.2762 7.725 31 16.0202 31C23.4493 31 29.6177 25.607 30.8254 18.5232C30.8508 18.3309 30.8712 18.1377 30.8936 17.9437C31.1922 15.3681 30.8605 12.6609 29.9194 10.3971ZM28.4294 11.1684C28.4301 11.1737 28.4311 11.1793 28.4319 11.1846L28.4314 11.183L28.4294 11.1684Z" fill="url(#paint11_linear_14384_93195)"/>
<defs>
<linearGradient id="paint0_linear_14384_93195" x1="2618.52" y1="480.499" x2="206.726" y2="2807.02" gradientUnits="userSpaceOnUse">
<stop offset="0.05" stop-color="#FFF44F"/>
<stop offset="0.37" stop-color="#FF980E"/>
<stop offset="0.53" stop-color="#FF3647"/>
<stop offset="0.7" stop-color="#E31587"/>
</linearGradient>
<radialGradient id="paint1_radial_14384_93195" cx="0" cy="0" r="1" gradientUnits="userSpaceOnUse" gradientTransform="translate(2098.42 -308.211) scale(3072.01 3123.74)">
<stop offset="0.13" stop-color="#FFBD4F"/>
<stop offset="0.28" stop-color="#FF980E"/>
<stop offset="0.47" stop-color="#FF3750"/>
<stop offset="0.78" stop-color="#EB0878"/>
<stop offset="0.86" stop-color="#E50080"/>
</radialGradient>
<radialGradient id="paint2_radial_14384_93195" cx="0" cy="0" r="1" gradientUnits="userSpaceOnUse" gradientTransform="translate(1206.23 982.766) scale(3148.81 3123.74)">
<stop offset="0.3" stop-color="#960E18"/>
<stop offset="0.35" stop-color="#B11927" stop-opacity="0.74"/>
<stop offset="0.43" stop-color="#DB293D" stop-opacity="0.34"/>
<stop offset="0.5" stop-color="#F5334B" stop-opacity="0.09"/>
<stop offset="0.53" stop-color="#FF3750" stop-opacity="0"/>
</radialGradient>
<radialGradient id="paint3_radial_14384_93195" cx="0" cy="0" r="1" gradientUnits="userSpaceOnUse" gradientTransform="translate(361.219 -146.728) scale(1008.31 1711.87)">
<stop offset="0.13" stop-color="#FFF44F"/>
<stop offset="0.53" stop-color="#FF980E"/>
</radialGradient>
<radialGradient id="paint4_radial_14384_93195" cx="0" cy="0" r="1" gradientUnits="userSpaceOnUse" gradientTransform="translate(312.957 1618.54) scale(1334.27 1462.37)">
<stop offset="0.35" stop-color="#3A8EE6"/>
<stop offset="0.67" stop-color="#9059FF"/>
<stop offset="1" stop-color="#C139E6"/>
</radialGradient>
<radialGradient id="paint5_radial_14384_93195" cx="0" cy="0" r="1" gradientUnits="userSpaceOnUse" gradientTransform="translate(632.787 490.903) scale(708.497 862.801)">
<stop offset="0.21" stop-color="#9059FF" stop-opacity="0"/>
<stop offset="0.97" stop-color="#6E008B" stop-opacity="0.6"/>
</radialGradient>
<radialGradient id="paint6_radial_14384_93195" cx="0" cy="0" r="1" gradientUnits="userSpaceOnUse" gradientTransform="translate(775.458 -361.1) scale(1060.75 1064.52)">
<stop offset="0.1" stop-color="#FFE226"/>
<stop offset="0.79" stop-color="#FF7139"/>
</radialGradient>
<radialGradient id="paint7_radial_14384_93195" cx="0" cy="0" r="1" gradientUnits="userSpaceOnUse" gradientTransform="translate(2364.38 -963.313) scale(5064.24 4251.15)">
<stop offset="0.11" stop-color="#FFF44F"/>
<stop offset="0.46" stop-color="#FF980E"/>
<stop offset="0.72" stop-color="#FF3647"/>
<stop offset="0.9" stop-color="#E31587"/>
</radialGradient>
<radialGradient id="paint8_radial_14384_93195" cx="0" cy="0" r="1" gradientTransform="matrix(350.641 1567.98 -7044.23 347.978 393.796 62.641)" gradientUnits="userSpaceOnUse">
<stop stop-color="#FFF44F"/>
<stop offset="0.3" stop-color="#FF980E"/>
<stop offset="0.57" stop-color="#FF3647"/>
<stop offset="0.74" stop-color="#E31587"/>
</radialGradient>
<radialGradient id="paint9_radial_14384_93195" cx="0" cy="0" r="1" gradientUnits="userSpaceOnUse" gradientTransform="translate(243.327 -498.014) scale(2907.61 2856.54)">
<stop offset="0.14" stop-color="#FFF44F"/>
<stop offset="0.48" stop-color="#FF980E"/>
<stop offset="0.66" stop-color="#FF3647"/>
<stop offset="0.9" stop-color="#E31587"/>
</radialGradient>
<radialGradient id="paint10_radial_14384_93195" cx="0" cy="0" r="1" gradientUnits="userSpaceOnUse" gradientTransform="translate(1783.01 -434.297) scale(3494.85 3126.56)">
<stop offset="0.09" stop-color="#FFF44F"/>
<stop offset="0.63" stop-color="#FF980E"/>
</radialGradient>
<linearGradient id="paint11_linear_14384_93195" x1="2401" y1="433.999" x2="472.402" y2="2541.21" gradientUnits="userSpaceOnUse">
<stop offset="0.17" stop-color="#FFF44F" stop-opacity="0.8"/>
<stop offset="0.6" stop-color="#FFF44F" stop-opacity="0"/>
</linearGradient>
</defs>
</svg>
