<svg xmlns="http://www.w3.org/2000/svg" width="32" height="32" viewBox="0 0 32 32" fill="none">
  <circle cx="16" cy="16" r="16" fill="white"/>
  <path d="M31.939 17.407C31.9794 16.9434 32 16.4741 32 16C32 7.16344 24.8366 0 16 0C7.16344 0 0 7.16344 0 16C0 24.8366 7.16344 32 16 32C17.3758 32 18.7111 31.8263 19.985 31.4998C18.1368 31.0636 15.5676 30.4377 14.5059 30.0869C13.3475 29.704 11.5993 28.6535 10.6682 27.7006C10.489 27.5712 10.316 27.4369 10.1585 27.2927C9.67469 26.8464 8.25427 24.9572 9.49344 24.6258C9.68791 24.5744 9.88158 24.6423 10.0847 24.7135C10.2984 24.7883 10.5225 24.8669 10.769 24.8141C11.1762 24.727 11.5803 24.5183 11.9301 24.2906C12.6084 23.8492 13.151 23.2146 13.5755 22.5152C13.9488 21.9001 14.6426 20.7268 14.5945 19.9481C14.5945 19.9481 14.4768 18.0543 12.7618 16.2899C13.4734 16.255 16.2436 17.0753 17.0529 17.5558C17.4573 15.275 15.4778 12.3475 14.8422 11.6679C16.0135 11.707 19.4264 13.7129 20.9286 16.115C21.6769 15.1551 22.0138 11.0943 21.7026 9.0006C23.5794 10.286 24.35 13.2084 24.8702 15.7889C25.9103 15.3683 28.2865 12.675 28.4789 10.8877C29.807 12.9884 29.1878 15.4731 28.4362 17.1539C28.4767 17.1637 28.5237 17.1753 28.5764 17.1884C29.274 17.3612 30.9733 17.7821 31.9415 17.3226C31.9407 17.3507 31.9399 17.3789 31.939 17.407Z" fill="black"/>
  <path d="M14.3612 25.246C14.3696 25.2489 14.3787 25.252 14.3883 25.2553C14.5968 25.3274 15.0763 25.493 15.3604 25.5159C17.716 25.713 17.2015 23.6317 16.6596 22.9859C16.6472 22.9914 16.6301 22.9984 16.6088 23.0071C16.3052 23.1313 15.1417 23.6071 14.3322 25.236C14.3408 25.239 14.3505 25.2423 14.3612 25.246Z" fill="black"/>
</svg>