<svg width="32" height="32" viewBox="0 0 32 32" fill="none" xmlns="http://www.w3.org/2000/svg">
<path fill-rule="evenodd" clip-rule="evenodd" d="M3.07548 23.7744H2.20718V12.1714H3.07548V23.7744ZM2.62897 9.32708C2.2628 9.32708 1.95999 9.03662 1.95999 8.67045C1.95999 8.29347 2.26126 8.00146 2.62897 8.00146C3.00596 8.00146 3.30568 8.29193 3.30568 8.67045C3.30568 9.03662 3.00596 9.32708 2.62897 9.32708Z" fill="#18181B"/>
<path fill-rule="evenodd" clip-rule="evenodd" d="M11.5088 24C7.26311 24 4.58093 20.9083 4.58093 15.9938C4.58093 11.1038 7.27548 8 11.5088 8C15.7421 8 18.4352 11.104 18.4352 15.9938C18.4352 20.9085 15.753 24 11.5088 24ZM11.5088 8.7986C7.8132 8.7986 5.45393 11.5889 5.45393 15.9936C5.45393 20.4016 7.82405 23.2027 11.5088 23.2027C15.2044 23.2027 17.5637 20.4016 17.5637 15.9936C17.5637 11.5873 15.2044 8.7986 11.5088 8.7986Z" fill="#18181B"/>
<path fill-rule="evenodd" clip-rule="evenodd" d="M24.6187 24C21.4313 24 19.1462 22.2001 19.0165 19.6261H19.8678C19.9976 21.7367 21.9799 23.2136 24.6836 23.2136C27.3224 23.2136 29.1641 21.7149 29.1641 19.691C29.1641 18.0625 28.0656 17.1262 25.4591 16.4695L23.6175 16.0169C20.7422 15.283 19.4367 14.1196 19.4367 12.1713C19.4367 9.74715 21.7 8.00134 24.5337 8.00134C27.463 8.00134 29.6507 9.72558 29.7481 12.0092H28.8968C28.7778 10.1459 26.9578 8.78777 24.512 8.78777C22.1729 8.78777 20.3095 10.1891 20.3095 12.1496C20.3095 13.7024 21.4513 14.5955 23.9495 15.2196L25.6846 15.6614C28.6896 16.4046 30.0368 17.5587 30.0368 19.6259C30.0368 22.1998 27.8722 23.9999 24.6184 23.9999L24.6187 24Z" fill="#18181B"/>
</svg>
