<svg width="32" height="32" viewBox="0 0 32 32" fill="none" xmlns="http://www.w3.org/2000/svg">
<g clip-path="url(#clip0_14384_90110)">
<path d="M27.2 0H4.8C2.14903 0 0 2.14903 0 4.8V27.2C0 29.851 2.14903 32 4.8 32H27.2C29.851 32 32 29.851 32 27.2V4.8C32 2.14903 29.851 0 27.2 0Z" fill="url(#paint0_linear_14384_90110)"/>
<path d="M27.1999 0H17.1499C15.8249 3.075 13.4499 8.1 13.3499 17.7125C13.3482 17.7953 13.3632 17.8777 13.3939 17.9546C13.4247 18.0315 13.4705 18.1015 13.5288 18.1604C13.5871 18.2192 13.6566 18.2658 13.7333 18.2973C13.8099 18.3288 13.8921 18.3446 13.9749 18.3438H17.6437C17.7265 18.3437 17.8085 18.3603 17.8849 18.3926C17.9612 18.4248 18.0302 18.4721 18.0879 18.5316C18.1456 18.591 18.1908 18.6615 18.2208 18.7387C18.2508 18.816 18.2649 18.8984 18.2624 18.9813C18.1712 23.3519 18.5717 27.7189 19.4562 32H27.1999C28.4729 32 29.6938 31.4943 30.594 30.5941C31.4942 29.6939 31.9999 28.473 31.9999 27.2V4.8C31.9999 3.52696 31.4942 2.30606 30.594 1.40589C29.6938 0.505713 28.4729 0 27.1999 0Z" fill="url(#paint1_linear_14384_90110)"/>
<path d="M23.1873 9.31238V11.4374M8.87478 9.31238V11.4374M25.3373 20.6374C22.8303 23.0555 19.4829 24.4068 15.9998 24.4068C12.5166 24.4068 9.16927 23.0555 6.66228 20.6374" stroke="black" stroke-width="1.25" stroke-linecap="round"/>
</g>
<defs>
<linearGradient id="paint0_linear_14384_90110" x1="0" y1="32" x2="0" y2="0" gradientUnits="userSpaceOnUse">
<stop stop-color="#1E73F2"/>
<stop offset="1" stop-color="#19D3FD"/>
</linearGradient>
<linearGradient id="paint1_linear_14384_90110" x1="13.3498" y1="3200" x2="13.3498" y2="0" gradientUnits="userSpaceOnUse">
<stop stop-color="#DBE9F4"/>
<stop offset="1" stop-color="#F7F6F6"/>
</linearGradient>
<clipPath id="clip0_14384_90110">
<rect width="32" height="32" fill="white"/>
</clipPath>
</defs>
</svg>
