<svg width="70" height="48" viewBox="0 0 70 48" fill="none" xmlns="http://www.w3.org/2000/svg">
<rect x="0.48" y="0.48" width="69.04" height="47.04" rx="7.2" fill="white"/>
<rect x="0.48" y="0.48" width="69.04" height="47.04" rx="7.2" stroke="#E4E4E7" stroke-width="0.96"/>
<path d="M43.8655 10.1648C51.4785 10.1649 57.6497 16.2635 57.6497 23.7859C57.6495 31.3082 51.4784 37.4059 43.8655 37.406C40.4528 37.406 37.3304 36.1799 34.9231 34.1501C32.516 36.1794 29.3948 37.4059 25.9827 37.406C18.3697 37.406 12.1977 31.3082 12.1975 23.7859C12.1975 16.2634 18.3696 10.1648 25.9827 10.1648C29.3945 10.1649 32.5161 11.3907 34.9231 13.4197C37.3303 11.3903 40.4531 10.1648 43.8655 10.1648Z" fill="#ED0006"/>
<path d="M43.8654 10.1648C51.4784 10.1649 57.6496 16.2635 57.6496 23.7859C57.6494 31.3082 51.4783 37.4059 43.8654 37.406C40.453 37.406 37.3312 36.1796 34.924 34.1501C37.8871 31.6519 39.7667 27.9363 39.7668 23.7859C39.7668 19.635 37.8875 15.918 34.924 13.4197C37.3312 11.3905 40.4533 10.1648 43.8654 10.1648Z" fill="#F9A000"/>
<path d="M34.9236 13.4194C37.8873 15.9177 39.7673 19.6346 39.7673 23.7856C39.7672 27.9362 37.8868 31.6517 34.9236 34.1499C31.9605 31.6517 30.0809 27.9361 30.0808 23.7856C30.0808 19.6348 31.9601 15.9177 34.9236 13.4194Z" fill="#FF5E00"/>
</svg>
