<svg width="88" height="48" viewBox="0 0 88 48" fill="none" xmlns="http://www.w3.org/2000/svg">
<rect x="0.48" y="0.48" width="87.04" height="47.04" rx="7.2" fill="white"/>
<rect x="0.48" y="0.48" width="87.04" height="47.04" rx="7.2" stroke="#E4E4E7" stroke-width="0.96"/>
<path d="M16.1373 16.1667H21.6058C22.103 16.1667 23.5944 16 24.2573 18.3333C24.7544 19.8333 25.4173 22.1667 26.4116 25.6667H26.743C27.7373 22 28.5658 19.5 28.8973 18.3333C29.5601 16 31.2173 16.1667 31.8801 16.1667H37.0173V32.1667H31.7144V22.6667H31.383L28.5658 32.1667H24.5887L21.7716 22.6667H21.2744V32.1667H16.1373M39.1716 16.1667H44.4744V25.6667H44.9716L48.4516 17.8333C49.1144 16.3333 50.6058 16.1667 50.6058 16.1667H55.5773V32.1667H50.2744V22.6667H49.943L46.463 30.5C45.8001 32 44.143 32.1667 44.143 32.1667H39.1716M62.703 27.3333V32.1667H57.7316V23.8333H73.9716C73.3087 25.8333 70.9887 27.3333 68.3373 27.3333" fill="#0F754E"/>
<path d="M74.3029 22.8334C74.9658 19.8334 72.9772 16.1667 68.6687 16.1667H57.4001C57.7315 19.6667 60.7144 22.8334 63.8629 22.8334" fill="url(#paint0_linear_11435_56733)"/>
<defs>
<linearGradient id="paint0_linear_11435_56733" x1="72.3144" y1="14.0001" x2="59.0572" y2="14.0001" gradientUnits="userSpaceOnUse">
<stop stop-color="#1F5CD7"/>
<stop offset="1" stop-color="#02AEFF"/>
</linearGradient>
</defs>
</svg>
