<svg width="32" height="32" viewBox="0 0 32 32" fill="none" xmlns="http://www.w3.org/2000/svg">
<g clip-path="url(#clip0_14963_14791)">
<path d="M16 18.5023L10.1845 12.3093L10.9931 11.6927L13.1328 10.0629L16 18.5023Z" fill="#070096"/>
<path d="M13.1329 10.0629L10.9931 11.6927L10.9995 8.3114L13.1329 10.0629Z" fill="#1414DD"/>
<path d="M16 18.5023L10.3104 16.4372L10.1845 12.3092L16 18.5023Z" fill="black"/>
<path d="M15.9999 18.5023V23.9509L11.3194 18.257L10.3103 16.4373L15.9999 18.5023Z" fill="#070096"/>
<path d="M15.9999 23.9508V24.0148L11.1594 20.1706L11.3194 18.257L15.9999 23.9508Z" fill="#010166"/>
<path d="M10.9994 8.3114L9.76846 9.425L10.993 11.6927L10.9994 8.3114Z" fill="#010166"/>
<path d="M8.24755 8.10657L3.65875 8.3583L7.11261 9.6063L8.24755 8.10657Z" fill="#070096"/>
<path d="M10.9994 8.31137L7.11252 9.6063L8.24743 8.10657L10.9994 8.31137Z" fill="#1414DD"/>
<path d="M7.11261 9.60627L4.07475 9.89641L3.65875 8.35828L7.11261 9.60627Z" fill="#010166"/>
<path d="M3.65866 8.35837L0 7.83997L4.07466 9.8965L3.65866 8.35837Z" fill="#070096"/>
<path d="M7.11252 9.60634L9.76852 9.425L10.9994 8.3114L7.11252 9.60634Z" fill="#070096"/>
<path d="M16 10.0629V18.5023L13.1328 10.0629H16Z" fill="#1414DD"/>
<path d="M16 18.5023L21.8155 12.3093L21.0091 11.6927L18.8693 10.0629L16 18.5023Z" fill="#070096"/>
<path d="M18.8694 10.0629L21.0091 11.6927L21.0027 8.3114L18.8694 10.0629Z" fill="#1414DD"/>
<path d="M16 18.5023L21.6917 16.4372L21.8155 12.3092L16 18.5023Z" fill="black"/>
<path d="M16 18.5023V23.9509L20.6827 18.257L21.6917 16.4373L16 18.5023Z" fill="#070096"/>
<path d="M16 23.9508V24.0148L20.8427 20.1706L20.6827 18.257L16 23.9508Z" fill="#010166"/>
<path d="M21.0027 8.3114L22.2336 9.425L21.0091 11.6927L21.0027 8.3114Z" fill="#010166"/>
<path d="M23.7547 8.10657L28.3435 8.3583L24.8896 9.6063L23.7547 8.10657Z" fill="#070096"/>
<path d="M21.0027 8.31137L24.8896 9.6063L23.7547 8.10657L21.0027 8.31137Z" fill="#1414DD"/>
<path d="M24.8897 9.60627L27.9254 9.89641L28.3435 8.35828L24.8897 9.60627Z" fill="#010166"/>
<path d="M28.3435 8.35824L32 7.83984L27.9253 9.89638L28.3435 8.35824Z" fill="#070096"/>
<path d="M24.8896 9.60634L22.2336 9.425L21.0027 8.3114L24.8896 9.60634Z" fill="#070096"/>
<path d="M16 10.0629V18.5023L18.8693 10.0629H16Z" fill="#1414DD"/>
</g>
<defs>
<clipPath id="clip0_14963_14791">
<rect width="32" height="16.32" fill="white" transform="translate(0 7.83997)"/>
</clipPath>
</defs>
</svg>
