<svg width="32" height="32" viewBox="0 0 32 32" fill="none" xmlns="http://www.w3.org/2000/svg">
<g clip-path="url(#clip0_14939_35994)">
<path d="M16 31.9508C22.9965 31.9508 26.8842 31.9508 29.4316 29.4119C31.9719 26.873 31.9719 22.9908 31.9719 16C31.9719 9.00924 31.9719 5.12704 29.4316 2.58814C26.8842 0.0562744 22.9965 0.0562744 16 0.0562744C9.00352 0.0562744 5.1158 0.0562747 2.56843 2.59518C0.0280759 5.13408 0.0280762 9.01628 0.0280762 16.007C0.0280762 22.9978 0.0280759 26.88 2.56843 29.4189C5.1158 31.9508 9.00352 31.9508 16 31.9508Z" fill="#EF3939"/>
<path d="M26.386 10.1064C24.8561 7.42679 22.2947 5.338 19.0737 4.47295C12.6807 2.76394 6.11229 6.54767 4.40001 12.9266C3.53685 16.1336 4.07018 19.3899 5.62808 22.0483C5.64913 22.0835 5.67018 22.1257 5.69825 22.1609L11.3263 31.9015C12.2597 31.9296 13.2702 31.9367 14.3579 31.9367H15.9439C19.0526 31.9367 21.5509 31.9367 23.593 31.7116C26.1404 31.4303 27.9649 30.8044 29.3754 29.3978C31.4316 27.3442 31.8246 24.4044 31.9018 19.6431C28.6176 13.9604 26.393 10.1134 26.386 10.1064Z" fill="url(#paint0_linear_14939_35994)"/>
<path d="M24.407 7.56748C19.7403 2.89759 12.1684 2.89759 7.49474 7.56748C2.82807 12.2374 2.82807 19.8048 7.49474 24.4677C12.1614 29.1376 19.7333 29.1376 24.407 24.4677C29.0807 19.7978 29.0807 12.2303 24.407 7.56748ZM23.6912 13.0602C21.7193 16.4853 19.7474 19.9103 17.7754 23.3424C17.4105 23.9824 16.8772 24.3622 16.1474 24.4185C15.3333 24.4747 14.6877 24.1301 14.2737 23.4268C13.0246 21.2818 11.7895 19.1226 10.5544 16.9706C9.80351 15.6624 9.04561 14.3543 8.29474 13.0391C7.53684 11.7169 8.39298 10.1064 9.90877 10.029C10.7088 9.98682 11.3263 10.3596 11.7333 11.0558C12.2877 12.0053 12.8351 12.9688 13.3895 13.9253C13.7895 14.6145 14.1754 15.3108 14.5825 15.9859C15.1719 16.9776 16.0421 17.5332 17.2 17.6035C18.8351 17.702 20.3579 16.5134 20.5544 14.7763C20.5684 14.6497 20.5754 14.5161 20.5825 14.4528C20.5754 13.8901 20.4702 13.4119 20.2456 12.9688C19.6351 11.7451 20.2877 10.3736 21.614 10.0783C22.6947 9.83913 23.8175 10.6339 23.9579 11.731C24.0281 12.2022 23.9298 12.6453 23.6912 13.0602Z" fill="white"/>
</g>
<defs>
<linearGradient id="paint0_linear_14939_35994" x1="606.559" y1="163.196" x2="2125.43" y2="2807.16" gradientUnits="userSpaceOnUse">
<stop stop-opacity="0.2"/>
<stop offset="0.7908" stop-opacity="0.05"/>
</linearGradient>
<clipPath id="clip0_14939_35994">
<rect width="32" height="32" fill="white"/>
</clipPath>
</defs>
</svg>
