<svg width="32" height="32" viewBox="0 0 32 32" fill="none" xmlns="http://www.w3.org/2000/svg">
<path d="M16.6689 5.61738C16.6689 5.61738 16.6632 5.63156 16.6575 5.64006C16.6575 5.64573 16.6547 5.64856 16.652 5.65424C16.4563 6.1219 16.2579 6.62642 16.0595 7.17344C15.5097 8.93073 14.1803 10.0701 12.27 10.2487C14.872 10.0163 17.8282 11.4618 19.1518 8.37804C19.5118 7.53623 19.9341 6.59524 20.3621 5.71942C17.8906 4.529 16.8475 5.23475 16.666 5.61456L16.6689 5.61738Z" fill="url(#paint0_linear_14939_36033)"/>
<path d="M31.2611 10.8833C30.5157 9.95363 29.7334 9.06931 28.9143 8.23035C30.9522 11.0647 28.6705 12.9609 28.6705 12.9609L25.7115 15.4069C25.6407 15.4665 25.5641 15.5259 25.4819 15.5996C24.7336 16.3054 24.6997 17.2832 24.9009 18.1817C24.9264 18.2979 24.9661 18.4737 25.0454 18.7202C25.0539 18.7429 25.0596 18.7656 25.0681 18.7882C25.0681 18.7939 25.0738 18.7996 25.0738 18.8081C25.0936 18.8648 25.1135 18.9243 25.1362 18.981C25.2807 19.3722 25.5131 19.9022 25.8957 20.6136C25.5528 19.6244 26.0998 19.46 30.7793 15.6024C32.2021 14.4262 32.4147 12.326 31.2611 10.8861V10.8833Z" fill="url(#paint1_linear_14939_36033)"/>
<path d="M18.7692 23.193C18.4942 24.3437 17.9586 25.4208 17.1819 26.3561C15.5919 28.2721 13.3499 29.4512 10.8698 29.6808C10.0819 29.7545 9.29115 29.7261 8.52017 29.6014C6.6665 29.301 4.91205 28.411 3.48354 27.0676C3.32765 26.9201 3.17176 26.7671 3.02437 26.6083C3.01871 26.6027 3.01304 26.5942 3.00737 26.5885C3.00454 26.5857 2.99887 26.5801 2.99603 26.5772C2.97619 26.5574 2.95635 26.5347 2.93934 26.5148C-1.90738 21.1098 3.26813 12.1306 10.8018 10.481C9.40169 10.7956 7.95047 11.4191 6.58147 12.5274C4.31967 14.3583 3.16893 16.9575 3.41835 19.6558C3.5629 21.2288 4.20063 22.765 5.20965 23.9753C5.50159 24.3267 5.81904 24.6413 6.15916 24.922C6.15916 24.922 6.16483 24.9248 6.16767 24.9276C6.62966 25.3046 7.1285 25.6135 7.65286 25.8431C7.65286 25.8431 7.65569 25.8431 7.65853 25.8431C7.66136 25.8431 7.66136 25.8431 7.6642 25.8431C9.25427 26.6197 11.0513 26.9145 12.8283 26.6708C17.9868 25.9621 19.6591 21.7616 18.4574 18.5446C18.7153 19.2136 18.8826 19.9193 18.9506 20.6534C19.0299 21.5151 18.9676 22.371 18.772 23.1873L18.7692 23.193Z" fill="url(#paint2_linear_14939_36033)"/>
<path d="M12.8232 26.6762C11.046 26.9199 9.24908 26.6251 7.659 25.8486C8.1125 26.047 8.58299 26.1886 9.06484 26.2681C9.55235 26.3474 10.0569 26.3644 10.5614 26.3162C11.9332 26.1886 13.2682 25.5651 14.2205 24.6071C15.2239 23.5952 15.7085 22.3056 15.5838 20.9706C15.5498 20.5852 15.4591 20.2025 15.3259 19.8397C15.221 19.5592 15.0906 19.2898 14.9319 19.0348C14.9234 19.0178 14.9121 19.0036 14.9036 18.9866C12.6134 15.2651 6.50259 16.1635 6.09728 20.5086C5.9924 21.648 6.36088 22.7591 7.0893 23.6009C6.25883 22.7024 5.75999 21.5743 5.64378 20.3301C5.49357 18.7088 6.04059 17.1443 7.18567 15.9227C8.25705 14.7804 9.77911 14.0407 11.3606 13.8932C11.9219 13.8423 12.4831 13.8593 13.0329 13.95C14.178 14.137 15.2636 14.633 16.1649 15.3813C17.0463 16.1126 17.7408 17.011 18.2198 18.0145C18.2991 18.1788 18.3699 18.346 18.438 18.5161C18.438 18.5218 18.4437 18.5303 18.4465 18.5387C18.4465 18.5416 18.4465 18.5472 18.4494 18.5501C19.6511 21.7699 17.976 25.9704 12.8203 26.6762H12.8232Z" fill="url(#paint3_linear_14939_36033)"/>
<path d="M10.8931 20.3559C11.579 20.6393 11.5733 21.6399 10.8477 21.8893C8.89205 22.8076 7.18578 18.712 10.913 17.4308C12.0807 17.0284 13.4951 17.2268 14.5919 18.5589C14.5976 18.5646 14.6004 18.5703 14.6061 18.5759C14.7138 18.7063 14.8102 18.8453 14.9009 18.9869C12.6107 15.2654 6.49986 16.164 6.09455 20.509C5.98968 21.6483 6.35815 22.7595 7.08657 23.6013C7.08657 23.6013 7.08941 23.607 7.09224 23.607C7.09224 23.607 7.09224 23.6098 7.09507 23.6125C7.35017 23.8847 7.62793 24.1312 7.92554 24.341C8.54342 24.7803 9.24352 25.0722 9.96628 25.1885C12.1119 25.5371 14.2546 24.0746 14.5947 22.323C15.054 19.9762 12.3074 18.7885 10.8874 20.3531L10.8931 20.3559Z" fill="url(#paint4_linear_14939_36033)"/>
<path style="mix-blend-mode:multiply" d="M2.93729 26.5121C2.95714 26.5348 2.97414 26.5546 2.99398 26.5745C2.99682 26.5773 3.00248 26.583 3.00532 26.5858C3.01099 26.5915 3.01666 26.5971 3.02232 26.6056C3.17255 26.7644 3.3256 26.9174 3.48149 27.0648C3.57503 27.1527 3.66856 27.2377 3.76492 27.3227C2.71338 26.1408 2.95997 24.5026 3.36812 23.2157C3.65155 22.3201 3.70824 21.3621 3.52401 20.4381C3.47299 20.1774 3.4333 19.9166 3.41063 19.653C3.16121 16.9547 4.31479 14.3556 6.57376 12.5246C7.65647 11.646 8.79305 11.0734 9.91263 10.7163L9.92114 10.7021C2.86927 12.8194 -1.7252 21.3168 2.92879 26.5092L2.93729 26.5121Z" fill="url(#paint5_radial_14939_36033)"/>
<path d="M16.0598 7.17621C15.5099 8.93351 14.1806 10.0729 12.2702 10.2515C12.259 10.2515 12.2448 10.2515 12.2334 10.2543C11.8111 10.294 11.3803 10.3535 10.9438 10.447C10.9409 10.447 10.9381 10.447 10.9353 10.447C10.9212 10.447 10.9098 10.4527 10.8956 10.4555C10.8956 10.4555 10.89 10.4555 10.8871 10.4555C10.8815 10.4555 10.8786 10.4555 10.8729 10.4555C10.8729 10.4555 10.8729 10.4555 10.8701 10.4555C10.8474 10.4612 10.8219 10.4669 10.7993 10.4726C3.26557 12.1193 -1.90994 21.1014 2.93678 26.5064C2.86309 26.4271 2.79223 26.3477 2.72137 26.2656C1.95326 25.3755 1.33254 24.358 0.876216 23.2697C0.436892 22.2181 0.156293 21.0985 0.0485879 19.962C-0.305705 16.1384 1.29003 12.4793 4.42764 9.91986C5.87316 8.74078 7.60495 7.84795 9.4331 7.3406C11.3576 6.80775 13.3218 6.70004 15.269 7.0175C15.5326 7.06 15.7962 7.11102 16.057 7.17055L16.0598 7.17621Z" fill="url(#paint6_linear_14939_36033)"/>
<path d="M28.6671 12.961C26.9438 10.702 24.8634 8.69531 22.5421 7.04006C18.4096 4.10368 16.845 5.17506 16.658 5.63989C17.307 4.09234 17.9136 2.55046 19.9543 2.29537C20.6941 2.20467 21.4707 2.35489 22.1594 2.78571C24.5856 4.30492 26.8587 6.12456 28.9108 8.22765C30.9488 11.062 28.6671 12.9582 28.6671 12.9582V12.961Z" fill="url(#paint7_linear_14939_36033)"/>
<path d="M29.7583 26.7613C24.2937 27.7307 20.1584 19.9986 23.3442 17.3627L25.4926 15.5856C24.7273 16.2913 24.6934 17.2776 24.8946 18.1847C24.9768 18.5531 25.1865 19.4714 26.4081 21.5235C27.213 22.8755 28.959 25.4831 29.7555 26.7642L29.7583 26.7613Z" fill="url(#paint8_linear_14939_36033)"/>
<path d="M24.9661 12.4451C24.9661 14.0579 23.6594 15.3645 22.0438 15.3645C20.4283 15.3645 19.1245 14.0579 19.1245 12.4451C19.1245 10.8324 20.4311 9.52295 22.0438 9.52295C22.6108 9.52295 23.1407 9.68451 23.5886 9.96511C23.3278 9.83189 23.0302 9.75537 22.7156 9.75537C21.6527 9.75537 20.7911 10.617 20.7911 11.6827C20.7911 12.7484 21.6527 13.6101 22.7156 13.6101C23.7785 13.6101 24.643 12.7484 24.643 11.6827C24.643 11.2831 24.5211 10.9146 24.3142 10.6057C24.7195 11.1074 24.9633 11.7451 24.9633 12.4423L24.9661 12.4451Z" fill="url(#paint9_linear_14939_36033)"/>
<path d="M23.2023 13.5477C24.0299 13.3323 24.6421 12.5783 24.6421 11.6827C24.6421 11.2831 24.5202 10.9146 24.3133 10.6057C24.1093 10.3534 23.8656 10.1352 23.5877 9.96511C23.327 9.8319 23.0294 9.75537 22.7148 9.75537C21.6519 9.75537 20.7902 10.617 20.7902 11.6827C20.7902 12.7485 21.6519 13.61 22.7148 13.61C22.7714 13.61 22.8253 13.6072 22.8792 13.6016C22.3294 13.6016 21.8815 13.1538 21.8815 12.6039C21.8815 12.0541 22.3294 11.6062 22.8792 11.6062C23.429 11.6062 23.8769 12.0541 23.8769 12.6039C23.8769 13.0404 23.5962 13.4116 23.2023 13.5449V13.5477Z" fill="url(#paint10_linear_14939_36033)"/>
<path style="mix-blend-mode:multiply" d="M28.2786 12.4624C28.409 12.6267 28.5394 12.7912 28.6669 12.9584C28.6669 12.9584 30.9514 11.0622 28.9106 8.22785C28.7378 8.04929 28.5621 7.87639 28.3863 7.70349C29.9934 10.878 27.0117 10.8865 28.2786 12.4624Z" fill="url(#paint11_radial_14939_36033)"/>
<path style="mix-blend-mode:multiply" d="M24.6431 11.6855C24.6431 11.2858 24.5212 10.9174 24.3143 10.6084C24.1102 10.3562 23.8664 10.1379 23.5887 9.96787C23.5235 9.93386 23.4555 9.90552 23.3875 9.88C23.7049 10.2343 23.4725 10.6396 23.3619 11.0449C23.2769 11.3539 23.3619 11.6827 23.5887 11.9094C23.7672 12.0908 23.8778 12.3374 23.8778 12.6095C23.8778 13.0459 23.5972 13.4173 23.2032 13.5505C24.0309 13.3351 24.6431 12.5811 24.6431 11.6855Z" fill="url(#paint12_radial_14939_36033)"/>
<path style="mix-blend-mode:multiply" d="M16.0596 7.17601C15.7988 7.11649 15.5352 7.06547 15.2716 7.02296C15.1441 7.00312 15.0137 6.98328 14.8861 6.96627C13.3641 6.76786 13.5625 9.74392 11.8251 10.2995C11.9611 10.2825 12.0971 10.2683 12.2332 10.2541C12.2446 10.2541 12.2559 10.2541 12.27 10.2513C14.1804 10.0727 15.5097 8.93331 16.0596 7.17601Z" fill="url(#paint13_radial_14939_36033)"/>
<path style="mix-blend-mode:multiply" d="M18.4491 18.5388C18.4491 18.5388 18.4434 18.5247 18.4406 18.5162C18.4236 18.4765 18.4066 18.4368 18.3924 18.3971C19.4269 21.2796 16.0626 21.4611 15.2747 23.0341C15.0422 23.6038 14.6879 24.1367 14.2203 24.6072C13.2679 25.568 11.9358 26.1916 10.5611 26.3163C10.0566 26.3645 9.5521 26.3474 9.06459 26.2681C8.58559 26.1887 8.11225 26.0498 7.65875 25.8486C9.24883 26.6253 11.0458 26.92 12.8229 26.6762C17.9814 25.9677 19.6537 21.7672 18.452 18.5502C18.452 18.5474 18.452 18.5417 18.4491 18.5388Z" fill="url(#paint14_radial_14939_36033)"/>
<path style="mix-blend-mode:multiply" d="M6.09632 20.509C5.99145 21.6483 6.35991 22.7595 7.08834 23.6013C7.08834 23.6013 7.09117 23.607 7.09401 23.607C7.09401 23.607 7.09401 23.6097 7.09684 23.6125C7.35193 23.8847 7.62969 24.1312 7.9273 24.341C8.17389 24.5139 8.43181 24.6641 8.69825 24.7917C6.07364 22.8926 8.62455 21.6767 8.78044 19.4404C8.98734 18.6497 9.6251 17.873 10.909 17.4308C12.0768 17.0284 13.4911 17.2268 14.588 18.5589C14.5937 18.5646 14.5965 18.5703 14.6021 18.5759C14.7098 18.7063 14.8062 18.8453 14.897 18.9869C12.6068 15.2654 6.49596 16.164 6.09065 20.509H6.09632Z" fill="url(#paint15_radial_14939_36033)"/>
<path style="mix-blend-mode:multiply" d="M25.7087 15.407C25.7087 15.407 25.7087 15.407 25.7058 15.4098C25.6407 15.4637 25.5585 15.5289 25.4819 15.5969C24.7336 16.3027 24.6997 17.2805 24.9009 18.179C24.9575 18.437 25.0228 18.6666 25.1362 18.9755C25.2807 19.3666 25.5131 19.8967 25.8957 20.6081C25.788 20.2991 25.7681 20.0724 25.9326 19.7861C26.0545 19.5735 26.2699 19.3553 26.4456 19.1852C26.2953 17.255 24.779 17.4959 25.7087 15.4042V15.407Z" fill="url(#paint16_radial_14939_36033)"/>
<path style="mix-blend-mode:multiply" d="M19.0212 6.5469C19.4605 6.7368 19.9707 6.5469 20.1747 6.11325C20.1804 6.09908 20.1861 6.08774 20.1946 6.07356C20.2513 5.95453 20.308 5.83831 20.3647 5.7221C17.8931 4.53169 16.8501 5.23743 16.6687 5.61724C16.6687 5.62291 16.663 5.62574 16.663 5.63141C16.663 5.63141 16.663 5.63708 16.6602 5.63991C16.6602 5.63991 16.6602 5.64275 16.6602 5.64558C16.6602 5.64558 16.6602 5.65125 16.6573 5.65125C16.6573 5.65125 16.6573 5.65125 16.6573 5.65408C16.6234 5.73628 16.5865 5.82131 16.5524 5.90634C16.5469 5.92335 16.5384 5.93752 16.5327 5.95453C16.4958 6.04239 16.4618 6.13309 16.425 6.22379C16.425 6.22662 16.425 6.22945 16.4221 6.23229C16.3455 6.42786 16.2662 6.63193 16.1897 6.83884C16.8784 5.18641 18.0916 6.13592 19.0297 6.54123L19.0212 6.5469Z" fill="url(#paint17_radial_14939_36033)"/>
<defs>
<linearGradient id="paint0_linear_14939_36033" x1="15.8683" y1="10.817" x2="16.8575" y2="4.7437" gradientUnits="userSpaceOnUse">
<stop stop-color="#3AE774"/>
<stop offset="0.38" stop-color="#37E473"/>
<stop offset="0.6" stop-color="#2FDC73"/>
<stop offset="0.77" stop-color="#21CF71"/>
<stop offset="0.92" stop-color="#0EBC70"/>
<stop offset="1" stop-color="#00AF6F"/>
</linearGradient>
<linearGradient id="paint1_linear_14939_36033" x1="24.7733" y1="14.4206" x2="32.0037" y2="14.4206" gradientUnits="userSpaceOnUse">
<stop stop-color="#00AF6F"/>
<stop offset="0.08" stop-color="#0EBC70"/>
<stop offset="0.23" stop-color="#21CF71"/>
<stop offset="0.4" stop-color="#2FDC73"/>
<stop offset="0.62" stop-color="#37E473"/>
<stop offset="1" stop-color="#3AE774"/>
</linearGradient>
<linearGradient id="paint2_linear_14939_36033" x1="1.4297" y1="18.68" x2="19.0735" y2="21.5534" gradientUnits="userSpaceOnUse">
<stop stop-color="#00AF6F"/>
<stop offset="0.08" stop-color="#0EBC70"/>
<stop offset="0.23" stop-color="#21CF71"/>
<stop offset="0.4" stop-color="#2FDC73"/>
<stop offset="0.62" stop-color="#37E473"/>
<stop offset="1" stop-color="#3AE774"/>
</linearGradient>
<linearGradient id="paint3_linear_14939_36033" x1="9.84647" y1="14.4162" x2="14.958" y2="26.7067" gradientUnits="userSpaceOnUse">
<stop stop-color="#3AE774"/>
<stop offset="0.38" stop-color="#37E473"/>
<stop offset="0.6" stop-color="#2FDC73"/>
<stop offset="0.77" stop-color="#21CF71"/>
<stop offset="0.92" stop-color="#0EBC70"/>
<stop offset="1" stop-color="#00AF6F"/>
</linearGradient>
<linearGradient id="paint4_linear_14939_36033" x1="8.43571" y1="17.7795" x2="13.5971" y2="24.8653" gradientUnits="userSpaceOnUse">
<stop stop-color="#00AF6F"/>
<stop offset="0.08" stop-color="#0EBC70"/>
<stop offset="0.23" stop-color="#21CF71"/>
<stop offset="0.4" stop-color="#2FDC73"/>
<stop offset="0.62" stop-color="#37E473"/>
<stop offset="1" stop-color="#3AE774"/>
</linearGradient>
<radialGradient id="paint5_radial_14939_36033" cx="0" cy="0" r="1" gradientUnits="userSpaceOnUse" gradientTransform="translate(4.1159 24.4571) rotate(21.55) scale(12.0913 19.467)">
<stop offset="0.57" stop-color="#3BC963" stop-opacity="0.26"/>
<stop offset="0.69" stop-color="#3CA04C" stop-opacity="0.52"/>
<stop offset="0.94" stop-color="#3F5925"/>
</radialGradient>
<linearGradient id="paint6_linear_14939_36033" x1="0.4549" y1="15.3395" x2="14.3752" y2="17.6066" gradientUnits="userSpaceOnUse">
<stop stop-color="#3AE774"/>
<stop offset="0.38" stop-color="#37E473"/>
<stop offset="0.6" stop-color="#2FDC73"/>
<stop offset="0.77" stop-color="#21CF71"/>
<stop offset="0.92" stop-color="#0EBC70"/>
<stop offset="1" stop-color="#00AF6F"/>
</linearGradient>
<linearGradient id="paint7_linear_14939_36033" x1="16.5681" y1="6.27577" x2="30.1499" y2="8.4877" gradientUnits="userSpaceOnUse">
<stop stop-color="#3AE774"/>
<stop offset="0.38" stop-color="#37E473"/>
<stop offset="0.6" stop-color="#2FDC73"/>
<stop offset="0.77" stop-color="#21CF71"/>
<stop offset="0.92" stop-color="#0EBC70"/>
<stop offset="1" stop-color="#00AF6F"/>
</linearGradient>
<linearGradient id="paint8_linear_14939_36033" x1="25.4978" y1="26.35" x2="27.2094" y2="15.8399" gradientUnits="userSpaceOnUse">
<stop stop-color="#00AF6F"/>
<stop offset="0.08" stop-color="#0EBC70"/>
<stop offset="0.23" stop-color="#21CF71"/>
<stop offset="0.4" stop-color="#2FDC73"/>
<stop offset="0.62" stop-color="#37E473"/>
<stop offset="1" stop-color="#3AE774"/>
</linearGradient>
<linearGradient id="paint9_linear_14939_36033" x1="19.1245" y1="12.4451" x2="24.9661" y2="12.4451" gradientUnits="userSpaceOnUse">
<stop stop-color="#00AF6F"/>
<stop offset="0.08" stop-color="#0EBC70"/>
<stop offset="0.23" stop-color="#21CF71"/>
<stop offset="0.4" stop-color="#2FDC73"/>
<stop offset="0.62" stop-color="#37E473"/>
<stop offset="1" stop-color="#3AE774"/>
</linearGradient>
<linearGradient id="paint10_linear_14939_36033" x1="21.0595" y1="10.1635" x2="23.8853" y2="12.7824" gradientUnits="userSpaceOnUse">
<stop stop-color="#3AE774"/>
<stop offset="0.38" stop-color="#37E473"/>
<stop offset="0.6" stop-color="#2FDC73"/>
<stop offset="0.77" stop-color="#21CF71"/>
<stop offset="0.92" stop-color="#0EBC70"/>
<stop offset="1" stop-color="#00AF6F"/>
</linearGradient>
<radialGradient id="paint11_radial_14939_36033" cx="0" cy="0" r="1" gradientUnits="userSpaceOnUse" gradientTransform="translate(26.9828 10.7707) rotate(-42.89) scale(4.77303 3.91388)">
<stop offset="0.57" stop-color="#3BC963" stop-opacity="0.26"/>
<stop offset="0.69" stop-color="#3CA04C" stop-opacity="0.52"/>
<stop offset="0.94" stop-color="#3F5925"/>
</radialGradient>
<radialGradient id="paint12_radial_14939_36033" cx="0" cy="0" r="1" gradientUnits="userSpaceOnUse" gradientTransform="translate(23.3154 11.8442) rotate(21.55) scale(1.81965 4.40355)">
<stop offset="0.45" stop-color="#3BC963" stop-opacity="0.26"/>
<stop offset="0.58" stop-color="#3BB759" stop-opacity="0.37"/>
<stop offset="0.78" stop-color="#3D883F" stop-opacity="0.69"/>
<stop offset="0.94" stop-color="#3F5925"/>
</radialGradient>
<radialGradient id="paint13_radial_14939_36033" cx="0" cy="0" r="1" gradientUnits="userSpaceOnUse" gradientTransform="translate(13.3006 8.2416) rotate(21.55) scale(3.5486 4.89706)">
<stop offset="0.57" stop-color="#3BC963" stop-opacity="0.26"/>
<stop offset="0.69" stop-color="#3CA04C" stop-opacity="0.52"/>
<stop offset="0.94" stop-color="#3F5925"/>
</radialGradient>
<radialGradient id="paint14_radial_14939_36033" cx="0" cy="0" r="1" gradientUnits="userSpaceOnUse" gradientTransform="translate(9.53672 25.363) rotate(21.55) scale(13.9903 11.3321)">
<stop stop-color="#3F5925"/>
<stop offset="0.14" stop-color="#3E7031" stop-opacity="0.81"/>
<stop offset="0.49" stop-color="#3CA04C" stop-opacity="0.42"/>
<stop offset="0.79" stop-color="#3BBE5D" stop-opacity="0.19"/>
<stop offset="1" stop-color="#3BC963" stop-opacity="0.1"/>
</radialGradient>
<radialGradient id="paint15_radial_14939_36033" cx="0" cy="0" r="1" gradientUnits="userSpaceOnUse" gradientTransform="translate(7.55876 23.4317) rotate(21.55) scale(11.1191 9.0065)">
<stop stop-color="#3F5925"/>
<stop offset="0.07" stop-color="#3E6F31" stop-opacity="0.82"/>
<stop offset="0.22" stop-color="#3C9747" stop-opacity="0.5"/>
<stop offset="0.38" stop-color="#3BB356" stop-opacity="0.28"/>
<stop offset="0.55" stop-color="#3BC360" stop-opacity="0.14"/>
<stop offset="0.76" stop-color="#3BC963" stop-opacity="0.1"/>
</radialGradient>
<radialGradient id="paint16_radial_14939_36033" cx="0" cy="0" r="1" gradientUnits="userSpaceOnUse" gradientTransform="translate(27.2239 18.0851) rotate(71.29) scale(4.57179 3.2917)">
<stop offset="0.57" stop-color="#3BC963" stop-opacity="0.26"/>
<stop offset="0.69" stop-color="#3CA04C" stop-opacity="0.52"/>
<stop offset="0.94" stop-color="#3F5925"/>
</radialGradient>
<radialGradient id="paint17_radial_14939_36033" cx="0" cy="0" r="1" gradientUnits="userSpaceOnUse" gradientTransform="translate(18.3435 6.49213) rotate(-0.21) scale(3.08943 2.22439)">
<stop offset="0.57" stop-color="#3BC963" stop-opacity="0.26"/>
<stop offset="0.69" stop-color="#3CA04C" stop-opacity="0.52"/>
<stop offset="0.94" stop-color="#3F5925"/>
</radialGradient>
</defs>
</svg>
