<svg width="32" height="32" viewBox="0 0 32 32" fill="none" xmlns="http://www.w3.org/2000/svg">
<path d="M27.7722 3.12954C26.9744 2.41572 23.7832 0.0643222 16.6031 0.0223329C16.6031 0.0223329 8.16323 -0.481544 4.04827 3.29749C1.73886 5.60691 0.941062 8.92407 0.857083 13.081C0.773105 17.238 0.647147 25.006 8.16323 27.1474V30.3806C8.16323 30.3806 8.12124 31.6823 8.96103 31.9342C10.0108 32.2701 10.5986 31.2624 11.6063 30.2126C12.1522 29.6248 12.908 28.785 13.4539 28.1132C18.5766 28.5331 22.5236 27.5673 22.9855 27.3994C24.0352 27.0634 29.8717 26.3076 30.8375 18.5396C31.8452 10.4777 30.4176 5.39696 27.7722 3.12954ZM28.654 17.9098C27.8562 24.4181 23.1114 24.838 22.2297 25.0899C21.8517 25.2159 18.4086 26.0557 14.0417 25.8038C14.0417 25.8038 10.8086 29.7088 9.75882 30.7585C9.59087 30.9265 9.42291 30.9684 9.29694 30.9684C9.12898 30.9265 9.08699 30.7165 9.08699 30.4226C9.08699 30.0027 9.12898 25.048 9.12898 25.048C2.7886 23.2844 3.1665 16.6501 3.20849 13.165C3.29247 9.67987 3.92231 6.86658 5.85382 4.93507C9.33893 1.78588 16.5191 2.24776 16.5191 2.24776C22.5656 2.28975 25.4628 4.09529 26.1347 4.72513C28.3181 6.65664 29.4518 11.2335 28.654 17.9098Z" fill="#665CA7"/>
<path d="M19.5424 12.9131C19.4584 11.3175 18.6606 10.4777 17.1069 10.3937" stroke="#665CA7" stroke-width="0.809134" stroke-linecap="round" stroke-linejoin="round"/>
<path d="M21.642 13.5852C21.684 12.1155 21.2221 10.8558 20.3403 9.88996C19.4165 8.88218 18.1568 8.3363 16.5611 8.21033" stroke="#665CA7" stroke-width="0.809134" stroke-linecap="round" stroke-linejoin="round"/>
<path d="M23.7415 14.4249C23.7415 11.8635 22.9437 9.84791 21.432 8.37822C19.9203 6.90854 18.0308 6.15271 15.7632 6.15271" stroke="#665CA7" stroke-width="0.809134" stroke-linecap="round" stroke-linejoin="round"/>
<path d="M17.1909 18.3297C17.1909 18.3297 17.7788 18.3717 18.0727 17.9938L18.6606 17.238C18.9545 16.8601 19.6263 16.6082 20.3401 16.9861C20.718 17.196 21.3899 17.6159 21.8098 17.9518C22.2716 18.2877 23.1954 19.0435 23.1954 19.0435C23.6573 19.4215 23.7413 19.9673 23.4473 20.5552C23.1534 21.101 22.7335 21.6049 22.1877 22.0668C21.7678 22.4447 21.3479 22.6126 20.928 22.6966H20.76C20.5921 22.6966 20.3821 22.6546 20.2142 22.6126C19.5843 22.4447 18.5346 21.9828 16.7291 21.0171C15.5953 20.3872 14.6296 19.7154 13.8318 19.0855C13.4119 18.7496 12.95 18.3717 12.5301 17.9098L12.3622 17.7419C11.9003 17.28 11.5224 16.8601 11.1865 16.4402C10.5566 15.6424 9.88479 14.6767 9.25495 13.5429C8.2892 11.7794 7.82732 10.7297 7.65936 10.0578C7.61737 9.88988 7.57538 9.72193 7.57538 9.51198V9.34401C7.61737 8.92412 7.82731 8.50423 8.20522 8.08433C8.6671 7.58046 9.17097 7.16057 9.71684 6.82465C10.3047 6.53073 10.8506 6.61471 11.2285 7.07659C11.2285 7.07659 11.9843 8.00036 12.3202 8.46225C12.6141 8.88214 13.034 9.55397 13.2859 9.93187C13.6638 10.6037 13.4119 11.3175 13.076 11.6114L12.3202 12.1993C11.9423 12.4932 11.9843 13.0811 11.9843 13.0811C11.9843 13.0811 13.034 17.238 17.1909 18.3297Z" fill="#665CA7"/>
</svg>
