<svg width="32" height="32" viewBox="0 0 32 32" fill="none" xmlns="http://www.w3.org/2000/svg">
<g clip-path="url(#clip0_14939_36003)">
<path fill-rule="evenodd" clip-rule="evenodd" d="M15.9813 32C14.8666 32 14.1106 31.5507 13.5586 31.224C13.1919 31.0067 12.9759 30.884 12.7746 30.884C12.4946 30.884 12.2893 30.9453 12.0053 31.0307C10.1733 31.6787 8.89861 30.8387 7.83594 29.68C7.53994 29.3773 7.20527 29.0347 6.99727 28.9653C5.31727 28.4653 3.55327 27.3387 3.60127 25.3027V21.5493L1.25594 19.996C0.727957 19.6539 0.332779 19.1416 0.135939 18.544C-0.230728 17.468 0.165272 16.1693 1.07194 15.4747C1.84927 14.8547 2.64661 14.8653 3.60127 14.884C3.56927 12.3947 3.50794 9.804 4.57461 7.49867C6.43061 3.02933 11.0999 0 15.9813 0C20.8466 0 25.5333 3.02933 27.3893 7.49867C28.4559 9.80267 28.3946 12.3987 28.3626 14.884C29.3279 14.8667 30.1413 14.8453 30.9279 15.4747C31.8346 16.168 32.2306 17.468 31.8639 18.544C31.6673 19.142 31.2721 19.6548 30.7439 19.9973L28.3626 21.576V25.3027C28.3506 27.3387 26.8759 28.516 24.8826 28.9893C24.7266 29.0333 24.3439 29.4293 24.1146 29.6653C23.0346 30.852 21.7893 31.6747 19.9413 31.0307C19.6613 30.9493 19.4399 30.884 19.1733 30.884C18.9733 30.884 18.7599 31.0053 18.3999 31.2213C17.8506 31.5507 17.0999 32 15.9813 32Z" fill="#3A3837"/>
<path fill-rule="evenodd" clip-rule="evenodd" d="M29.1827 16H27.236V12.28C27.236 6.11463 22.1987 1.11597 15.9827 1.11597C9.76668 1.11597 4.72801 6.11463 4.72801 12.2786V16H2.81735C1.14801 16 0.492014 18.148 1.88135 19.0666L4.72801 20.9533V25.3026C4.72801 26.7906 5.93068 27.436 7.35468 27.9066C8.47868 28.28 9.22935 30.14 10.7307 30.14C11.48 30.14 11.912 29.7666 12.7747 29.7666C13.9 29.7666 14.4813 30.884 15.9827 30.884C17.4827 30.884 18.0467 29.768 19.1733 29.768C20.0107 29.768 20.484 30.14 21.2347 30.14C22.7347 30.14 23.5187 28.1773 24.6107 27.9066C26.112 27.5346 27.2373 26.7906 27.2373 25.3026V20.98L30.1187 19.068C31.5093 18.148 30.852 16 29.1827 16Z" fill="white"/>
<path fill-rule="evenodd" clip-rule="evenodd" d="M15.0627 11.3494C15.0627 12.8907 14.2227 14.14 13.1867 14.14C12.1507 14.14 11.3107 12.8907 11.3107 11.3494C11.3107 9.80805 12.1507 8.55872 13.1867 8.55872C14.2227 8.55872 15.0627 9.80805 15.0627 11.3494ZM20.6893 11.3494C20.6893 12.8907 19.8493 14.14 18.8147 14.14C17.7787 14.14 16.9387 12.8907 16.9387 11.3494C16.9387 9.80805 17.7787 8.55872 18.8133 8.55872C19.8493 8.55872 20.6893 9.80805 20.6893 11.3494Z" fill="#3A3837"/>
</g>
<defs>
<clipPath id="clip0_14939_36003">
<rect width="32" height="32" fill="white"/>
</clipPath>
</defs>
</svg>
