<svg width="32" height="32" viewBox="0 0 32 32" fill="none" xmlns="http://www.w3.org/2000/svg">
<g clip-path="url(#clip0_14939_36012)">
<path d="M31.8691 18.0316C32.9889 9.26521 26.7981 1.25066 18.0476 0.13086C9.29721 -0.988938 1.25066 5.20195 0.13086 13.9524C-0.988938 22.7028 5.20195 30.7333 13.9524 31.8691C22.7188 32.9889 30.7333 26.7981 31.8691 18.0316Z" fill="#FF6C37"/>
<path d="M21.775 10.2731L15.0242 17.0238L13.1205 15.1202C19.7593 8.48139 20.4152 9.05728 21.775 10.2731Z" fill="white"/>
<path d="M15.0242 17.1838C14.9762 17.1838 14.9442 17.1678 14.9122 17.1358L12.9925 15.2322C12.9286 15.1682 12.9286 15.0722 12.9925 15.0082C19.7433 8.25742 20.4472 8.89731 21.8709 10.1771C21.9029 10.2091 21.9189 10.2411 21.9189 10.2891C21.9189 10.337 21.9029 10.369 21.8709 10.401L15.1202 17.1358C15.1042 17.1678 15.0562 17.1838 15.0242 17.1838ZM13.3445 15.1202L15.0242 16.7999L21.535 10.2891C20.3512 9.23325 19.5514 8.9133 13.3445 15.1202Z" fill="#FF6C37"/>
<path d="M16.9598 18.9595L15.1202 17.1198L21.871 10.369C23.6786 12.1927 20.9751 15.1522 16.9598 18.9595Z" fill="white"/>
<path d="M16.9598 19.1195C16.9118 19.1195 16.8799 19.1035 16.8479 19.0715L15.0082 17.2318C14.9762 17.1998 14.9762 17.1679 14.9762 17.1199C14.9762 17.0719 14.9922 17.0399 15.0242 17.0079L21.775 10.2571C21.839 10.1931 21.9349 10.1931 21.9989 10.2571C22.4149 10.641 22.6388 11.1849 22.6228 11.7448C22.5908 13.5205 20.5752 15.7761 17.0878 19.0715C17.0398 19.1035 16.9918 19.1195 16.9598 19.1195ZM15.3441 17.1199C16.3679 18.1597 16.7999 18.5756 16.9598 18.7356C19.6474 16.176 22.2549 13.5525 22.2709 11.7448C22.2869 11.3289 22.1269 10.913 21.855 10.593L15.3441 17.1199Z" fill="#FF6C37"/>
<path d="M13.1525 15.1682L14.5123 16.528C14.5442 16.5599 14.5442 16.5919 14.5123 16.6239C14.4963 16.6399 14.4963 16.6399 14.4803 16.6399L11.6648 17.2478C11.5208 17.2638 11.3928 17.1678 11.3608 17.0239C11.3448 16.9439 11.3768 16.8639 11.4248 16.8159L13.0565 15.1842C13.0885 15.1522 13.1365 15.1362 13.1525 15.1682Z" fill="white"/>
<path d="M11.6168 17.4078C11.3768 17.4078 11.2009 17.2158 11.2009 16.9759C11.2009 16.8639 11.2489 16.7519 11.3288 16.6719L12.9605 15.0402C13.0565 14.9602 13.1845 14.9602 13.2805 15.0402L14.6402 16.4C14.7362 16.48 14.7362 16.6239 14.6402 16.7199C14.6083 16.7519 14.5763 16.7679 14.5283 16.7839L11.7128 17.3918C11.6808 17.3918 11.6488 17.4078 11.6168 17.4078ZM13.1045 15.3442L11.5368 16.9119C11.5048 16.9439 11.4888 16.9919 11.5208 17.0399C11.5368 17.0878 11.5848 17.1038 11.6328 17.0878L14.2723 16.5119L13.1045 15.3442Z" fill="#FF6C37"/>
<path d="M25.3423 6.5297C24.3185 5.53788 22.6708 5.56987 21.679 6.60969C20.6872 7.6495 20.7192 9.2812 21.759 10.273C22.6068 11.0889 23.8866 11.2329 24.8944 10.625L23.0707 8.80129L25.3423 6.5297Z" fill="white"/>
<path d="M23.5506 11.1529C22.0309 11.1529 20.7991 9.92113 20.7991 8.40141C20.7991 6.88168 22.0309 5.6499 23.5506 5.6499C24.2545 5.6499 24.9424 5.92185 25.4543 6.41776C25.4863 6.44976 25.5023 6.48175 25.5023 6.52974C25.5023 6.57774 25.4863 6.60973 25.4543 6.64172L23.2947 8.80133L24.9904 10.497C25.0544 10.561 25.0544 10.657 24.9904 10.721C24.9744 10.737 24.9744 10.737 24.9584 10.753C24.5425 11.0089 24.0465 11.1529 23.5506 11.1529ZM23.5506 5.98584C22.2069 5.98584 21.1191 7.07365 21.1351 8.4174C21.1351 9.76116 22.2229 10.849 23.5666 10.833C23.9346 10.833 24.3025 10.753 24.6384 10.577L22.9587 8.91331C22.9267 8.88132 22.9108 8.84933 22.9108 8.80133C22.9108 8.75334 22.9267 8.72135 22.9587 8.68935L25.1024 6.54574C24.6704 6.17781 24.1265 5.98584 23.5506 5.98584Z" fill="#FF6C37"/>
<path d="M25.3903 6.57777L25.3583 6.54578L23.0707 8.80137L24.8784 10.609C25.0544 10.4971 25.2304 10.3691 25.3743 10.2251C26.3981 9.21729 26.3981 7.58559 25.3903 6.57777Z" fill="white"/>
<path d="M24.8944 10.785C24.8464 10.785 24.8144 10.769 24.7824 10.737L22.9588 8.91329C22.9268 8.8813 22.9108 8.8493 22.9108 8.80131C22.9108 8.75332 22.9268 8.72133 22.9588 8.68933L25.2303 6.41774C25.2943 6.35375 25.3903 6.35375 25.4543 6.41774L25.5023 6.44974C26.5741 7.52154 26.5741 9.24923 25.5183 10.337C25.3583 10.497 25.1824 10.641 24.9904 10.753C24.9424 10.769 24.9104 10.785 24.8944 10.785ZM23.2947 8.80131L24.9104 10.417C25.0384 10.337 25.1664 10.2251 25.2623 10.1291C26.1742 9.21724 26.2222 7.72951 25.3423 6.76968L23.2947 8.80131Z" fill="#FF6C37"/>
<path d="M22.0469 10.561C21.663 10.1771 21.0391 10.1771 20.6552 10.561L14.6243 16.5919L15.6321 17.5998L22.0149 12.0008C22.4309 11.6488 22.4629 11.0249 22.1109 10.609C22.0789 10.593 22.0629 10.577 22.0469 10.561Z" fill="white"/>
<path d="M15.616 17.7598C15.568 17.7598 15.536 17.7438 15.5041 17.7118L14.4962 16.704C14.4322 16.64 14.4322 16.544 14.4962 16.48L20.5271 10.4491C20.9751 10.0012 21.6949 10.0012 22.1429 10.4491C22.5908 10.897 22.5908 11.6169 22.1429 12.0648C22.1269 12.0808 22.1109 12.0968 22.0949 12.1128L15.712 17.7118C15.696 17.7438 15.664 17.7598 15.616 17.7598ZM14.8482 16.592L15.632 17.3758L21.9029 11.8728C22.2548 11.5849 22.2868 11.057 21.9989 10.7051C21.7109 10.3531 21.183 10.3211 20.8311 10.6091C20.8151 10.6251 20.7991 10.6411 20.7671 10.6571L14.8482 16.592Z" fill="#FF6C37"/>
<path d="M10.0011 23.4547C9.93707 23.4867 9.90508 23.5507 9.92107 23.6147L10.193 24.7664C10.257 24.9264 10.161 25.1184 9.98506 25.1664C9.85709 25.2144 9.71311 25.1664 9.63313 25.0704L7.87344 23.3267L13.6164 17.5837L15.6001 17.6157L16.9438 18.9595C16.6239 19.2314 14.6882 21.1031 10.0011 23.4547Z" fill="white"/>
<path d="M9.8731 25.3264C9.74512 25.3264 9.61715 25.2784 9.53716 25.1824L7.79347 23.4387C7.76148 23.4067 7.74548 23.3748 7.74548 23.3268C7.74548 23.2788 7.76148 23.2468 7.79347 23.2148L13.5364 17.4718C13.5684 17.4398 13.6164 17.4238 13.6484 17.4238L15.6321 17.4558C15.6801 17.4558 15.712 17.4718 15.744 17.5038L17.0878 18.8476C17.1198 18.8796 17.1358 18.9276 17.1358 18.9755C17.1358 19.0235 17.1198 19.0555 17.0718 19.0875L16.9598 19.1835C15.2641 20.6712 12.9605 22.159 10.0971 23.5827L10.369 24.7185C10.417 24.9265 10.321 25.1504 10.1291 25.2624C10.0331 25.3104 9.95309 25.3264 9.8731 25.3264ZM8.11342 23.3268L9.76112 24.9585C9.80911 25.0385 9.90509 25.0705 9.98508 25.0225C10.0651 24.9745 10.0971 24.8785 10.0491 24.7985L9.77712 23.6467C9.74512 23.5027 9.80911 23.3748 9.93709 23.3108C12.7686 21.887 15.0562 20.4153 16.7359 18.9596L15.5521 17.7758L13.7124 17.7438L8.11342 23.3268Z" fill="#FF6C37"/>
<path d="M6.51369 24.7024L7.88945 23.3267L9.93708 25.3743L6.67367 25.1503C6.52969 25.1343 6.43371 25.0064 6.44971 24.8624C6.44971 24.7984 6.4657 24.7344 6.51369 24.7024Z" fill="white"/>
<path d="M9.93708 25.5183L6.65767 25.2944C6.41772 25.2784 6.25775 25.0704 6.27374 24.8305C6.28974 24.7345 6.32174 24.6385 6.40172 24.5745L7.77747 23.1987C7.84146 23.1348 7.93744 23.1348 8.00143 23.1987L10.0491 25.2464C10.0971 25.2944 10.1131 25.3584 10.0811 25.4223C10.0491 25.4863 10.0011 25.5183 9.93708 25.5183ZM7.88945 23.5507L6.62568 24.8145C6.57769 24.8464 6.57769 24.9264 6.62568 24.9584C6.64168 24.9744 6.65767 24.9904 6.68967 24.9904L9.52116 25.1824L7.88945 23.5507Z" fill="#FF6C37"/>
<path d="M13.0565 18.3197C12.9605 18.3197 12.8965 18.2397 12.8965 18.1597C12.8965 18.1117 12.9125 18.0797 12.9445 18.0477L14.4963 16.496C14.5602 16.432 14.6562 16.432 14.7202 16.496L15.728 17.5038C15.776 17.5518 15.792 17.5998 15.776 17.6638C15.76 17.7118 15.712 17.7598 15.648 17.7758L13.0885 18.3197C13.0725 18.3197 13.0565 18.3197 13.0565 18.3197ZM14.6082 16.8319L13.5524 17.8877L15.2801 17.5198L14.6082 16.8319Z" fill="#FF6C37"/>
<path d="M15.6001 17.6157L13.8404 17.9997C13.7124 18.0316 13.5844 17.9517 13.5524 17.8237C13.5364 17.7437 13.5524 17.6637 13.6164 17.5997L14.5922 16.6239L15.6001 17.6157Z" fill="white"/>
<path d="M13.8084 18.1597C13.5844 18.1597 13.4084 17.9837 13.4084 17.7598C13.4084 17.6478 13.4564 17.5518 13.5204 17.4718L14.4963 16.496C14.5602 16.432 14.6562 16.432 14.7202 16.496L15.728 17.5038C15.776 17.5518 15.792 17.5998 15.776 17.6638C15.76 17.7118 15.712 17.7598 15.648 17.7758L13.8884 18.1597C13.8564 18.1597 13.8244 18.1597 13.8084 18.1597ZM14.6082 16.8319L13.7444 17.6958C13.7124 17.7278 13.7124 17.7598 13.7284 17.7918C13.7444 17.8237 13.7764 17.8397 13.8244 17.8397L15.2961 17.5198L14.6082 16.8319Z" fill="#FF6C37"/>
<path d="M25.4063 8.11343C25.3743 8.01745 25.2623 7.96945 25.1663 8.00145C25.0704 8.03344 25.0224 8.14542 25.0544 8.2414C25.0544 8.2574 25.0704 8.2734 25.0704 8.2894C25.1663 8.48136 25.1343 8.72132 25.0064 8.89729C24.9424 8.97727 24.9584 9.08925 25.0224 9.15324C25.1024 9.21723 25.2143 9.20123 25.2783 9.12125C25.5183 8.8173 25.5663 8.43337 25.4063 8.11343Z" fill="#FF6C37"/>
</g>
<defs>
<clipPath id="clip0_14939_36012">
<rect width="32" height="32" fill="white"/>
</clipPath>
</defs>
</svg>
