<svg width="32" height="32" viewBox="0 0 32 32" fill="none" xmlns="http://www.w3.org/2000/svg">
<g clip-path="url(#clip0_14963_14794)">
<path d="M32 16C32 7.16344 24.8366 0 16 0C7.16344 0 0 7.16344 0 16C0 24.8366 7.16344 32 16 32C24.8366 32 32 24.8366 32 16Z" fill="white"/>
<path d="M31.75 16C31.75 7.30152 24.6985 0.25 16 0.25C7.30152 0.25 0.25 7.30152 0.25 16C0.25 24.6985 7.30152 31.75 16 31.75C24.6985 31.75 31.75 24.6985 31.75 16Z" stroke="black" stroke-opacity="0.1"/>
<path fill-rule="evenodd" clip-rule="evenodd" d="M26.4468 9.71221C26.4 9.59011 26.3186 9.44161 26.2128 9.28081C26.0012 8.95731 25.6817 8.56051 25.3277 8.18606V8.18406C24.9492 7.80351 24.5626 7.47386 24.2492 7.25616C24.0925 7.14831 23.9501 7.06286 23.8321 7.01606C23.7731 6.99161 23.714 6.97536 23.6571 6.97126C23.6021 6.96721 23.5329 6.97736 23.48 7.03026L16.1424 14.1767C16.061 14.2561 15.9288 14.2561 15.8474 14.1767L8.50974 7.03026C8.45684 6.97941 8.38764 6.96926 8.33274 6.97126C8.27779 6.97536 8.21674 6.99161 8.15774 7.01606C8.03969 7.06286 7.89524 7.14831 7.74059 7.25616C7.42724 7.47386 7.04059 7.80556 6.66214 8.18406V8.18606C6.30804 8.56051 5.98859 8.95731 5.77699 9.28081C5.67114 9.44161 5.58774 9.59011 5.54294 9.71221C5.52059 9.77326 5.50429 9.83431 5.50024 9.88926C5.49819 9.94421 5.50839 10.0154 5.56329 10.0683L13.7617 18.047C13.8349 18.1182 13.8756 18.2159 13.8756 18.3176L13.8675 28.0768C13.8675 28.1501 13.9102 28.205 13.9468 28.2396C13.9855 28.2762 14.0364 28.3067 14.0933 28.3332C14.2073 28.3881 14.364 28.439 14.5491 28.4817C14.9235 28.5672 15.4343 28.6283 16 28.6283C16.5657 28.6283 17.0764 28.5672 17.4508 28.4817C17.636 28.439 17.7927 28.3881 17.9066 28.3332C17.9636 28.3067 18.0145 28.2742 18.0531 28.2396C18.0898 28.205 18.1325 28.1501 18.1325 28.0768L18.1243 18.3176C18.1243 18.2159 18.165 18.1182 18.2383 18.047L26.4367 10.0683C26.4916 10.0154 26.5018 9.94421 26.4997 9.88926C26.4977 9.83226 26.4794 9.77121 26.457 9.71221H26.4468Z" fill="url(#paint0_linear_14963_14794)"/>
</g>
<defs>
<linearGradient id="paint0_linear_14963_14794" x1="5.49999" y1="18.2086" x2="26.3024" y2="16.4105" gradientUnits="userSpaceOnUse">
<stop offset="0.3" stop-color="#FF6A16"/>
<stop offset="0.542948" stop-color="#FF3227"/>
<stop offset="0.89" stop-color="#FF66DD"/>
</linearGradient>
<clipPath id="clip0_14963_14794">
<rect width="32" height="32" fill="white"/>
</clipPath>
</defs>
</svg>
