<svg width="32" height="32" viewBox="0 0 32 32" fill="none" xmlns="http://www.w3.org/2000/svg">
<g clip-path="url(#clip0_14384_93201)">
<path d="M26.4717 17.9534C27.8935 17.4689 27.557 15.4854 27.1701 13.2177C26.6928 10.4153 26.1414 7.17718 28.7439 5.79102C28.7439 5.79102 27.0608 8.11757 29.5917 11.5285C32.1589 14.987 32.5948 22.2171 27.3861 23.7373C24.9281 24.4547 22.6622 22.6804 20.9541 20.6068C16.2139 18.4405 19.1391 17.3536 11.8367 20.6068C11.2 22.7242 7.95817 24.6301 5.9134 24.6652C0.505028 24.7578 -0.352826 17.7018 1.15439 13.6234C2.64024 9.60268 0.386963 7.87339 0.386963 7.87339C3.26197 8.42685 3.62621 11.6938 3.94021 14.5212C4.19518 16.809 4.4175 18.8099 5.9134 18.8513C10.4049 18.8513 8.89267 11.5047 8.89267 11.5047L15.4892 9.42982L21.984 11.4333C21.984 11.4333 23.2915 19.0391 26.4705 17.9547L26.4717 17.9534Z" fill="url(#paint0_linear_14384_93201)"/>
<path d="M27.394 21.8514C26.9958 21.7951 24.8519 21.9304 22.8222 21.2567C22.424 22.0105 25.2048 24.0729 26.0413 24.034C26.8765 23.9939 29.1047 23.2013 29.0658 23.0022C29.0256 22.8044 29.0658 22.0894 27.394 21.8514Z" fill="url(#paint1_linear_14384_93201)"/>
<path d="M9.8099 18.7573C9.28236 18.0649 8.61666 18.3215 8.17834 17.8445C8.89424 16.9316 9.01356 15.6632 9.01356 15.6632L10.4856 15.7033L12.1573 17.3298L10.4856 22.6453C10.5258 20.9399 10.5647 19.749 9.80863 18.7573H9.8099Z" fill="url(#paint2_linear_14384_93201)"/>
<path d="M6.82544 24.2706C7.14321 24.3495 8.45702 24.1917 9.29224 23.4379C7.58159 21.1377 8.77475 19.5111 7.58159 18.4004C7.38939 18.577 7.10428 18.5982 7.10428 18.5982L6.82544 24.2706Z" fill="url(#paint3_linear_14384_93201)"/>
<path d="M21.3899 17.2886C21.5093 16.2968 22.6233 16.1378 23.2199 15.543C22.7816 14.5913 22.6233 13.8763 22.6233 13.8763L21.0709 14.2732L20.1954 15.8598C20.1954 15.8598 19.3602 20.3827 22.9009 21.3744C21.2694 19.5888 21.2694 18.2803 21.3887 17.2886H21.3899Z" fill="url(#paint4_linear_14384_93201)"/>
<path d="M1.99208 16.4289C2.00087 15.9553 1.79097 15.5673 1.52326 15.5624C1.25555 15.5574 1.03139 15.9374 1.02261 16.411C1.01382 16.8847 1.22371 17.2726 1.49142 17.2776C1.75914 17.2825 1.98329 16.9026 1.99208 16.4289Z" fill="#1890FF"/>
<path d="M2.05419 14.6193C2.09783 14.2484 1.96007 13.9275 1.74649 13.9026C1.53292 13.8775 1.32441 14.1579 1.28077 14.5289C1.23713 14.8998 1.37489 15.2207 1.58847 15.2456C1.80204 15.2707 2.01055 14.9902 2.05419 14.6193Z" fill="#1890FF"/>
<path d="M2.23556 13.026C2.25697 12.6636 2.11602 12.3604 1.92074 12.349C1.72546 12.3375 1.54981 12.622 1.52839 12.9845C1.50699 13.3469 1.64794 13.6501 1.84322 13.6614C2.0385 13.6729 2.21415 13.3884 2.23556 13.026Z" fill="#1890FF"/>
<path d="M1.99253 12.1083C2.18436 12.0827 2.30047 11.768 2.25188 11.4054C2.20328 11.0428 2.00838 10.7696 1.81655 10.7951C1.62472 10.8207 1.5086 11.1353 1.5572 11.498C1.60579 11.8605 1.8007 12.1338 1.99253 12.1083Z" fill="#1890FF"/>
<path d="M1.72316 10.5107C1.86416 10.4802 1.92667 10.2177 1.8628 9.92443C1.79892 9.63113 1.63284 9.41812 1.49184 9.44858C1.35083 9.47912 1.28832 9.74166 1.3522 10.035C1.41607 10.3283 1.58215 10.5413 1.72316 10.5107Z" fill="#1890FF"/>
<path d="M2.14563 19.2103C2.4509 19.1359 2.60167 18.6809 2.48239 18.1938C2.36311 17.7067 2.01894 17.3721 1.71368 17.4464C1.40841 17.5207 1.25764 17.9758 1.37691 18.4628C1.49619 18.9499 1.84036 19.2845 2.14563 19.2103Z" fill="#1890FF"/>
<path d="M3.40755 21.4642C3.77065 21.3047 3.86296 20.7183 3.61374 20.1544C3.36452 19.5906 2.86814 19.2628 2.50504 19.4223C2.14195 19.5818 2.04964 20.1682 2.29885 20.7321C2.54807 21.2959 3.04445 21.6238 3.40755 21.4642Z" fill="url(#paint5_linear_14384_93201)"/>
<path d="M8.15173 23.7134C8.77304 23.5775 9.21016 23.165 9.128 22.7921C9.04593 22.4192 8.47571 22.2272 7.8544 22.3632C7.2331 22.4991 6.79598 22.9116 6.87807 23.2845C6.96016 23.6573 7.53042 23.8494 8.15173 23.7134Z" fill="url(#paint6_linear_14384_93201)"/>
<path d="M10.5829 22.3814C11.0267 22.0301 11.2372 21.5578 11.0531 21.3266C10.8689 21.0953 10.3598 21.1927 9.91595 21.544C9.47213 21.8953 9.26157 22.3676 9.44576 22.5988C9.62995 22.8301 10.1391 22.7328 10.5829 22.3814Z" fill="url(#paint7_linear_14384_93201)"/>
<path d="M0.960999 17.496C0.971508 16.9809 0.765251 16.5589 0.500324 16.5536C0.235395 16.5483 0.0121101 16.9616 0.00160484 17.4767C-0.00890043 17.9918 0.197351 18.4137 0.462281 18.419C0.727211 18.4243 0.950497 18.0111 0.960999 17.496Z" fill="#1890FF"/>
<path d="M0.98756 15.4622C1.04514 15.0603 0.955995 14.7152 0.788438 14.6914C0.620881 14.6675 0.43837 14.9739 0.380785 15.3758C0.323201 15.7777 0.41235 16.1228 0.579906 16.1466C0.74746 16.1705 0.929972 15.864 0.98756 15.4622Z" fill="#1890FF"/>
<path d="M1.19324 13.9352C1.2645 13.6385 1.22929 13.3759 1.11461 13.3485C0.999931 13.3212 0.849199 13.5394 0.777944 13.836C0.706684 14.1326 0.741886 14.3952 0.856565 14.4226C0.971248 14.45 1.12198 14.2318 1.19324 13.9352Z" fill="#1890FF"/>
<path d="M1.38716 12.5465C1.46158 12.2506 1.46301 11.9961 1.39034 11.978C1.31767 11.9598 1.19844 12.1849 1.12402 12.4806C1.0496 12.7765 1.04818 13.031 1.12084 13.0492C1.19351 13.0674 1.31274 12.8423 1.38716 12.5465Z" fill="#1890FF"/>
<path d="M1.28968 20.7261C1.60194 20.6376 1.72684 20.1161 1.56863 19.5614C1.41043 19.0066 1.02904 18.6286 0.716779 18.7171C0.404513 18.8056 0.279619 19.3271 0.437819 19.8819C0.59602 20.4367 0.977407 20.8146 1.28968 20.7261Z" fill="#1890FF"/>
<path d="M2.57495 23.2043C2.92221 23.0292 2.95955 22.406 2.65837 21.8123C2.35718 21.2187 1.83151 20.8794 1.48425 21.0545C1.13699 21.2296 1.09964 21.8528 1.40083 22.4465C1.70202 23.0401 2.22769 23.3795 2.57495 23.2043Z" fill="url(#paint8_linear_14384_93201)"/>
<path d="M7.85877 24.3325C7.93712 23.8856 7.47222 23.4312 6.82039 23.3176C6.16851 23.2039 5.57652 23.4741 5.49813 23.9209C5.41973 24.3678 5.88462 24.8222 6.5365 24.9359C7.18837 25.0495 7.78034 24.7795 7.85877 24.3325Z" fill="#1890FF"/>
<path d="M30.2657 15.1306C30.5231 15.0549 30.6234 14.6268 30.4895 14.1744C30.3558 13.722 30.0386 13.4167 29.7811 13.4923C29.5235 13.568 29.4233 13.9961 29.5571 14.4485C29.6909 14.9009 30.0081 15.2063 30.2657 15.1306Z" fill="#1890FF"/>
<path d="M29.6176 13.2115C29.8174 13.1304 29.8656 12.7859 29.7252 12.4419C29.5848 12.0979 29.309 11.8847 29.1092 11.9658C28.9094 12.0469 28.8612 12.3914 29.0016 12.7354C29.142 13.0794 29.4177 13.2925 29.6176 13.2115Z" fill="#1890FF"/>
<path d="M29.1236 11.5759C29.3093 11.5126 29.365 11.1844 29.2479 10.8427C29.1309 10.5012 28.8855 10.2755 28.6997 10.3387C28.5139 10.4021 28.4582 10.7303 28.5753 11.0718C28.6923 11.4135 28.9377 11.6392 29.1236 11.5759Z" fill="#1890FF"/>
<path d="M28.5916 9.94772C28.7794 9.90095 28.8595 9.57585 28.7707 9.22162C28.6818 8.86739 28.4575 8.61811 28.2698 8.66496C28.0821 8.71173 28.0019 9.03684 28.0907 9.39114C28.1796 9.74536 28.4038 9.99457 28.5916 9.94772Z" fill="#1890FF"/>
<path d="M28.2456 8.40868C28.3896 8.40031 28.4922 8.15005 28.4746 7.84974C28.457 7.54942 28.3259 7.31276 28.182 7.32114C28.0379 7.32952 27.9354 7.57977 27.9529 7.88009C27.9705 8.1804 28.1015 8.41707 28.2456 8.40868Z" fill="#1890FF"/>
<path d="M30.1676 17.1727C30.4803 17.165 30.7238 16.7514 30.7114 16.2488C30.699 15.7462 30.4353 15.345 30.1226 15.3526C29.8099 15.3603 29.5664 15.774 29.5788 16.2766C29.5912 16.7792 29.8548 17.1804 30.1676 17.1727Z" fill="#1890FF"/>
<path d="M30.45 18.6981C30.5421 18.0846 30.3003 17.54 29.9099 17.4817C29.5196 17.4236 29.1285 17.8737 29.0364 18.4871C28.9443 19.1007 29.1861 19.6452 29.5765 19.7035C29.9668 19.7617 30.3579 19.3116 30.45 18.6981Z" fill="#1890FF"/>
<path d="M29.0341 21.3586C29.4282 20.8157 29.4616 20.1692 29.1088 19.9146C28.756 19.6599 28.1504 19.8935 27.7562 20.4364C27.3621 20.9792 27.3286 21.6257 27.6815 21.8803C28.0344 22.135 28.6399 21.9014 29.0341 21.3586Z" fill="#1890FF"/>
<path d="M26.8013 23.3725C27.3335 23.1446 27.6394 22.6683 27.4845 22.3087C27.3296 21.949 26.7725 21.8421 26.2403 22.07C25.7081 22.2979 25.4022 22.7741 25.5571 23.1338C25.712 23.4934 26.2691 23.6003 26.8013 23.3725Z" fill="url(#paint9_linear_14384_93201)"/>
<path d="M31.5685 15.918C31.823 15.8419 31.9093 15.3812 31.7613 14.889C31.6132 14.3969 31.2869 14.0595 31.0324 14.1356C30.778 14.2116 30.6917 14.6723 30.8397 15.1645C30.9877 15.6567 31.314 15.994 31.5685 15.918Z" fill="#1890FF"/>
<path d="M30.8366 13.7698C30.9919 13.701 30.9847 13.3466 30.8205 12.9781C30.6563 12.6097 30.3974 12.3667 30.2421 12.4355C30.0867 12.5043 30.0939 12.8587 30.2581 13.2272C30.4222 13.5956 30.6812 13.8386 30.8366 13.7698Z" fill="#1890FF"/>
<path d="M30.1268 12.1543C30.2307 12.0958 30.1942 11.8351 30.0452 11.5719C29.8962 11.3087 29.6912 11.1427 29.5873 11.2012C29.4834 11.2596 29.5199 11.5204 29.6689 11.7836C29.8179 12.0468 30.0229 12.2128 30.1268 12.1543Z" fill="#1890FF"/>
<path d="M31.9999 17.3515C32.0072 16.7471 31.7634 16.2542 31.4554 16.2505C31.1475 16.2468 30.8919 16.7337 30.8846 17.3381C30.8773 17.9425 31.121 18.4354 31.429 18.4392C31.737 18.4428 31.9926 17.9559 31.9999 17.3515Z" fill="#1890FF"/>
<path d="M31.5442 20.0823C31.6968 19.4452 31.5722 18.8697 31.2658 18.7968C30.9595 18.7239 30.5875 19.1812 30.4349 19.8182C30.2824 20.4552 30.407 21.0307 30.7133 21.1036C31.0196 21.1765 31.3916 20.7193 31.5442 20.0823Z" fill="#1890FF"/>
<path d="M29.8011 22.8781C30.3225 22.3603 30.5579 21.753 30.3269 21.5218C30.0958 21.2905 29.4858 21.5228 28.9643 22.0407C28.4429 22.5585 28.2076 23.1658 28.4386 23.397C28.6697 23.6283 29.2797 23.3959 29.8011 22.8781Z" fill="#1890FF"/>
<path d="M6.97454 12.3511C6.60025 7.01805 14.8359 1.104 14.8359 1.104V1.10651C14.9301 1.14157 24.109 4.5788 24.4795 9.88426C24.4795 18.0823 7.53598 20.3362 6.9758 12.3511H6.97454Z" fill="url(#paint10_linear_14384_93201)"/>
<path d="M19.5569 3.5234L15.1006 6.10165C14.543 6.10165 12.2759 5.34783 10.4446 5.06985C10.6832 4.83193 11.0023 4.43499 11.4795 3.99923C13.6286 5.22888 15.8166 5.68717 17.727 2.45154C18.4429 2.80841 19.199 3.28424 19.5569 3.52215V3.5234Z" fill="url(#paint11_linear_14384_93201)"/>
<path d="M21.1103 14.3534C20.9469 14.7053 20.8314 14.9883 21.3087 15.2262C21.3087 15.2262 20.393 15.821 19.7174 16.139C19.0403 16.4558 20.3139 13.9965 20.3139 13.9965C21.428 13.0449 22.8209 10.4654 23.9752 9.63269C22.7016 13.4807 21.3489 13.8375 21.1103 14.3534Z" fill="url(#paint12_linear_14384_93201)"/>
<path d="M9.92764 14.9092C10.0419 15.0683 10.2064 16.1389 9.80832 16.4169C9.80832 16.4169 10.0871 16.6147 11.48 17.0517C12.157 17.3685 10.5255 14.4334 10.5255 14.4334C9.41142 13.4817 8.57613 12.8068 7.42188 11.9741C8.41667 13.7986 9.47421 14.2744 9.92891 14.9092H9.92764Z" fill="url(#paint13_linear_14384_93201)"/>
<path d="M15.1741 5.96874C15.1741 5.96874 7.78505 3.12379 6.40717 6.63365C5.82062 8.12875 6.50012 13.16 10.4578 14.5061C10.6751 15.3964 10.8421 16.6298 10.9075 17.9183C15.3789 24.7464 20.752 18.4191 20.752 18.4191C20.752 18.4191 19.9557 15.6218 20.4783 14.0678C24.6042 12.0994 25.0614 5.44283 23.8255 3.98779C21.8448 1.65874 16.6738 4.38849 15.1728 5.96749L15.1741 5.96874Z" fill="url(#paint14_linear_14384_93201)"/>
<path d="M15.3985 13.4804C17.2286 13.394 22.343 13.5995 23.6355 10.5153C20.3724 11.348 17.9043 9.22057 15.3985 9.31821C9.78799 10.951 8.51439 10.2473 6.42688 9.48974C6.94435 14.2331 13.5685 13.5668 15.3985 13.4792V13.4804Z" fill="url(#paint15_linear_14384_93201)"/>
<path d="M8.04632 29.2694C2.99714 28.5131 3.03357 23.0736 4.50059 20.1961C4.57092 20.0571 4.64502 19.9244 4.72289 19.7979C5.46519 18.5821 5.68123 17.425 5.6762 16.4834C5.6762 16.4683 5.6762 16.4534 5.6762 16.4383C5.6762 16.4095 5.6762 16.3807 5.67495 16.3519C5.67495 16.3332 5.67495 16.3131 5.67369 16.2944C5.67369 16.2806 5.67369 16.2655 5.67244 16.2518C5.61969 15.0283 5.21149 14.2245 5.21149 14.2245C6.84304 15.0947 7.29771 16.4158 7.35675 17.8182C7.35675 17.8295 7.35675 17.8408 7.358 17.8508C7.358 17.8733 7.35926 17.8959 7.36052 17.9184C7.36052 17.9485 7.36177 17.9785 7.36303 18.0086C7.36303 18.0349 7.36303 18.0612 7.36303 18.0875C7.36303 18.13 7.36303 18.1713 7.36303 18.2139C7.35675 19.4511 7.10429 20.7246 7.12689 21.7864C7.12689 21.8214 7.12815 21.8552 7.13066 21.8903C7.13317 21.9379 7.13569 21.9855 7.1382 22.0331C7.201 22.9697 7.52757 23.7148 8.511 24.0841C10.812 24.9469 11.0318 20.4628 10.7128 15.861C14.2146 16.1391 15.1302 17.4476 16.1639 20.5818C16.493 24.7879 12.5415 29.9431 8.04632 29.2694Z" fill="url(#paint16_linear_14384_93201)"/>
<path d="M23.9114 21.8527C27.9872 23.299 27.9608 21.6874 29.11 26.2328C30.2593 30.7782 18.2317 30.896 18.2317 30.896L21.0703 27.485C21.0703 27.485 20.0718 26.5333 18.2317 26.2341C16.4721 25.9486 16.2347 20.7658 16.1355 20.6343C16.6944 17.2547 17.3325 15.7033 20.2953 15.4253C20.2489 17.6391 21.1645 20.8785 23.9101 21.8539L23.9114 21.8527Z" fill="url(#paint17_linear_14384_93201)"/>
<path d="M29.0298 27.5639C27.8366 30.8171 18.2332 30.896 18.2332 30.896C18.365 30.737 19.0822 29.8254 19.4402 29.4673C19.302 29.6614 19.1387 29.9456 19.0244 30.1534C18.9717 30.2486 19.0658 30.3551 19.1688 30.3188C24.851 28.3153 28.3943 25.9048 28.4721 24.0717C28.6706 24.6276 29.5071 26.571 29.0298 27.5627V27.5639Z" fill="url(#paint18_linear_14384_93201)"/>
<path d="M15.3254 8.33164C17.9618 5.65072 25.0406 2.12334 24.3097 8.36295C23.5812 14.5863 17.4406 10.5355 15.4209 9.54503C13.5319 10.3564 7.94764 14.3171 6.45928 9.72408C4.97092 5.13232 12.3813 6.82777 15.3242 8.33164H15.3254Z" fill="url(#paint19_linear_14384_93201)"/>
<path d="M23.3396 7.41134C21.7871 6.02266 20.2762 6.37954 16.7342 8.64099C16.2972 8.96654 16.0384 8.52202 16.336 8.24403C19.878 4.94579 23.7378 4.35602 23.3396 7.41134Z" fill="url(#paint20_linear_14384_93201)"/>
<path d="M7.97966 10.8235C7.5024 7.4514 10.4465 7.4514 13.8691 8.68102C14.0676 8.75244 14.1919 8.49321 13.8691 8.32417C9.77075 6.18169 5.76158 7.25356 6.74629 9.43483C7.18338 10.404 7.97467 10.7872 7.97966 10.8235Z" fill="url(#paint21_linear_14384_93201)"/>
<path d="M9.69138 11.6162C8.17914 11.6162 7.66166 9.43487 9.37365 8.32422C9.01562 10.1888 10.2089 11.2593 14.2281 9.19698C14.5082 9.05301 14.7456 9.37357 14.586 9.51382C12.6367 10.8223 10.6184 11.6162 9.69138 11.6162Z" fill="url(#paint22_linear_14384_93201)"/>
<path d="M21.7457 11.4182C23.4565 11.2654 24.73 8.324 21.7457 7.09436C22.8197 10.3074 20.1933 11.9741 16.6125 9.11785C16.3663 8.92129 16.3336 9.15792 16.6526 9.43468C16.9704 9.71264 19.0805 11.656 21.7457 11.4182Z" fill="url(#paint23_linear_14384_93201)"/>
<path d="M14.0898 9.00666C14.0898 9.00666 9.55308 7.16593 10.0869 9.13559C10.6194 11.104 14.0898 9.00666 14.0898 9.00666Z" fill="white"/>
<path d="M8.09745 29.3094C11.9572 29.7977 14.5609 28.1198 15.7378 25.8183C16.6923 27.5638 18.9356 28.0922 20.91 27.6827L23.1156 25.1985C19.6767 25.9773 16.8116 24.2318 16.1748 20.5027C15.7378 23.9537 13.3501 26.9289 8.93274 26.4131C7.16553 26.2065 6.02255 25.2235 5.39078 23.8736C4.66606 22.3259 4.19758 21.2553 4.35583 20.5015C3.91874 21.4144 3.5545 22.9696 3.67884 24.5473C3.92628 27.6815 6.01879 29.0451 8.09625 29.3081L8.09745 29.3094Z" fill="url(#paint24_linear_14384_93201)"/>
<path d="M15.7366 25.8183C15.3561 26.5621 14.8273 27.2408 14.1541 27.8017C14.6225 26.4131 14.7004 25.6593 14.7004 24.2318C15.508 23.195 15.9979 21.8877 16.1737 20.5028C16.3759 21.6873 16.803 22.6716 17.4021 23.4379C16.8909 25.3813 16.8105 25.8183 17.8455 27.5238C16.8507 27.2458 16.0833 26.4506 15.7366 25.8183Z" fill="url(#paint25_linear_14384_93201)"/>
<path d="M20.9093 25.3425C21.0689 25.5015 20.6568 27.0617 20.3918 27.8017L20.5514 28.0798C20.5514 28.0798 21.6215 26.8927 22.4216 25.9773C22.6878 25.673 22.9892 25.3813 23.1375 25.1835C22.5409 25.3024 21.8237 25.4214 20.9093 25.3425Z" fill="url(#paint26_linear_14384_93201)"/>
<path d="M16.7434 8.89126C16.7434 8.89126 21.8453 5.37894 21.3341 8.71601C20.8216 12.0543 16.7434 8.89126 16.7434 8.89126Z" fill="white"/>
<path d="M5.11482 21.5671C5.22108 21.1466 5.08582 20.7502 4.81272 20.6816C4.53962 20.613 4.2321 20.8982 4.12585 21.3187C4.0196 21.7392 4.15486 22.1356 4.42795 22.2042C4.70105 22.2728 5.00858 21.9876 5.11482 21.5671Z" fill="#69C0FF"/>
<path d="M5.49198 19.9691C5.61994 19.6491 5.55495 19.3228 5.34683 19.24C5.1387 19.1573 4.86626 19.3496 4.73832 19.6695C4.61036 19.9894 4.67535 20.3157 4.88347 20.3985C5.09159 20.4812 5.36403 20.289 5.49198 19.9691Z" fill="#69C0FF"/>
<path d="M5.83966 18.4425C5.92617 18.1492 5.84957 17.8685 5.66856 17.8153C5.48754 17.7623 5.27067 17.957 5.18416 18.2502C5.09764 18.5435 5.17424 18.8242 5.35526 18.8774C5.53627 18.9304 5.75314 18.7357 5.83966 18.4425Z" fill="#69C0FF"/>
<path d="M6.11215 17.0041C6.12169 16.6978 5.97711 16.4449 5.78922 16.4391C5.60132 16.4333 5.44126 16.6767 5.43172 16.983C5.42217 17.2892 5.56675 17.5421 5.75465 17.548C5.94255 17.5538 6.1026 17.3103 6.11215 17.0041Z" fill="#69C0FF"/>
<path d="M5.76446 16.1134C5.90352 16.1032 6.0014 15.8916 5.98308 15.6405C5.96476 15.3894 5.83719 15.1941 5.69813 15.2041C5.55906 15.2142 5.46118 15.4259 5.4795 15.677C5.49781 15.928 5.6254 16.1234 5.76446 16.1134Z" fill="#69C0FF"/>
<path d="M4.80182 24.1524C5.11381 24.1149 5.31963 23.6944 5.26155 23.2131C5.20347 22.7318 4.90348 22.372 4.59149 22.4094C4.2795 22.4468 4.07368 22.8673 4.13176 23.3486C4.18984 23.83 4.48983 24.1898 4.80182 24.1524Z" fill="#69C0FF"/>
<path d="M5.59882 26.1981C5.91722 26.0834 6.02735 25.5819 5.84481 25.0777C5.66226 24.5737 5.25616 24.2579 4.93776 24.3725C4.61937 24.487 4.50923 24.9887 4.69178 25.4927C4.87433 25.9969 5.28042 26.3126 5.59882 26.1981Z" fill="#69C0FF"/>
<path d="M7.87559 27.5596C8.07393 27.2609 7.82859 26.7508 7.32767 26.4202C6.82674 26.0897 6.25988 26.0639 6.06156 26.3626C5.86323 26.6613 6.10855 27.1714 6.60948 27.502C7.11042 27.8326 7.67725 27.8584 7.87559 27.5596Z" fill="#69C0FF"/>
<path d="M10.4352 28.0792C10.4954 27.7338 10.0368 27.3658 9.41069 27.2573C8.78469 27.1489 8.2284 27.341 8.16815 27.6864C8.10797 28.0318 8.56661 28.3998 9.19262 28.5083C9.81862 28.6168 10.375 28.4247 10.4352 28.0792Z" fill="#69C0FF"/>
<path d="M12.0899 28.2425C12.6548 28.0449 13.0235 27.6312 12.9134 27.3187C12.8034 27.0061 12.2562 26.9129 11.6914 27.1106C11.1265 27.3083 10.7579 27.7218 10.8679 28.0344C10.9779 28.3469 11.5251 28.4401 12.0899 28.2425Z" fill="#69C0FF"/>
<path d="M14.2722 26.8035C14.687 26.4476 14.8876 26.0018 14.7201 25.8079C14.5527 25.6139 14.0807 25.7453 13.6659 26.1012C13.251 26.4572 13.0505 26.9029 13.218 27.0969C13.3854 27.2908 13.8574 27.1594 14.2722 26.8035Z" fill="url(#paint27_linear_14384_93201)"/>
<path d="M4.08522 22.58C4.19139 22.136 4.04882 21.7218 3.76677 21.6547C3.48472 21.5877 3.16999 21.8933 3.06382 22.3373C2.95764 22.7812 3.10021 23.1955 3.38227 23.2625C3.66432 23.3296 3.97904 23.024 4.08522 22.58Z" fill="#69C0FF"/>
<path d="M4.09785 20.694C4.22377 20.3614 4.24955 20.0631 4.15545 20.0278C4.06135 19.9923 3.88299 20.2332 3.75708 20.5657C3.63116 20.8983 3.60537 21.1966 3.69948 21.232C3.79358 21.2675 3.97194 21.0265 4.09785 20.694Z" fill="#69C0FF"/>
<path d="M4.71592 19.297C4.8528 19.0173 4.88645 18.753 4.79107 18.7066C4.69569 18.6602 4.50739 18.8493 4.3705 19.129C4.23362 19.4086 4.19997 19.673 4.29535 19.7194C4.39073 19.7658 4.57903 19.5767 4.71592 19.297Z" fill="#69C0FF"/>
<path d="M3.75745 25.3101C4.07865 25.2739 4.29243 24.8334 4.23492 24.3263C4.17741 23.8192 3.8704 23.4374 3.54919 23.4736C3.22799 23.5098 3.01422 23.9502 3.07173 24.4574C3.12924 24.9645 3.43624 25.3463 3.75745 25.3101Z" fill="#69C0FF"/>
<path d="M4.61346 27.4532C4.95096 27.3283 5.06523 26.7991 4.86869 26.2715C4.67214 25.7437 4.23921 25.4172 3.90171 25.5422C3.56421 25.6671 3.44993 26.1962 3.64648 26.7238C3.84302 27.2516 4.27596 27.5781 4.61346 27.4532Z" fill="#69C0FF"/>
<path d="M6.70321 29.1187C6.99132 28.8241 6.86167 28.2323 6.41364 27.7969C5.9656 27.3614 5.36884 27.2473 5.08073 27.5419C4.79263 27.8366 4.92228 28.4284 5.37031 28.8639C5.81834 29.2993 6.4151 29.4134 6.70321 29.1187Z" fill="#69C0FF"/>
<path d="M9.50016 29.6326C9.59557 29.2401 9.15644 28.7972 8.51934 28.6432C7.88224 28.4893 7.28847 28.6828 7.19307 29.0753C7.09768 29.4678 7.5368 29.9108 8.1739 30.0646C8.811 30.2185 9.40475 30.0251 9.50016 29.6326Z" fill="#69C0FF"/>
<path d="M11.2685 29.8671C11.8716 29.7493 12.3086 29.3892 12.2444 29.0628C12.1803 28.7363 11.6394 28.5672 11.0362 28.6849C10.4331 28.8027 9.9962 29.1627 10.0602 29.4891C10.1244 29.8156 10.6653 29.9848 11.2685 29.8671Z" fill="#69C0FF"/>
<path d="M13.9405 28.5691C14.4487 28.2113 14.7401 27.7508 14.5912 27.5407C14.4424 27.3306 13.9097 27.4503 13.4014 27.8082C12.8931 28.166 12.6018 28.6264 12.7506 28.8366C12.8995 29.0467 13.4322 28.927 13.9405 28.5691Z" fill="url(#paint28_linear_14384_93201)"/>
<path d="M19.2715 25.6543C18.7037 25.5253 18.2001 25.6694 18.1448 25.9762C18.0896 26.2829 18.5053 26.6348 19.073 26.7638C19.6407 26.8927 20.1444 26.7487 20.1996 26.442C20.2549 26.1352 19.8392 25.7833 19.2715 25.6543Z" fill="url(#paint29_linear_14384_93201)"/>
<path d="M17.2417 24.7227C16.8235 24.3571 16.3323 24.2381 16.1426 24.456C15.953 24.6739 16.1402 25.1485 16.5572 25.5129C16.9754 25.8785 17.4665 25.9974 17.6549 25.7796C17.8433 25.5617 17.6574 25.0871 17.2404 24.7227H17.2417Z" fill="url(#paint30_linear_14384_93201)"/>
<path d="M17.6532 26.5947C17.1496 26.3243 16.6359 26.3142 16.504 26.5722C16.3721 26.8302 16.6723 27.2572 17.1759 27.5277C17.6783 27.7981 18.1933 27.8082 18.3251 27.5502C18.457 27.2922 18.1569 26.8652 17.6532 26.5947Z" fill="url(#paint31_linear_14384_93201)"/>
<path d="M22.4216 25.9775L21.3866 27.167C21.1028 27.132 20.8629 26.9842 20.7875 26.7738C20.6657 26.4358 20.9822 26.0351 21.4921 25.8773C21.8488 25.7671 22.1968 25.8272 22.4216 25.9762V25.9775Z" fill="url(#paint32_linear_14384_93201)"/>
<path d="M20.1617 28.5705C20.0775 28.5705 19.9909 28.5655 19.9029 28.553C19.3089 28.4691 18.8579 28.1135 18.8956 27.7579C18.9333 27.4023 19.4458 27.1831 20.0398 27.267C20.4166 27.3196 20.7344 27.4824 20.909 27.684L20.1629 28.5705H20.1617Z" fill="url(#paint33_linear_14384_93201)"/>
</g>
<defs>
<linearGradient id="paint0_linear_14384_93201" x1="0.386963" y1="15.2275" x2="31.443" y2="15.2275" gradientUnits="userSpaceOnUse">
<stop stop-color="#0050B3"/>
<stop offset="0.28" stop-color="#003A8C"/>
<stop offset="0.77" stop-color="#003A8C"/>
<stop offset="1" stop-color="#0050B3"/>
</linearGradient>
<linearGradient id="paint1_linear_14384_93201" x1="25.3618" y1="23.741" x2="26.3462" y2="21.0018" gradientUnits="userSpaceOnUse">
<stop offset="0.13" stop-color="#002766"/>
<stop offset="1" stop-color="#0147A3"/>
</linearGradient>
<linearGradient id="paint2_linear_14384_93201" x1="11.1388" y1="18.552" x2="9.31051" y2="19.3487" gradientUnits="userSpaceOnUse">
<stop stop-color="#002766"/>
<stop offset="1" stop-color="#003A8C"/>
</linearGradient>
<linearGradient id="paint3_linear_14384_93201" x1="5.78546" y1="21.4908" x2="8.33122" y2="21.2514" gradientUnits="userSpaceOnUse">
<stop stop-color="#002766"/>
<stop offset="1" stop-color="#013C90"/>
</linearGradient>
<linearGradient id="paint4_linear_14384_93201" x1="20.5647" y1="17.3399" x2="22.3945" y2="17.5804" gradientUnits="userSpaceOnUse">
<stop stop-color="#002766"/>
<stop offset="1" stop-color="#003A8C"/>
</linearGradient>
<linearGradient id="paint5_linear_14384_93201" x1="-4.66829" y1="26.0301" x2="-3.37485" y2="27.5911" gradientUnits="userSpaceOnUse">
<stop stop-color="#1890FF"/>
<stop offset="1" stop-color="#0050B3"/>
</linearGradient>
<linearGradient id="paint6_linear_14384_93201" x1="11.5392" y1="31.9546" x2="13.575" y2="31.3035" gradientUnits="userSpaceOnUse">
<stop stop-color="#0050B3"/>
<stop offset="1" stop-color="#188FFF"/>
</linearGradient>
<linearGradient id="paint7_linear_14384_93201" x1="5.18744" y1="15.3694" x2="6.40504" y2="14.6946" gradientUnits="userSpaceOnUse">
<stop stop-color="#1890FF"/>
<stop offset="1" stop-color="#0050B3"/>
</linearGradient>
<linearGradient id="paint8_linear_14384_93201" x1="-5.85059" y1="27.9363" x2="-4.38372" y2="29.8236" gradientUnits="userSpaceOnUse">
<stop stop-color="#1890FF"/>
<stop offset="1" stop-color="#096DD9"/>
</linearGradient>
<linearGradient id="paint9_linear_14384_93201" x1="26.8664" y1="22.534" x2="25.9117" y2="23.4209" gradientUnits="userSpaceOnUse">
<stop stop-color="#1890FF"/>
<stop offset="1" stop-color="#0050B3"/>
</linearGradient>
<linearGradient id="paint10_linear_14384_93201" x1="15.7201" y1="1.14282" x2="15.7201" y2="17.3285" gradientUnits="userSpaceOnUse">
<stop stop-color="#003A8C"/>
<stop offset="1" stop-color="#1890FF"/>
</linearGradient>
<linearGradient id="paint11_linear_14384_93201" x1="15.5427" y1="5.69344" x2="13.4451" y2="0.254663" gradientUnits="userSpaceOnUse">
<stop stop-color="#003A8C"/>
<stop offset="1" stop-color="#0050B3"/>
</linearGradient>
<linearGradient id="paint12_linear_14384_93201" x1="23.1664" y1="14.3384" x2="22.1347" y2="13.2646" gradientUnits="userSpaceOnUse">
<stop stop-color="#1890FF"/>
<stop offset="1" stop-color="#096DD9"/>
</linearGradient>
<linearGradient id="paint13_linear_14384_93201" x1="7.79618" y1="15.4014" x2="10.3388" y2="14.0865" gradientUnits="userSpaceOnUse">
<stop stop-color="#1890FF"/>
<stop offset="1" stop-color="#096DD9"/>
</linearGradient>
<linearGradient id="paint14_linear_14384_93201" x1="15.3261" y1="3.0474" x2="15.3261" y2="13.0836" gradientUnits="userSpaceOnUse">
<stop stop-color="#1890FF"/>
<stop offset="1" stop-color="#003A8C"/>
</linearGradient>
<linearGradient id="paint15_linear_14384_93201" x1="15.0318" y1="7.41115" x2="15.0318" y2="13.4804" gradientUnits="userSpaceOnUse">
<stop offset="0.16" stop-color="#002966"/>
<stop offset="1" stop-color="#013B8D"/>
</linearGradient>
<linearGradient id="paint16_linear_14384_93201" x1="11.9123" y1="17.5327" x2="7.43266" y2="23.2184" gradientUnits="userSpaceOnUse">
<stop stop-color="#003A8C"/>
<stop offset="1" stop-color="#1890FF"/>
</linearGradient>
<linearGradient id="paint17_linear_14384_93201" x1="16.3264" y1="19.8555" x2="22.2256" y2="26.1393" gradientUnits="userSpaceOnUse">
<stop stop-color="#003A8C"/>
<stop offset="1" stop-color="#1890FF"/>
</linearGradient>
<linearGradient id="paint18_linear_14384_93201" x1="23.4016" y1="27.5953" x2="25.3365" y2="33.3126" gradientUnits="userSpaceOnUse">
<stop stop-color="#1890FF"/>
<stop offset="1" stop-color="#0050B3"/>
</linearGradient>
<linearGradient id="paint19_linear_14384_93201" x1="15.3141" y1="6.53852" x2="15.3141" y2="11.9342" gradientUnits="userSpaceOnUse">
<stop stop-color="#003A8C"/>
<stop offset="1" stop-color="#0050B3"/>
</linearGradient>
<linearGradient id="paint20_linear_14384_93201" x1="18.2364" y1="9.19318" x2="26.2139" y2="2.30716" gradientUnits="userSpaceOnUse">
<stop stop-color="#01439B"/>
<stop offset="1" stop-color="#0050B3"/>
</linearGradient>
<linearGradient id="paint21_linear_14384_93201" x1="14.0349" y1="8.78499" x2="1.48498" y2="9.27" gradientUnits="userSpaceOnUse">
<stop stop-color="#014199"/>
<stop offset="0.73" stop-color="#0050B3"/>
</linearGradient>
<linearGradient id="paint22_linear_14384_93201" x1="8.31603" y1="10.1561" x2="14.3642" y2="9.27816" gradientUnits="userSpaceOnUse">
<stop stop-color="#096DD9"/>
<stop offset="1" stop-color="#0147A4"/>
</linearGradient>
<linearGradient id="paint23_linear_14384_93201" x1="23.798" y1="9.43722" x2="16.6353" y2="8.91817" gradientUnits="userSpaceOnUse">
<stop stop-color="#096DD9"/>
<stop offset="1" stop-color="#01459F"/>
</linearGradient>
<linearGradient id="paint24_linear_14384_93201" x1="24.7069" y1="26.2703" x2="4.9727" y2="24.1161" gradientUnits="userSpaceOnUse">
<stop stop-color="#1890FF"/>
<stop offset="0.46" stop-color="#003A8C"/>
<stop offset="1" stop-color="#1890FF"/>
</linearGradient>
<linearGradient id="paint25_linear_14384_93201" x1="14.6376" y1="24.1216" x2="17.3832" y2="24.2803" gradientUnits="userSpaceOnUse">
<stop offset="0.09" stop-color="#034399"/>
<stop offset="0.47" stop-color="#002766"/>
<stop offset="1" stop-color="#054BA2"/>
</linearGradient>
<linearGradient id="paint26_linear_14384_93201" x1="22.0586" y1="26.7512" x2="20.5875" y2="25.9146" gradientUnits="userSpaceOnUse">
<stop stop-color="#0050B3"/>
<stop offset="1" stop-color="#0E6ACC"/>
</linearGradient>
<linearGradient id="paint27_linear_14384_93201" x1="11.9566" y1="24.7134" x2="14.6635" y2="22.1437" gradientUnits="userSpaceOnUse">
<stop stop-color="#69C0FF"/>
<stop offset="1" stop-color="#096DD9"/>
</linearGradient>
<linearGradient id="paint28_linear_14384_93201" x1="11.4836" y1="23.4684" x2="13.6513" y2="21.9279" gradientUnits="userSpaceOnUse">
<stop stop-color="#69C0FF"/>
<stop offset="1" stop-color="#096DD9"/>
</linearGradient>
<linearGradient id="paint29_linear_14384_93201" x1="16.2721" y1="23.994" x2="21.1958" y2="27.7763" gradientUnits="userSpaceOnUse">
<stop stop-color="#096DD9"/>
<stop offset="0.41" stop-color="#69C0FF"/>
<stop offset="0.72" stop-color="#69C0FF"/>
<stop offset="1" stop-color="#096DD9"/>
</linearGradient>
<linearGradient id="paint30_linear_14384_93201" x1="15.9605" y1="24.3997" x2="20.883" y2="28.1833" gradientUnits="userSpaceOnUse">
<stop stop-color="#096DD9"/>
<stop offset="0.41" stop-color="#69C0FF"/>
<stop offset="0.72" stop-color="#69C0FF"/>
<stop offset="1" stop-color="#096DD9"/>
</linearGradient>
<linearGradient id="paint31_linear_14384_93201" x1="15.2103" y1="25.3764" x2="20.1327" y2="29.16" gradientUnits="userSpaceOnUse">
<stop stop-color="#096DD9"/>
<stop offset="0.41" stop-color="#69C0FF"/>
<stop offset="0.72" stop-color="#69C0FF"/>
<stop offset="1" stop-color="#096DD9"/>
</linearGradient>
<linearGradient id="paint32_linear_14384_93201" x1="17.0672" y1="22.9572" x2="21.9909" y2="26.7408" gradientUnits="userSpaceOnUse">
<stop stop-color="#096DD9"/>
<stop offset="0.41" stop-color="#69C0FF"/>
<stop offset="0.72" stop-color="#69C0FF"/>
<stop offset="1" stop-color="#096DD9"/>
</linearGradient>
<linearGradient id="paint33_linear_14384_93201" x1="15.743" y1="24.68" x2="20.6655" y2="28.4636" gradientUnits="userSpaceOnUse">
<stop stop-color="#096DD9"/>
<stop offset="0.41" stop-color="#69C0FF"/>
<stop offset="0.72" stop-color="#69C0FF"/>
<stop offset="1" stop-color="#096DD9"/>
</linearGradient>
<clipPath id="clip0_14384_93201">
<rect width="32" height="32" fill="white"/>
</clipPath>
</defs>
</svg>
