<svg width="32" height="32" viewBox="0 0 32 32" fill="none" xmlns="http://www.w3.org/2000/svg">
<path d="M32 15.9994C32 11.7561 30.3151 7.68657 27.3159 4.68611C24.3167 1.68565 20.2489 6.83034e-06 16.0074 6.83034e-06C11.9803 -0.00371367 8.10011 1.51261 5.14179 4.24609C2.18347 6.97958 0.364863 10.729 0.0492278 14.7454C-0.266407 18.7617 0.94417 22.7494 3.43915 25.9118C5.93412 29.0742 9.52982 31.1785 13.508 31.8044V20.6232H9.45043V15.9994H13.5103V12.4749C13.5103 8.46595 15.8977 6.2489 19.5509 6.2489C21.3009 6.2489 23.131 6.56203 23.131 6.56203V10.5002H21.1136C19.126 10.5002 18.5091 11.7344 18.5091 12.9983V15.9994H22.9436L22.2354 20.6232H18.5068V31.8044C22.2685 31.2085 25.6942 29.2893 28.1677 26.392C30.6412 23.4947 32.0001 19.8095 32 15.9994Z" fill="#1877F2"/>
<path d="M22.233 20.6231L22.9413 15.9993H18.5068V12.9983C18.5068 11.7344 19.1236 10.5001 21.1113 10.5001H23.1286V6.55971C23.1286 6.55971 21.2986 6.24658 19.5486 6.24658C15.8931 6.24658 13.5079 8.46363 13.5079 12.4726V15.9993H9.45038V20.6231H13.5102V31.8044C15.1663 32.0651 16.853 32.0651 18.509 31.8044V20.6231H22.233Z" fill="white"/>
</svg>
