<svg width="32" height="32" viewBox="0 0 32 32" fill="none" xmlns="http://www.w3.org/2000/svg">
<circle cx="16" cy="16" r="16" fill="white"/>
<path fill-rule="evenodd" clip-rule="evenodd" d="M16 32C24.8367 32 32 24.8365 32 16C32 7.16342 24.8367 0 16 0C7.16346 0 0 7.16342 0 16C0 24.8365 7.16346 32 16 32ZM9.25002 17.3333L16 29.3332L28.0001 7.99998H4.00001L7.75002 14.6666H12.9441C13.4584 13.4894 14.6331 12.6666 16 12.6666C17.841 12.6666 19.3334 14.159 19.3334 16C19.3334 17.8409 17.841 19.3333 16 19.3333C14.6331 19.3333 13.4584 18.5105 12.9441 17.3333H9.25002Z" fill="#106ED7"/>
</svg>
