<svg width="32" height="32" viewBox="0 0 32 32" fill="none" xmlns="http://www.w3.org/2000/svg">
<g clip-path="url(#clip0_14991_14620)">
<path d="M4.14577 12.3889C1.89022 12.3889 0.0106812 13.3458 0.0106812 16.2328C0.0106812 18.5199 1.27454 19.9602 4.20401 19.9602C7.65213 19.9602 7.87317 17.6888 7.87317 17.6888H6.20239C6.20239 17.6888 5.84416 18.9119 4.10209 18.9119C2.68322 18.9119 1.66271 17.9534 1.66271 16.6099H8.04789V15.7669C8.04789 14.4378 7.20415 12.3889 4.14577 12.3889ZM4.08753 13.4664C5.43815 13.4664 6.35891 14.2938 6.35891 15.5339H1.69966C1.69966 14.2174 2.9015 13.4664 4.08753 13.4664Z" fill="#E53238"/>
<path d="M8.04668 9.59326V18.5103C8.04668 19.0164 8.01056 19.7271 8.01056 19.7271H9.60413C9.60413 19.7271 9.66133 19.2167 9.66133 18.7502C9.66133 18.7502 10.4487 19.9819 12.5895 19.9819C14.8438 19.9819 16.3751 18.4168 16.3751 16.1745C16.3751 14.0884 14.9686 12.4107 12.5931 12.4107C10.3686 12.4107 9.67742 13.6119 9.67742 13.6119V9.59326H8.04668ZM12.1818 13.5136C13.7127 13.5136 14.6861 14.6498 14.6861 16.1745C14.6861 17.8094 13.5618 18.879 12.1927 18.879C10.5588 18.879 9.67742 17.6033 9.67742 16.189C9.67742 14.8712 10.4683 13.5136 12.1818 13.5136Z" fill="#0064D2"/>
<path d="M20.3355 12.3889C16.9422 12.3889 16.7245 14.2469 16.7245 14.5438H18.4135C18.4135 14.5438 18.5021 13.4591 20.219 13.4591C21.3346 13.4591 22.1992 13.9697 22.1992 14.9515V15.301H20.219C17.5902 15.301 16.2004 16.07 16.2004 17.6306C16.2004 19.1664 17.4845 20.0021 19.2198 20.0021C21.5848 20.0021 22.3466 18.6953 22.3466 18.6953C22.3466 19.2151 22.3867 19.7272 22.3867 19.7272H23.8881C23.8881 19.7272 23.8299 19.0924 23.8299 18.6862V15.1754C23.8299 12.8734 21.9731 12.3889 20.3355 12.3889ZM22.1992 16.3493V16.8152C22.1992 17.4229 21.8242 18.9337 19.6166 18.9337C18.4077 18.9337 17.8894 18.3304 17.8894 17.6306C17.8894 16.3575 19.6348 16.3493 22.1992 16.3493Z" fill="#F5AF02"/>
<path d="M22.9205 12.6804H24.8206L27.5475 18.1436L30.2682 12.6804H31.9894L27.0337 22.4066H25.2283L26.6583 19.6953L22.9205 12.6804Z" fill="#86B817"/>
</g>
<defs>
<clipPath id="clip0_14991_14620">
<rect width="32" height="12.8346" fill="white" transform="translate(0 9.58264)"/>
</clipPath>
</defs>
</svg>
