<svg width="32" height="32" viewBox="0 0 32 32" fill="none" xmlns="http://www.w3.org/2000/svg">
<g clip-path="url(#clip0_18201_28185)">
<rect x="0.0435181" width="32" height="32" rx="8" fill="#F7931E"/>
<path d="M16.1449 4C12.7055 4 9.91748 6.78814 9.91748 10.2274C9.91748 13.6667 12.7055 16.455 16.1449 16.455C19.5842 16.455 22.3722 13.6667 22.3722 10.2274C22.3722 6.78814 19.5842 4 16.1449 4ZM16.1449 12.8018C14.7232 12.8018 13.5706 11.6492 13.5706 10.2275C13.5706 8.80577 14.7232 7.65321 16.1449 7.65321C17.5666 7.65321 18.7191 8.80577 18.7191 10.2275C18.7191 11.6492 17.5666 12.8018 16.1449 12.8018Z" fill="white"/>
<path d="M18.3434 21.4102C20.8365 20.9023 22.3305 19.7216 22.4095 19.6583C23.139 19.0732 23.2562 18.0075 22.6712 17.2779C22.0862 16.5484 21.0206 16.4312 20.2909 17.0162C20.2755 17.0287 18.6821 18.251 16.0603 18.2528C13.4386 18.251 11.8115 17.0287 11.7961 17.0162C11.0664 16.4312 10.0008 16.5484 9.41586 17.2779C8.8308 18.0075 8.94799 19.0732 9.67751 19.6583C9.75763 19.7225 11.3133 20.9339 13.8762 21.4298L10.3043 25.1628C9.65514 25.836 9.67466 26.9079 10.3479 27.5571C10.6764 27.8739 11.0999 28.0313 11.5231 28.0313C11.9667 28.0313 12.4099 27.858 12.7421 27.5134L16.0604 23.9785L19.7139 27.5363C20.3759 28.1972 21.4478 28.1961 22.1085 27.5344C22.7692 26.8726 22.7684 25.8005 22.1066 25.1398L18.3434 21.4102Z" fill="white"/>
<path d="M16.0607 18.2527C16.0551 18.2527 16.0662 18.2528 16.0607 18.2529C16.0552 18.2528 16.0663 18.2527 16.0607 18.2527Z" fill="white"/>
</g>
<defs>
<clipPath id="clip0_18201_28185">
<rect width="32" height="32" fill="white"/>
</clipPath>
</defs>
</svg>
