<svg width="32" height="32" viewBox="0 0 32 32" fill="none" xmlns="http://www.w3.org/2000/svg">
<path d="M32.0002 16C32.0002 24.8365 24.8367 32 16.0002 32C7.16372 32 0.000244141 24.8365 0.000244141 16C0.000244141 7.16338 7.16372 2.86796e-05 16.0002 2.86796e-05C24.8367 2.86796e-05 32.0002 7.16338 32.0002 16Z" fill="white"/>
<path d="M16 2.86796e-05C7.16348 2.86796e-05 0 7.16351 0 16C0 22.7784 4.21732 28.573 10.1692 30.9043C10.0294 29.6384 9.90293 27.6915 10.2247 26.3095C10.5154 25.0608 12.1008 18.3565 12.1008 18.3565C12.1008 18.3565 11.6223 17.398 11.6223 15.981C11.6223 13.7562 12.9118 12.0952 14.5174 12.0952C15.8825 12.0952 16.5418 13.1201 16.5418 14.349C16.5418 15.7218 15.6678 17.7743 15.2167 19.6763C14.8398 21.2688 16.0153 22.5675 17.5861 22.5675C20.4298 22.5675 22.6158 19.569 22.6158 15.2408C22.6158 11.4098 19.8631 8.73135 15.9324 8.73135C11.3799 8.73135 8.70771 12.146 8.70771 15.6749C8.70771 17.05 9.23745 18.5246 9.89848 19.3263C10.0292 19.4847 10.0484 19.6235 10.0094 19.7852C9.88798 20.2905 9.61807 21.3773 9.56508 21.5997C9.4953 21.8926 9.33319 21.9548 9.02996 21.8136C7.03167 20.8835 5.78228 17.9618 5.78228 15.6152C5.78228 10.5681 9.4494 5.93287 16.3541 5.93287C21.9045 5.93287 26.2178 9.88801 26.2178 15.1737C26.2178 20.6879 22.741 25.1257 17.9153 25.1257C16.2939 25.1257 14.7697 24.2834 14.248 23.2885C14.248 23.2885 13.4457 26.3434 13.2512 27.092C12.89 28.4817 11.9149 30.2238 11.2626 31.2865C12.7596 31.75 14.3506 32 16 32C24.8366 32 32.0001 24.8365 32.0001 16C32.0001 7.16351 24.8366 2.86796e-05 16 2.86796e-05Z" fill="#E60023"/>
</svg>
