<svg width="32" height="32" viewBox="0 0 32 32" fill="none" xmlns="http://www.w3.org/2000/svg">
<g clip-path="url(#clip0_18388_11312)">
<path d="M-0.00317383 16C-0.00317383 24.8366 7.16027 32 15.9968 32C24.8334 32 31.9968 24.8366 31.9968 16C31.9968 7.16344 24.8334 0 15.9968 0C7.16027 0 -0.00317383 7.16344 -0.00317383 16Z" fill="white"/>
<g clip-path="url(#clip1_18388_11312)">
<mask id="mask0_18388_11312" style="mask-type:luminance" maskUnits="userSpaceOnUse" x="-1" y="11" width="34" height="10">
<path d="M-0.781799 11.7494H32.7774V20.7501H-0.781799V11.7494Z" fill="white"/>
</mask>
<g mask="url(#mask0_18388_11312)">
<path d="M29.0753 15.9764V16.589H29.5017V17.1968C29.503 17.2511 29.5001 17.3097 29.4908 17.3566C29.4739 17.4699 29.3672 17.663 29.0645 17.663C28.7637 17.663 28.6589 17.4699 28.6408 17.3566C28.6331 17.3097 28.6299 17.2511 28.6299 17.1968V15.2771C28.6299 15.2092 28.6344 15.1349 28.6487 15.0787C28.6694 14.9764 28.7592 14.7746 29.0623 14.7746C29.3805 14.7746 29.4599 14.9873 29.4782 15.0787C29.4901 15.1392 29.4908 15.2407 29.4908 15.2407V15.4738H30.5385V15.336C30.5385 15.336 30.5433 15.1922 30.5305 15.058C30.4518 14.2701 29.8088 14.0208 29.0715 14.0208C28.3329 14.0208 27.703 14.2724 27.6112 15.058C27.6029 15.1299 27.5903 15.2591 27.5903 15.336V17.1019C27.5903 17.1788 27.5927 17.2383 27.6068 17.3789C27.6752 18.1451 28.3329 18.4167 29.0686 18.4167C29.8088 18.4167 30.462 18.1451 30.5316 17.3789C30.5439 17.2383 30.5452 17.1788 30.5468 17.1019V15.9764H29.0753ZM21.8513 14.1338H20.7992V17.2411C20.8008 17.2952 20.7992 17.3561 20.7899 17.4007C20.768 17.505 20.6804 17.7057 20.3901 17.7057C20.1036 17.7057 20.0138 17.505 19.9935 17.4007C19.9829 17.3561 19.9816 17.2952 19.9829 17.2411V14.1338H18.9311V17.1446C18.9298 17.2223 18.9358 17.3808 18.9404 17.4224C19.013 18.2069 19.6254 18.4617 20.3901 18.4617C21.1564 18.4617 21.7684 18.2069 21.8424 17.4224C21.8482 17.3808 21.8558 17.2223 21.8513 17.1446V14.1338ZM12.1842 14.1338L11.6594 17.4171L11.1349 14.1338H9.43775L9.34774 18.334H10.3875L10.4156 14.4458L11.131 18.334H12.1859L12.9019 14.4458L12.9302 18.334H13.9725L13.8795 14.1338H12.1842ZM5.90062 14.1338L5.13001 18.334H6.25376L6.83447 14.4458L7.40124 18.334H8.51719L7.74979 14.1338H5.90062ZM25.5283 17.5155L24.5486 14.1338H23.0048V18.2903H24.026L23.9668 14.8004L25.0189 18.2903H26.4995V14.1338H25.4715L25.5283 17.5155ZM16.0819 15.2269C16.0634 15.144 16.0688 15.0559 16.0784 15.0098C16.1081 14.8753 16.1976 14.7287 16.4554 14.7287C16.6957 14.7287 16.8365 14.8799 16.8365 15.1069V15.3637H17.8621V15.071C17.8621 14.166 17.0585 14.0238 16.4767 14.0238C15.7439 14.0238 15.1455 14.2677 15.0362 14.9486C15.0073 15.134 15.0001 15.2985 15.0461 15.5084C15.2243 16.3574 16.6883 16.6037 16.9008 17.1407C16.9383 17.2424 16.9276 17.3721 16.9085 17.4486C16.8766 17.5883 16.7835 17.7289 16.5075 17.7289C16.2487 17.7289 16.0928 17.5786 16.0928 17.3521L16.0925 16.949H14.9886V17.2695C14.9886 18.1979 15.7089 18.478 16.4847 18.478C17.2276 18.478 17.8413 18.2217 17.9398 17.5268C17.9867 17.1678 17.9513 16.9339 17.9324 16.8459C17.7604 15.975 16.2 15.713 16.0819 15.2269ZM2.55259 15.2166C2.53245 15.132 2.53715 15.0426 2.54837 14.996C2.57679 14.8622 2.6668 14.7129 2.92913 14.7129C3.17245 14.7129 3.31572 14.8656 3.31572 15.0944V15.3544H4.35337V15.0593C4.35337 14.1456 3.53746 14 2.94927 14C2.21034 14 1.60656 14.2477 1.49609 14.9335C1.46586 15.1218 1.46067 15.2874 1.50437 15.4997C1.68449 16.3584 3.163 16.6067 3.37811 17.1501C3.41839 17.2511 3.40621 17.3808 3.38623 17.4602C3.3521 17.6014 3.25824 17.744 2.97993 17.744C2.72006 17.744 2.56461 17.5911 2.56461 17.3615L2.56317 16.9573H1.44684V17.2785C1.44684 18.2176 2.17733 18.5 2.95915 18.5C3.7108 18.5 4.32804 18.2414 4.42874 17.5385C4.47879 17.1761 4.44124 16.9403 4.42436 16.8509C4.24877 15.9694 2.67102 15.7083 2.55259 15.2166Z" fill="#1428A0"/>
</g>
</g>
</g>
<defs>
<clipPath id="clip0_18388_11312">
<rect width="32" height="32" fill="white"/>
</clipPath>
<clipPath id="clip1_18388_11312">
<rect width="29.1" height="4.5" fill="white" transform="translate(1.44684 14)"/>
</clipPath>
</defs>
</svg>
