<svg width="32" height="32" viewBox="0 0 32 32" fill="none" xmlns="http://www.w3.org/2000/svg">
<mask id="mask0_16171_115848" style="mask-type:luminance" maskUnits="userSpaceOnUse" x="1" y="1" width="30" height="30">
<path d="M30.8435 1.13281H1.21088V30.7654H30.8435V1.13281Z" fill="white"/>
</mask>
<g mask="url(#mask0_16171_115848)">
<mask id="mask1_16171_115848" style="mask-type:luminance" maskUnits="userSpaceOnUse" x="1" y="0" width="30" height="32">
<path d="M30.496 0.644531H1.5584V31.2525H30.496V0.644531Z" fill="white"/>
</mask>
<g mask="url(#mask1_16171_115848)">
<path d="M14.3258 29.511C12.8864 29.5206 11.447 29.5642 10.0346 29.184C7.06687 28.3853 4.84992 26.5907 3.20576 24.0448C2.08576 22.3104 1.58784 20.3846 1.57312 18.3328C1.55776 16.1472 1.55136 13.961 1.57184 11.7754C1.60128 8.61248 2.88256 6 5.13472 3.8272C6.73856 2.27968 8.60736 1.23456 10.8141 0.829439C11.44 0.713599 12.0755 0.653439 12.7123 0.650879C14.928 0.644479 17.143 0.644479 19.3587 0.650239C22.304 0.659199 24.8467 1.67744 26.9882 3.70368C28.951 5.55904 30.1261 7.80608 30.4262 10.4966C30.471 10.9056 30.4928 11.3171 30.4928 11.7286C30.4986 14.4435 30.4992 17.159 30.4954 19.8739C30.4947 21.7216 29.1315 23.0886 27.2806 23.0925C25.1142 23.097 22.9478 23.0912 20.7814 23.0963C20.4672 23.097 20.1613 22.9971 19.8451 23.0355C19.4784 22.7962 19.1136 22.5542 18.745 22.3187C18.64 22.2515 18.5114 22.2182 18.457 22.089C18.1171 21.4528 17.817 20.8006 17.7062 20.0723C17.5795 20.4883 17.4989 20.9101 17.2813 21.2851C16.6355 20.8269 16.0218 20.3258 15.4426 19.7856C15.4944 19.7626 15.545 19.7363 15.5981 19.7165C16.6957 19.3069 17.3734 18.5229 17.6211 17.3869C17.7683 16.7117 17.6755 16.0205 17.6755 15.3363C18.0864 14.3878 18.5248 13.4522 19.0253 12.5466C19.1226 12.3654 19.2454 12.199 19.3907 12.0538C19.7837 11.6704 20.2778 11.7114 20.5939 12.16C20.7258 12.3533 20.8307 12.5638 20.905 12.7853C20.8358 12.832 20.848 12.9043 20.848 12.9715C20.8493 14.7546 20.8384 16.5376 20.857 18.3206C20.8678 19.4054 21.3933 19.8995 22.4896 19.9066C23.5379 19.9136 24.5862 19.9117 25.6346 19.9085C26.7162 19.9053 27.2595 19.3664 27.2666 18.2797C27.273 17.2902 27.2666 16.3008 27.2659 15.3114C27.8298 15.0176 28.441 14.8243 29.0707 14.7411C29.209 14.7238 29.3158 14.6963 29.36 14.5466C29.4381 14.2822 29.44 14.0269 29.2928 13.783C29.0906 13.4502 28.7827 13.3914 28.4608 13.6115C28.1018 13.8566 27.7139 14.0358 27.2755 14.087L27.2595 12.3872C27.3203 12.265 27.4483 12.2221 27.5488 12.1478C27.831 11.9398 27.8816 11.6576 27.6864 11.3619C27.5712 11.1872 27.3978 11.1085 27.2077 11.0528C27.145 10.0282 26.8275 9.07904 26.3552 8.176C25.9194 7.34336 25.3152 6.63872 24.6669 5.96864C24.9395 4.99456 24.6176 4.49408 23.607 4.32512C23.4925 4.30144 23.3766 4.28416 23.2602 4.27328C22.4467 4.22848 21.7254 3.99168 21.2102 3.31072C21.1661 3.25824 21.1174 3.2096 21.065 3.16608C20.7885 2.90816 20.4698 2.82816 20.0922 2.8832C19.4842 2.97216 19.136 3.36384 18.8627 3.86112L13.4496 3.85152C13.433 3.6 13.4906 3.3504 13.4522 3.09632C13.4086 2.80576 13.2365 2.68864 12.8902 2.7488C12.5651 2.80512 12.4448 2.97728 12.5274 3.27552C12.5786 3.46176 12.6368 3.64608 12.6918 3.83168L12.3085 3.86304C11.929 3.07648 11.5757 2.28416 11.6083 1.3792C11.6186 1.09824 11.3459 0.903039 11.0125 0.926719C10.6618 0.951679 10.336 1.23968 10.3763 1.49568C10.3885 1.55264 10.4147 1.60576 10.4518 1.64992C10.9395 2.27456 11.177 3.00864 11.3728 3.76C11.3926 3.83552 11.4675 3.94112 11.3728 4.00192C11.3248 4.0352 11.2678 4.05504 11.209 4.0576C11.1501 4.06016 11.0918 4.04672 11.0406 4.01792C10.8704 3.91872 10.7258 3.78176 10.617 3.61728C10.4282 3.34272 10.2464 3.06368 10.0627 2.78592C9.9296 2.56832 9.76896 2.36928 9.58528 2.192C9.50464 2.11136 9.40096 2.05888 9.28832 2.0416C9.17568 2.02432 9.06048 2.04416 8.96 2.09728C8.72832 2.20288 8.6304 2.39488 8.62848 2.63872C8.62656 2.98432 8.84288 3.26336 9.19616 3.376C9.27744 3.4016 9.39008 3.38304 9.41952 3.48608C9.52128 3.83808 9.80992 4.064 9.9968 4.35776C9.93408 4.45824 9.81952 4.47232 9.7248 4.51776C7.85856 5.41312 6.3584 6.68672 5.49632 8.61632C5.04192 9.63328 4.86272 10.7085 4.84032 11.8144C4.41856 11.5661 4.05248 11.2397 3.65504 10.9574C3.44512 10.8083 3.23584 10.8006 3.03232 10.953C2.81152 11.1181 2.75264 11.3472 2.82624 11.6058C2.89728 11.8573 3.02208 12.0531 3.3312 12.0397C4.00768 12.0102 4.45696 12.4019 4.85952 12.8762C4.85376 13.1283 4.848 13.3798 4.8416 13.632C4.58432 13.6128 4.35584 13.4944 4.11584 13.4157C3.83808 13.3248 3.56736 13.2096 3.26848 13.2019C2.92416 13.1936 2.76544 13.3389 2.74368 13.6806C2.71168 14.1722 2.78528 14.2771 3.1776 14.32C3.73952 14.3814 4.30336 14.4358 4.85504 14.5683C4.8544 15.8618 4.8544 17.1558 4.85376 18.4499C4.85888 19.2442 4.98752 20.0333 5.23456 20.7878C5.6512 22.089 6.43648 23.1488 7.39584 24.0986C8.65856 25.3491 10.1542 26.1024 11.9315 26.2797C12.8704 26.3738 13.8112 26.3078 14.7514 26.3258C15.4758 26.3398 16.2003 26.3405 16.9254 26.3475C16.9146 26.4269 16.8416 26.4512 16.7923 26.496C15.831 27.3875 14.8198 28.2374 14.3258 29.511Z" fill="#72B52D"/>
<path d="M12.6931 3.82979C12.6381 3.64483 12.5798 3.45987 12.5286 3.27363C12.4461 2.97539 12.5664 2.80323 12.8915 2.74691C13.2378 2.68675 13.4099 2.80451 13.4534 3.09443C13.4918 3.34851 13.4342 3.59811 13.4509 3.84963C13.3715 4.41027 13.232 4.96387 13.2659 5.53731C13.2973 6.07875 13.5046 6.49859 14.048 6.69507C14.2714 6.77187 14.4666 6.91459 14.6067 7.10467C14.6029 7.24995 14.7552 7.40355 14.5843 7.53987C14.409 7.68003 14.2349 7.61603 14.0608 7.53667C14.0077 7.51235 13.9578 7.47843 13.9027 7.45923C13.8285 7.43299 13.7453 7.41379 13.6762 7.46243C13.5859 7.52515 13.6538 7.60515 13.673 7.67491C13.7894 8.09539 14.096 8.36931 14.416 8.63235C14.5216 8.71939 14.5459 8.62979 14.5837 8.56195C14.8544 8.07491 15.1258 7.58787 15.3965 7.10083C15.5635 6.91011 15.7248 6.71299 15.8989 6.52931C16.3782 6.02243 17.001 5.72227 17.5898 5.37475C18.1939 5.01891 18.6355 4.52931 18.8627 3.85923C19.1354 3.36131 19.4842 2.97027 20.0922 2.88131C20.4698 2.82627 20.7885 2.90627 21.065 3.16419C21.1174 3.20835 21.1661 3.25699 21.2102 3.30883C21.7248 3.98979 22.4467 4.22595 23.2602 4.27139C23.3766 4.28227 23.4925 4.29955 23.607 4.32323C24.617 4.49219 24.9395 4.99267 24.6669 5.96675C24.489 6.22275 24.3245 6.48899 24.1306 6.73283C23.3107 7.76259 22.4141 8.71683 21.344 9.49507C21.2442 9.56739 21.1418 9.62435 21.1456 9.78755C21.1654 10.7296 21.3235 11.6384 21.8003 12.4634C22.2758 13.2864 22.9542 13.8036 23.9539 13.8036C24.1568 13.8036 24.2451 13.7447 24.2816 13.5348C24.3578 13.0996 24.2714 12.6765 24.2317 12.249C24.2202 12.1255 24.1632 11.9943 24.2483 11.8804C24.3686 11.7184 24.8256 11.6551 25.0483 11.7626C25.3082 11.8887 25.353 12.0903 25.2621 12.3488C25.2032 12.514 25.1546 12.6829 25.1162 12.8544C25.0662 13.0452 25.0726 13.2455 25.1341 13.433C25.1987 13.6141 25.2614 13.6576 25.4362 13.52C26.1005 12.9946 26.4333 12.2829 26.6272 11.4855C26.736 11.0381 26.7379 11.0375 27.2077 11.0516C27.3978 11.1072 27.5712 11.1866 27.6864 11.3607C27.881 11.6557 27.8304 11.9386 27.5488 12.1466C27.4483 12.2208 27.321 12.2637 27.2595 12.386C27.0944 12.48 27.0438 12.6535 26.9709 12.809C26.7693 13.2404 26.6925 13.7127 26.5152 14.1748C26.7866 14.1799 27.0349 14.1741 27.2749 14.0858C27.7133 14.0352 28.1011 13.856 28.4602 13.6109C28.7827 13.3908 29.0906 13.4496 29.2922 13.7824C29.44 14.0256 29.4374 14.281 29.3594 14.546C29.3152 14.6957 29.2083 14.7226 29.0701 14.7405C28.4397 14.8244 27.8291 15.0176 27.2653 15.3108C27.0406 15.4036 26.8141 15.4925 26.592 15.5904C25.9309 15.881 25.2634 16.1351 24.5402 16.2496C23.4566 16.4212 21.6678 15.488 21.3773 14.3482C21.2429 13.8208 21.063 13.3056 20.9037 12.7847C20.8294 12.5632 20.7245 12.3527 20.5926 12.1594C20.2765 11.7101 19.7824 11.6698 19.3888 12.0532C19.2435 12.1984 19.12 12.3648 19.0234 12.546C18.5229 13.4509 18.0845 14.3866 17.6736 15.3357C17.2096 16.3725 16.5037 17.2365 15.7357 18.057C15.5187 18.2829 15.3402 18.5428 15.207 18.8263C14.88 19.5463 14.8858 19.3306 15.4413 19.7856C16.0205 20.3258 16.6342 20.8269 17.28 21.2852C17.648 21.5879 18.0019 21.9117 18.4557 22.0896C18.5101 22.2189 18.6387 22.2522 18.7437 22.3194C19.1123 22.5556 19.4778 22.7968 19.8438 23.0362C20.0416 23.2224 20.2528 23.3965 20.4346 23.5975C20.9933 24.2164 21.0246 24.9901 20.5261 25.6589C20.3571 25.8868 20.1658 26.0967 19.9539 26.2848C19.8912 26.3444 19.8259 26.402 19.7664 26.4647C19.3414 26.912 18.8608 27.305 18.4685 27.7837C18.3885 27.881 18.2771 27.9872 18.3219 28.121C18.4416 28.5069 18.6835 28.8442 19.0112 29.0804C19.0426 29.1053 19.0822 29.1181 19.1219 29.1168C19.1622 29.1156 19.2006 29.1002 19.2301 29.0733C19.2922 29.017 19.255 28.9466 19.2365 28.882C19.175 28.6682 18.9888 28.562 18.8416 28.4205C18.7366 28.32 18.5939 28.2004 18.6682 28.0512C18.7123 27.9514 18.7814 27.8656 18.8691 27.801C18.9568 27.737 19.0598 27.6967 19.168 27.6845C19.3779 27.6634 19.4323 27.8221 19.4912 27.9655C19.5949 28.2183 19.6787 28.48 19.7888 28.7303C19.8995 28.9812 20.0922 29.0311 20.3469 28.9338C20.6387 28.8224 20.7456 28.6068 20.7437 28.3156C20.7418 28.0122 20.7226 27.7076 20.7366 27.4048C20.7501 27.1252 21.0035 26.8666 21.2154 26.9088C21.5002 26.9658 21.5264 27.1981 21.52 27.4349C21.5155 27.6109 21.4918 27.7876 21.4982 27.9629C21.5072 28.2247 21.6237 28.3111 21.881 28.2656C22.1843 28.2119 22.3507 28.0071 22.4563 27.7364C22.631 27.2877 22.6886 26.8084 22.8154 26.3476C22.9434 26.1581 23.0406 25.9405 23.2883 25.8682C23.6608 25.76 23.8861 25.8887 24.089 26.3309C24.0902 26.5972 24.0077 26.8564 23.8528 27.0727C23.6685 27.3485 23.4701 27.616 23.2742 27.8836C23.0259 28.2221 22.7533 28.5492 22.615 28.9517C22.5542 29.1296 22.407 29.3197 22.585 29.5175C22.6458 29.5764 22.7238 29.6154 22.8077 29.6282C23.2384 29.7255 23.6499 29.6404 24.0602 29.5207L24.1446 29.506C24.3667 29.4727 24.5894 29.4458 24.8096 29.4048C25.0176 29.3664 25.1514 29.4362 25.209 29.6404C25.2538 29.769 25.287 29.9008 25.3094 30.0352C25.3485 30.4058 25.2384 30.544 24.871 30.617C24.3674 30.7168 23.8573 30.7143 23.3504 30.6797C22.5197 30.6215 21.6864 30.7335 20.9005 31.0087C20.0627 31.2973 19.159 31.3344 18.3008 31.1168C17.3267 30.8832 16.3283 30.8468 15.3376 30.7437C15.1821 30.7277 15.0285 30.6989 14.8781 30.6586C14.3098 30.5063 14.1741 30.2695 14.3046 29.6864C14.3142 29.6288 14.3206 29.5712 14.3232 29.513C14.8179 28.24 15.8285 27.3895 16.791 26.4992C16.8397 26.4538 16.9133 26.4301 16.9242 26.3508C17.529 25.8727 18.0838 25.3344 18.5805 24.7444C18.6848 24.6215 18.6138 24.594 18.5043 24.5479C17.2909 24.0397 16.0794 23.5284 14.8685 23.0138C14.1722 22.6573 13.5181 22.2285 12.8422 21.8368C12.3846 21.5712 11.9142 21.3306 11.3984 21.1956C10.9018 21.065 10.4026 20.9991 9.89824 21.1629C9.80992 21.1495 9.71968 21.1693 9.64544 21.2192C9.44384 21.328 9.36704 21.2724 9.33184 21.0516C9.26528 20.633 9.09888 20.2471 8.89216 19.8778C8.53888 19.2468 8.18752 18.6144 7.83808 17.9815C7.25312 16.9165 6.6496 15.8669 5.7824 14.994C5.51808 14.7277 5.2256 14.5767 4.85376 14.5722C4.30208 14.4397 3.73888 14.3853 3.17632 14.3239C2.784 14.281 2.7104 14.176 2.7424 13.6845C2.7648 13.3428 2.92352 13.1975 3.2672 13.2058C3.56544 13.2128 3.8368 13.328 4.11456 13.4196C4.35456 13.4983 4.58304 13.616 4.84032 13.6359C5.05984 13.7344 5.28128 13.7402 5.54752 13.65C5.29984 13.3856 5.12128 13.0976 4.8576 12.88C4.45504 12.4058 4.00576 12.0141 3.32928 12.0436C3.02016 12.057 2.89536 11.8612 2.82432 11.6096C2.75136 11.3511 2.8096 11.122 3.0304 10.9568C3.23456 10.8045 3.4432 10.8116 3.65312 10.9613C4.05056 11.2442 4.41664 11.57 4.8384 11.8183C5.43616 12.313 6.06784 12.7668 6.72768 13.1757C6.75264 12.9748 6.66176 12.8474 6.57856 12.7175C6.47808 12.562 6.32704 12.4461 6.24448 12.2746C6.11456 12.0052 6.2848 11.8567 6.4608 11.7127C6.63552 11.57 6.7616 11.6768 6.88768 11.8023C7.13792 12.0525 7.25568 12.3738 7.37408 12.6932C7.56672 13.2128 7.71584 13.7498 7.98144 14.2407C8.08 14.3847 8.15296 14.5556 8.36288 14.6228C8.38976 14.3175 8.41408 14.0372 8.43968 13.7568C8.4736 13.385 8.53248 13.0202 8.7712 12.7136C9.024 12.3892 9.38944 12.2554 9.76896 12.2343C10.0282 12.2202 10.1453 12.5082 10.2957 12.6906C10.4122 12.8346 10.5171 12.9882 10.6086 13.1495C10.8128 13.5028 11.0067 13.8618 11.2045 14.2189C11.4528 14.8333 11.7773 15.4144 12.1715 15.9476C12.4166 14.2298 12.8838 12.6522 13.4202 11.0932C13.5558 10.6983 13.5539 10.6976 13.1488 10.5511C12.569 10.1485 12.2528 9.56355 12.0346 8.91587C11.9014 8.51971 11.7862 8.11715 11.6634 7.71779C11.5014 6.94659 11.2928 6.18883 10.9581 5.47331C10.7437 5.01507 10.3994 4.65923 9.99424 4.36035C9.808 4.06595 9.51935 3.84067 9.41759 3.48867C9.38751 3.38499 9.27552 3.40419 9.19424 3.37859C8.84032 3.26595 8.62463 2.98691 8.62655 2.64131C8.62783 2.39683 8.7264 2.20547 8.95808 2.09987C9.05856 2.04675 9.17376 2.02691 9.2864 2.04419C9.39904 2.06147 9.50336 2.11395 9.58336 2.19459C9.76704 2.37187 9.92768 2.57091 10.0608 2.78851C10.2445 3.06627 10.4262 3.34595 10.615 3.61987C10.7238 3.78435 10.8685 3.92131 11.0387 4.02051C11.0899 4.04931 11.1482 4.06275 11.207 4.06019C11.2659 4.05763 11.3222 4.03779 11.3709 4.00451C11.4656 3.94371 11.3907 3.83811 11.3709 3.76259C11.175 3.01123 10.9376 2.27715 10.4499 1.65251C10.4128 1.60771 10.3866 1.55459 10.3744 1.49827C10.3341 1.24227 10.6598 0.954271 11.0106 0.929311C11.344 0.905631 11.6166 1.10083 11.6064 1.38179C11.5731 2.28675 11.927 3.07907 12.3066 3.86563C12.3949 4.09219 12.4838 4.31875 12.5888 4.58883C12.7757 4.31299 12.8134 4.08131 12.6931 3.82979ZM17.7978 29.5066C17.8694 29.4996 17.9398 29.488 18.0096 29.4708C18.3104 29.385 18.3354 29.2852 18.1184 29.0522C18.0634 28.9901 17.9962 28.9402 17.9213 28.9044C17.8464 28.8685 17.7651 28.848 17.6819 28.8436C17.5994 28.8391 17.5162 28.8519 17.4381 28.88C17.36 28.9082 17.2883 28.9517 17.2269 29.0074C17.0234 29.1904 17.0406 29.289 17.2986 29.3978C17.4566 29.4669 17.6262 29.5034 17.7978 29.5066Z" fill="#010201"/>
<path d="M22.8173 26.3449C22.6906 26.8064 22.6323 27.2851 22.4582 27.7337C22.3526 28.0045 22.1862 28.2099 21.8829 28.263C21.625 28.3085 21.5091 28.2221 21.4995 27.9603C21.4931 27.7849 21.5174 27.6083 21.5213 27.4323C21.527 27.1961 21.5014 26.9632 21.2166 26.9062C21.0042 26.864 20.7507 27.1225 20.7379 27.4022C20.7238 27.7049 20.7424 28.0096 20.745 28.3129C20.7469 28.6041 20.64 28.8198 20.3482 28.9312C20.0934 29.0278 19.9002 28.9785 19.7901 28.7277C19.68 28.4774 19.5962 28.2163 19.4925 27.9629C19.4336 27.8195 19.3792 27.6608 19.1693 27.6819C19.0611 27.6941 18.9581 27.7344 18.8704 27.7984C18.7827 27.863 18.7136 27.9488 18.6694 28.0486C18.5952 28.1977 18.7379 28.3174 18.8429 28.4179C18.9901 28.5593 19.1763 28.6656 19.2378 28.8793C19.2563 28.944 19.2934 29.0144 19.2314 29.0707C19.2013 29.0976 19.1629 29.1129 19.1232 29.1142C19.0829 29.1155 19.0438 29.1027 19.0125 29.0777C18.6848 28.8409 18.4429 28.5043 18.3232 28.1184C18.2784 27.9846 18.3898 27.879 18.4698 27.7811C18.8621 27.3024 19.3427 26.9094 19.7677 26.4621C19.8272 26.3993 19.8925 26.3417 19.9552 26.2822C20.0602 26.3622 20.1818 26.3238 20.295 26.3251C21.1354 26.3353 21.9763 26.3392 22.8173 26.3449Z" fill="#72B52D"/>
<path d="M22.5869 29.5149C22.409 29.3178 22.5562 29.1271 22.617 28.9492C22.7552 28.5466 23.0278 28.2202 23.2762 27.881C23.4726 27.6135 23.6704 27.346 23.8547 27.0701C24.0096 26.8538 24.0922 26.594 24.0909 26.3284C24.1946 26.4 24.1472 26.5082 24.1478 26.5978C24.151 27.5661 24.1485 28.5344 24.1472 29.5028C24.119 29.5079 24.0909 29.5124 24.0627 29.5175C23.5712 29.5175 23.079 29.5162 22.5869 29.5149Z" fill="#72B52D"/>
<path d="M7.98463 14.2375C8.10175 14.0365 8.03455 13.8176 8.03519 13.6096C8.03903 12.4346 8.25663 11.3127 8.86975 10.2963C9.55071 9.16801 10.4467 8.26433 11.6666 7.71521C11.7894 8.11457 11.9046 8.51713 12.0378 8.91329C12.256 9.56097 12.5715 10.1459 13.152 10.5485C12.217 11.0547 11.623 11.8253 11.3453 12.8506C11.2237 13.3005 11.2518 13.7606 11.2077 14.2157C11.0099 13.8586 10.816 13.4995 10.6118 13.1463C10.5203 12.985 10.416 12.8314 10.2989 12.6874C10.1485 12.505 10.0307 12.217 9.77215 12.2311C9.39263 12.2522 9.02719 12.3859 8.77439 12.7104C8.53567 13.017 8.47679 13.3818 8.44287 13.7536C8.41727 14.0339 8.39295 14.3142 8.36607 14.6195C8.15615 14.5523 8.08319 14.3815 7.98463 14.2375Z" fill="#72B52D"/>
<path d="M14.8698 23.0112C12.8538 23.3594 11.2557 22.5856 9.90016 21.1597C10.4038 20.9959 10.903 21.0618 11.3997 21.1923C11.9155 21.328 12.3859 21.5687 12.8435 21.8336C13.5194 22.2259 14.1741 22.6547 14.8698 23.0112Z" fill="#72B52D"/>
<path d="M14.6061 7.10461C14.8685 7.07389 15.1334 7.07261 15.3965 7.10077C15.1258 7.58781 14.8544 8.07485 14.5837 8.56189C14.5459 8.62973 14.5216 8.71933 14.416 8.63229C14.096 8.36861 13.7888 8.09533 13.673 7.67485C13.6538 7.60509 13.5866 7.52573 13.6762 7.46237C13.7459 7.41373 13.8285 7.43293 13.9027 7.45917C13.9578 7.47837 14.007 7.51229 14.0608 7.53661C14.2342 7.61661 14.409 7.67997 14.5843 7.53981C14.7546 7.40349 14.6022 7.24989 14.6061 7.10461Z" fill="#72B52D"/>
<path d="M17.7978 29.5066C17.6262 29.5034 17.4566 29.4669 17.2986 29.3984C17.0406 29.2896 17.0234 29.1911 17.2269 29.008C17.2883 28.9517 17.36 28.9088 17.4381 28.8807C17.5162 28.8525 17.5994 28.8404 17.6819 28.8442C17.7645 28.8487 17.8464 28.8692 17.9213 28.905C17.9962 28.9408 18.0634 28.9914 18.1184 29.0528C18.3354 29.2852 18.3104 29.3856 18.0096 29.4714C17.9405 29.488 17.8694 29.4996 17.7978 29.5066Z" fill="#72B52D"/>
</g>
</g>
</svg>
