<svg width="32" height="32" viewBox="0 0 32 32" fill="none" xmlns="http://www.w3.org/2000/svg">
<g clip-path="url(#clip0_15227_83793)">
<path d="M16 0.5C7.44375 0.5 0.5 7.44375 0.5 16C0.5 24.5562 7.44375 31.5 16 31.5C24.5562 31.5 31.5 24.5562 31.5 16C31.5 7.44375 24.5562 0.5 16 0.5Z" fill="#1ED760"/>
<path d="M25.9125 14.4438C25.5875 14.4438 25.3875 14.3625 25.1062 14.2C20.6562 11.5438 12.7 10.9063 7.54998 12.3438C7.32498 12.4063 7.04373 12.5063 6.74373 12.5063C5.91873 12.5063 5.28748 11.8625 5.28748 11.0313C5.28748 10.1813 5.81248 9.70003 6.37498 9.53753C8.57498 8.89378 11.0375 8.58752 13.7187 8.58752C18.2812 8.58752 23.0625 9.53752 26.5562 11.575C27.0437 11.8563 27.3625 12.2438 27.3625 12.9875C27.3625 13.8375 26.675 14.4438 25.9125 14.4438ZM23.975 19.2063C23.65 19.2063 23.4312 19.0625 23.2062 18.9438C19.3 16.6313 13.475 15.7 8.29373 17.1063C7.99373 17.1875 7.83123 17.2688 7.54998 17.2688C6.88123 17.2688 6.33748 16.725 6.33748 16.0563C6.33748 15.3875 6.66248 14.9438 7.30623 14.7625C9.04373 14.275 10.8187 13.9125 13.4187 13.9125C17.475 13.9125 21.3937 14.9188 24.4812 16.7563C24.9875 17.0563 25.1875 17.4438 25.1875 17.9875C25.1812 18.6625 24.6562 19.2063 23.975 19.2063ZM22.2937 23.3063C22.0312 23.3063 21.8687 23.225 21.625 23.0813C17.725 20.7313 13.1875 20.6313 8.70623 21.55C8.46248 21.6125 8.14373 21.7125 7.96248 21.7125C7.35623 21.7125 6.97498 21.2313 6.97498 20.725C6.97498 20.0813 7.35623 19.775 7.82498 19.675C12.9437 18.5438 18.175 18.6438 22.6375 21.3125C23.0187 21.5563 23.2437 21.775 23.2437 22.3438C23.2437 22.9125 22.8 23.3063 22.2937 23.3063Z" fill="black"/>
</g>
<defs>
<clipPath id="clip0_15227_83793">
<rect width="31" height="32" fill="white" transform="translate(0.5)"/>
</clipPath>
</defs>
</svg>
