<svg width="50" height="50" viewBox="0 0 50 50" fill="none" xmlns="http://www.w3.org/2000/svg">
<rect x="1" y="1" width="48" height="48" rx="8" fill="white" stroke="#E4E4E7"/>
<g clip-path="url(#clip0_11396_38017)">
<path d="M25 41C33.8366 41 41 33.8366 41 25C41 16.1634 33.8366 9 25 9C16.1634 9 9 16.1634 9 25C9 33.8366 16.1634 41 25 41Z" fill="#009393"/>
<path fill-rule="evenodd" clip-rule="evenodd" d="M25.0196 26.1437C27.7712 26.1437 30.0708 25.6785 30.6328 25.0569C30.1556 24.5297 28.4296 24.1145 26.2376 24.0009V25.3141C25.8452 25.3345 25.4372 25.3445 25.0192 25.3445C24.6012 25.3445 24.1932 25.3345 23.8 25.3141V24.0009C21.6088 24.1145 19.882 24.5297 19.4048 25.0569C19.9676 25.6785 22.2676 26.1437 25.0192 26.1437H25.0196ZM29.9084 19.9625V21.7709H26.2376V23.0249C28.816 23.1589 30.7508 23.7101 30.7652 24.3697V25.7449C30.7508 26.4045 28.816 26.9545 26.2376 27.0889V30.1665H23.8004V27.0889C21.222 26.9549 19.288 26.4045 19.2736 25.7449V24.3697C19.288 23.7101 21.222 23.1589 23.8004 23.0249V21.7709H20.1296V19.9625H29.9088H29.9084ZM18.686 17.0845H31.5724C31.8804 17.0845 32.164 17.2465 32.3176 17.5097L36.0716 23.9561C36.266 24.2905 36.2084 24.7125 35.9308 24.9833L25.5972 35.0705C25.262 35.3973 24.7236 35.3973 24.3892 35.0705L14.0684 24.9969C13.7848 24.7193 13.7312 24.2853 13.9404 23.9493L17.9536 17.4897C18.11 17.2385 18.3876 17.0849 18.6864 17.0849L18.686 17.0845Z" fill="white"/>
</g>
<defs>
<clipPath id="clip0_11396_38017">
<rect width="32" height="32" fill="white" transform="translate(9 9)"/>
</clipPath>
</defs>
</svg>
