<svg width="50" height="50" viewBox="0 0 50 50" fill="none" xmlns="http://www.w3.org/2000/svg">
<rect x="1" y="1" width="48" height="48" rx="8" fill="white" stroke="#E4E4E7"/>
<path d="M38.9985 28.4778C37.0751 36.1951 29.2587 40.9075 21.5273 38.9829C13.81 37.0536 9.10508 29.2373 11.0285 21.52C12.952 13.8027 20.7636 9.09023 28.4762 11.0148C36.2123 12.9159 40.9172 20.7558 38.9985 28.4778Z" fill="#FF060A"/>
<path d="M33.6032 23.0404C32.7586 22.2606 31.5902 21.0697 30.6387 20.2251L30.5824 20.1857C30.4887 20.1105 30.3831 20.0515 30.2699 20.0112C27.9754 19.5832 17.2971 17.5872 17.0888 17.6125C17.0304 17.6207 16.9746 17.6419 16.9255 17.6745L16.872 17.7167C16.8062 17.7836 16.7561 17.8644 16.7256 17.9532L16.7115 17.9898V18.1897V18.2206C17.9137 21.568 22.6602 32.5335 23.5949 35.1067C23.6512 35.2812 23.7582 35.6134 23.9581 35.6303H24.0031C24.1101 35.6303 24.5661 35.0279 24.5661 35.0279C24.5661 35.0279 32.7192 25.1406 33.544 24.0877C33.6508 23.958 33.7451 23.8185 33.8256 23.671C33.8461 23.5556 33.8364 23.4369 33.7975 23.3264C33.7585 23.2159 33.6915 23.1174 33.6032 23.0404ZM26.6579 24.1918L30.1376 21.3062L32.1786 23.1868L26.6579 24.1918ZM25.3066 24.0032L19.3157 19.0934L29.0086 20.8811L25.3066 24.0032ZM25.8471 25.2898L31.9788 24.3016L24.9687 32.7475L25.8471 25.2898ZM18.5021 19.5832L24.8054 24.9323L23.8933 32.7531L18.5021 19.5832Z" fill="white"/>
</svg>
