<svg width="32" height="32" viewBox="0 0 32 32" fill="none" xmlns="http://www.w3.org/2000/svg">
<g clip-path="url(#clip0_18201_28189)">
<rect x="0.0435181" width="32" height="32" rx="8" fill="url(#paint0_linear_18201_28189)"/>
<path d="M10.672 24.2835L11.0348 24.4986C12.5594 25.4034 14.3074 25.8819 16.0899 25.8828H16.0938C21.5681 25.8828 26.0235 21.4284 26.0256 15.9538C26.0265 13.3005 24.9944 10.806 23.1193 8.92912C21.244 7.05257 18.7506 6.0184 16.0974 6.0173C10.6189 6.0173 6.16349 10.471 6.16142 15.9457C6.1607 17.8217 6.6855 19.6488 7.67985 21.2295L7.91619 21.6052L6.91261 25.2691L10.672 24.2835ZM4.04376 28.1072L5.739 21.9171C4.69336 20.1055 4.14327 18.0504 4.14413 15.9451C4.14668 9.35857 9.50684 4 16.0941 4C19.2905 4.00138 22.2907 5.24538 24.5468 7.50337C26.8027 9.76133 28.0447 12.7627 28.0436 15.9547C28.0408 22.5409 22.6795 27.9005 16.0941 27.9005C16.0943 27.9005 16.0936 27.9005 16.0941 27.9005H16.0889C14.0891 27.8998 12.124 27.3982 10.3787 26.4463L4.04376 28.1072Z" fill="white"/>
<path d="M4.55583 15.9513C4.5551 17.9835 5.0861 19.9675 6.09578 21.7166L4.45911 27.6925L10.5744 26.0889C12.2593 27.0071 14.1563 27.4918 16.087 27.4924H16.0919C22.4498 27.4924 27.6247 22.3188 27.6275 15.9603C27.6287 12.8789 26.4298 9.98176 24.2517 7.80175C22.074 5.62206 19.1777 4.421 16.0914 4.41956C9.73327 4.41956 4.55858 9.59243 4.55583 15.9513ZM16.0919 27.4924C16.0918 27.4924 16.0917 27.4924 16.0919 27.4924Z" fill="url(#paint1_linear_18201_28189)"/>
<path d="M4.14389 15.9479C4.14317 18.0531 4.69325 20.1085 5.73889 21.9199L4.04352 28.1097L10.3783 26.4487C12.1237 27.4005 14.0886 27.9021 16.0885 27.903H16.0936C22.6791 27.903 28.0404 22.5434 28.0432 15.9572C28.0443 12.765 26.8023 9.76367 24.5463 7.50582C22.2901 5.24797 19.2901 4.00382 16.0936 4.00244C9.50674 4.00244 4.14644 9.36101 4.14369 15.9475M7.91608 21.6078L7.67961 21.2323C6.68526 19.6514 6.16046 17.8243 6.16118 15.9484C6.16335 10.4741 10.6187 6.02008 16.0971 6.02008C18.7501 6.02111 21.2435 7.05538 23.119 8.9319C24.9943 10.8086 26.0262 13.3033 26.0255 15.9562C26.0231 21.4309 21.5677 25.8853 16.0934 25.8853H16.0895C14.307 25.8842 12.5589 25.4058 11.0344 24.5011L10.6715 24.286L6.91222 25.2716L7.91608 21.6078ZM16.0936 27.903C16.0935 27.903 16.0934 27.903 16.0936 27.903Z" fill="url(#paint2_linear_18201_28189)"/>
<path fill-rule="evenodd" clip-rule="evenodd" d="M13.1071 10.9534C12.8834 10.4562 12.648 10.4462 12.4353 10.4375C12.2611 10.4301 12.062 10.4305 11.8631 10.4305C11.6639 10.4305 11.3404 10.5053 11.0669 10.8041C10.7931 11.1029 10.0218 11.8251 10.0218 13.2941C10.0218 14.7632 11.0919 16.1827 11.2409 16.3821C11.3903 16.5812 13.3065 19.6922 16.3412 20.8889C18.8634 21.8835 19.3767 21.6856 19.9241 21.6358C20.4715 21.5861 21.6907 20.9138 21.9394 20.2165C22.1883 19.5194 22.1883 18.9218 22.1136 18.797C22.039 18.6726 21.8399 18.5979 21.5413 18.4487C21.2426 18.2993 19.7747 17.5769 19.5011 17.4773C19.2273 17.3778 19.0283 17.3281 18.8291 17.627C18.6301 17.9255 18.0583 18.5979 17.884 18.797C17.7099 18.9966 17.5356 19.0215 17.2371 18.8721C16.9384 18.7223 15.9767 18.4073 14.836 17.3903C13.9483 16.5989 13.3491 15.6216 13.1749 15.3226C13.0007 15.024 13.1563 14.8623 13.306 14.7135C13.4401 14.5797 13.6047 14.3648 13.754 14.1906C13.903 14.0162 13.9527 13.8918 14.0522 13.6926C14.1518 13.4933 14.102 13.319 14.0274 13.1696C13.9527 13.0203 13.3726 11.5438 13.1071 10.9534Z" fill="white"/>
</g>
<defs>
<linearGradient id="paint0_linear_18201_28189" x1="16.0437" y1="31.9967" x2="16.0437" y2="-0.00336266" gradientUnits="userSpaceOnUse">
<stop stop-color="#20B038"/>
<stop offset="1" stop-color="#60D66A"/>
</linearGradient>
<linearGradient id="paint1_linear_18201_28189" x1="16.0434" y1="27.69" x2="16.0434" y2="4.41711" gradientUnits="userSpaceOnUse">
<stop stop-color="#20B038"/>
<stop offset="1" stop-color="#60D66A"/>
</linearGradient>
<linearGradient id="paint2_linear_18201_28189" x1="16.0435" y1="28.1104" x2="16.0435" y2="4.00317" gradientUnits="userSpaceOnUse">
<stop stop-color="#F9F9F9"/>
<stop offset="1" stop-color="white"/>
</linearGradient>
<clipPath id="clip0_18201_28189">
<rect width="32" height="32" fill="white"/>
</clipPath>
</defs>
</svg>
