<svg width="32" height="32" viewBox="0 0 32 32" fill="none" xmlns="http://www.w3.org/2000/svg">
<g clip-path="url(#clip0_17627_12559)">
<g clip-path="url(#clip1_17627_12559)">
<path d="M29.6433 15.95C29.6453 23.514 23.6833 29.648 16.326 29.65C8.96867 29.6527 3.002 23.522 3 15.958V15.9493C2.998 8.38466 8.96 2.25066 16.3173 2.24866C23.6747 2.24666 29.6407 8.37599 29.6433 15.9407V15.95Z" fill="url(#paint0_linear_17627_12559)"/>
<path d="M17.6253 2.43795L12.292 2.77129C12.1739 2.77741 12.0593 2.81318 11.9587 2.87529L7.292 5.87529C7.19137 5.93737 7.10795 6.02376 7.04943 6.12651C6.99091 6.22926 6.95917 6.34508 6.95711 6.4633C6.95505 6.58153 6.98275 6.69838 7.03766 6.80311C7.09256 6.90783 7.17292 6.99707 7.27134 7.06262C7.88667 7.47729 8.496 7.95462 8.66734 8.39595C9.036 9.37329 9.45467 10.8053 9.81334 12.042C9.97054 12.5935 10.1372 13.1422 10.3133 13.688C10.3887 13.916 10.4507 14.12 10.5213 14.292C10.592 14.464 10.6367 14.5946 10.8133 14.792C10.84 14.8146 10.8673 14.8353 10.8967 14.8546C11.212 15.1113 11.5407 15.252 11.938 15.3753C12.3353 15.4986 12.794 15.596 13.23 15.6673C13.666 15.7386 14.084 15.7646 14.4593 15.7713C14.8347 15.778 15.0993 15.86 15.5427 15.584C15.564 15.5713 15.5853 15.5573 15.6053 15.5426C15.7953 15.3913 15.8147 15.29 15.8553 15.2093C15.896 15.1286 15.9307 15.0613 15.9593 14.98C16.0173 14.8173 16.07 14.6346 16.126 14.4173C16.3917 13.3701 16.5798 12.3048 16.6887 11.23C16.7367 10.758 16.794 10.4453 16.6887 10.022C16.6833 9.99995 16.6953 9.98196 16.6887 9.95929H16.6667C16.56 9.44396 16.2867 8.69795 15.8127 7.85529C15.39 7.10615 14.8236 6.4478 14.146 5.91796C14.17 5.89262 14.224 5.84729 14.354 5.79262L16.9587 5.81262C17.0367 5.81195 17.114 5.79729 17.188 5.77129C17.2493 5.75129 17.314 5.79395 17.6253 5.64595C17.7813 5.57262 17.972 5.40329 18.0627 5.22929C18.1533 5.05529 18.1913 4.90795 18.2087 4.74995L18.3753 3.22929C18.3881 3.12588 18.3778 3.02093 18.3452 2.92196C18.3126 2.82299 18.2585 2.73246 18.1869 2.65683C18.1152 2.58121 18.0277 2.52237 17.9306 2.48453C17.8335 2.44669 17.7293 2.43078 17.6253 2.43795Z" fill="url(#paint1_linear_17627_12559)"/>
<path d="M17.6667 3.146L17.5 4.66466C17.4533 5.09666 17.2713 4.99133 16.9513 5.09533L14.2073 5.08533C13.398 5.34533 13.3093 5.776 13.364 6.144C14.9013 6.99866 15.8613 9.42466 16.0007 10.1453C16.198 10.84 15.4373 14.7633 15.1673 14.9787C14.712 15.262 12.014 14.8653 11.334 14.312C10.9687 13.902 10.1093 10.2007 9.334 8.14533C9.04866 7.41 8.28333 6.89333 7.66733 6.47866L12.334 3.47866L17.6667 3.146Z" fill="url(#paint2_radial_17627_12559)"/>
<path d="M4.354 10.8754C4.22768 10.8872 4.10804 10.9376 4.01124 11.0196C3.91444 11.1016 3.84513 11.2114 3.81267 11.334L2.20867 16.8134C2.17187 16.9396 2.17627 17.0743 2.22122 17.1979C2.26618 17.3215 2.34935 17.4276 2.45867 17.5007C3.074 17.9147 3.71067 18.398 3.896 18.8754C3.91326 18.9121 3.93426 18.9469 3.95867 18.9794C3.964 18.9974 3.97133 19.0054 3.97933 19.042C4.008 19.166 4.04133 19.3814 4.08333 19.6254C4.168 20.1134 4.28467 20.7754 4.43733 21.4587C4.59 22.142 4.778 22.848 5.06267 23.4587C5.34733 24.0694 5.728 24.6347 6.396 24.8547C6.234 24.8014 6.36867 24.8614 6.45867 24.9174C6.54867 24.9734 6.66667 25.05 6.81267 25.1467C7.10467 25.34 7.478 25.5827 7.854 25.834C8.23 26.0854 8.608 26.352 8.91667 26.542C9.07067 26.6374 9.21067 26.7074 9.33333 26.7714C9.39467 26.8034 9.45 26.828 9.52067 26.8547C9.59133 26.8814 9.63267 26.9474 9.91667 26.896C10.2433 26.8374 10.344 26.6554 10.396 26.5627C10.448 26.47 10.4593 26.4 10.4793 26.3334C10.5187 26.2007 10.5593 26.068 10.5833 25.9167C10.632 25.6134 10.6673 25.2394 10.7087 24.8754C10.75 24.5114 10.792 24.1427 10.834 23.896C10.8513 23.7947 10.8647 23.75 10.8753 23.7087C10.9213 23.6694 10.9867 23.6747 11.0213 23.6254C11.1573 23.434 11.1727 23.2354 11.1673 23.084C11.156 22.7807 11.0593 22.5487 10.938 22.292C10.6953 21.778 10.298 21.1867 9.85467 20.5627C8.99933 19.358 8.02133 18.172 7.584 17.688C7.54733 17.568 7.52667 17.4447 7.48 17.3134C7.422 17.1494 7.35667 16.9707 7.31333 16.8134C8.23533 17.2067 9.19067 17.5614 10.2507 17.688C10.3138 17.6909 10.377 17.6839 10.438 17.6674C10.7688 17.6118 11.0911 17.5137 11.3967 17.3754C11.5767 17.294 11.7673 17.2107 11.938 17.0627C12.1087 16.9147 12.2987 16.6774 12.334 16.3547C12.3501 16.2079 12.3132 16.0601 12.23 15.938C11.0453 14.1674 9.34267 13.7147 7.56333 13.0634L6.54133 11.8127C6.47882 11.7401 6.40032 11.6831 6.312 11.646L4.666 10.938C4.56941 10.8898 4.46172 10.8682 4.354 10.8754Z" fill="url(#paint3_linear_17627_12559)"/>
<path d="M7.18332 13.5874C9.06332 14.2887 10.6053 14.646 11.7027 16.286C11.656 16.7174 10.712 17.008 10.3287 17.0707C9.18999 16.934 8.14199 16.5254 7.11332 16.0587C6.09599 15.8394 6.98132 17.634 7.03599 18.002C7.76265 18.7927 11.3667 23.2114 10.3773 23.3314C10.1347 23.3614 10.03 26.2614 9.80399 26.3014C9.57799 26.3414 6.82932 24.3427 6.58265 24.262C4.99799 23.74 4.73799 18.796 4.47932 18.648C4.19465 17.9127 3.42865 17.396 2.81265 16.9814L4.41532 11.5067L6.06999 12.214L7.18332 13.5874Z" fill="url(#paint4_radial_17627_12559)"/>
<path d="M29.5553 8.76332L29.5347 4.13799C29.536 4.02818 29.5154 3.91921 29.474 3.8175C29.4326 3.71579 29.3712 3.62339 29.2936 3.54574C29.2159 3.46809 29.1235 3.40676 29.0218 3.36535C28.9201 3.32395 28.8111 3.30331 28.7013 3.30465L24.472 3.26332C24.3099 3.26241 24.1511 3.30917 24.0154 3.39778C23.8797 3.48639 23.773 3.61295 23.7087 3.76171C23.6443 3.91047 23.6251 4.07487 23.6534 4.23447C23.6817 4.39406 23.7564 4.5418 23.868 4.65932L28.118 9.32599C28.348 9.57999 28.7113 9.66532 29.0313 9.54065C29.1871 9.47937 29.3206 9.37225 29.4142 9.23344C29.5077 9.09464 29.557 8.93071 29.5553 8.76332Z" fill="black" fill-opacity="0.32"/>
<path d="M29.2773 8.76404L29.2567 4.1387C29.2548 3.99572 29.1971 3.85913 29.096 3.75802C28.9949 3.65691 28.8583 3.59927 28.7153 3.59737L24.486 3.55603C24.3796 3.5556 24.2754 3.5859 24.1858 3.64331C24.0963 3.70071 24.0252 3.78277 23.9812 3.87961C23.9372 3.97645 23.9221 4.08395 23.9377 4.18917C23.9534 4.29439 23.9991 4.39285 24.0693 4.4727L28.3193 9.13937C28.3945 9.22152 28.4929 9.27897 28.6014 9.30416C28.7099 9.32934 28.8234 9.32107 28.9271 9.28044C29.0308 9.23981 29.1198 9.16873 29.1823 9.07654C29.2448 8.98436 29.278 8.87541 29.2773 8.76404Z" fill="black" fill-opacity="0.32"/>
<path d="M29.0973 8.76333L29.0767 4.13799C29.0775 4.08853 29.0684 4.0394 29.05 3.99349C29.0315 3.94758 29.0041 3.90582 28.9693 3.87066C28.9342 3.83583 28.8924 3.80835 28.8465 3.78981C28.8006 3.77127 28.7515 3.76204 28.702 3.76266L24.4727 3.72133C24.4001 3.72075 24.3289 3.74155 24.268 3.78112C24.2072 3.8207 24.1593 3.87731 24.1304 3.9439C24.1014 4.0105 24.0927 4.08413 24.1054 4.15562C24.118 4.22712 24.1514 4.29333 24.2013 4.34599L28.4513 9.01266C28.5013 9.06913 28.5673 9.10898 28.6405 9.12684C28.7137 9.1447 28.7907 9.13973 28.861 9.11258C28.9313 9.08544 28.9917 9.03743 29.0339 8.975C29.0762 8.91256 29.0983 8.8387 29.0973 8.76333Z" fill="black" fill-opacity="0.32"/>
<path d="M28.8933 8.76672L28.8727 4.14139C28.8699 4.11937 28.8628 4.09809 28.852 4.07872C28.8428 4.05516 28.8287 4.0338 28.8107 4.01605C28.8043 4.00867 28.7974 4.00177 28.79 3.99539C28.7645 3.98148 28.7358 3.97437 28.7067 3.97472C28.7003 3.96734 28.6934 3.96043 28.686 3.95405L24.4567 3.91272C24.442 3.91771 24.4281 3.92466 24.4153 3.93339C24.3933 3.93631 24.3721 3.94332 24.3527 3.95405C24.3368 3.96557 24.3229 3.97952 24.3113 3.99539C24.3008 4.01489 24.2938 4.03611 24.2907 4.05805C24.28 4.0919 24.28 4.1282 24.2907 4.16205C24.3001 4.18553 24.3141 4.20685 24.332 4.22472L28.582 8.89139C28.6019 8.90849 28.6252 8.92105 28.6504 8.92819C28.6757 8.93533 28.7021 8.93687 28.728 8.93272C28.7571 8.93276 28.7857 8.92566 28.8113 8.91205C28.8193 8.90539 28.8253 8.89872 28.832 8.89139C28.8502 8.87381 28.8644 8.85241 28.8733 8.82872C28.8836 8.80937 28.8903 8.78839 28.8933 8.76672Z" fill="black" fill-opacity="0.33"/>
<path d="M24.724 4.17004L28.676 4.15271L28.638 8.39871L24.724 4.17004Z" fill="url(#paint5_linear_17627_12559)"/>
<path d="M24.75 28.3959L29.3753 28.3753C29.4851 28.3765 29.594 28.3558 29.6957 28.3144C29.7974 28.273 29.8897 28.2116 29.9674 28.134C30.045 28.0564 30.1063 27.964 30.1478 27.8623C30.1892 27.7606 30.2099 27.6517 30.2087 27.5419L30.25 23.3126C30.2515 23.1503 30.2051 22.9911 30.1166 22.8549C30.0281 22.7188 29.9014 22.6118 29.7524 22.5474C29.6034 22.4829 29.4387 22.4638 29.2789 22.4925C29.1191 22.5212 28.9713 22.5963 28.854 22.7086L24.1873 26.9586C24.0631 27.071 23.976 27.2185 23.9376 27.3816C23.8993 27.5446 23.9114 27.7155 23.9725 27.8715C24.0335 28.0275 24.1406 28.1612 24.2795 28.2549C24.4184 28.3486 24.5825 28.3978 24.75 28.3959Z" fill="black" fill-opacity="0.32"/>
<path d="M24.764 28.1186L29.3893 28.098C29.5323 28.0959 29.6687 28.0382 29.7698 27.9371C29.8709 27.8361 29.9286 27.6996 29.9307 27.5566L29.972 23.3273C29.9727 23.2208 29.9426 23.1164 29.8852 23.0266C29.8279 22.9369 29.7458 22.8657 29.6488 22.8216C29.5519 22.7776 29.4442 22.7625 29.3389 22.7783C29.2336 22.7941 29.1351 22.8401 29.0553 22.9106L24.3887 27.1606C24.3061 27.2357 24.2484 27.334 24.223 27.4427C24.1976 27.5513 24.2058 27.665 24.2465 27.7689C24.2872 27.8727 24.3584 27.9618 24.4508 28.0242C24.5433 28.0867 24.6525 28.1196 24.764 28.1186Z" fill="black" fill-opacity="0.32"/>
<path d="M24.75 27.938L29.3753 27.9173C29.4247 27.9177 29.4736 27.9084 29.5192 27.8897C29.5649 27.871 29.6064 27.8434 29.6413 27.8086C29.6761 27.7737 29.7037 27.7322 29.7224 27.6865C29.7411 27.6409 29.7504 27.592 29.75 27.5426L29.7913 23.3133C29.7932 23.2401 29.7732 23.1681 29.7338 23.1064C29.6945 23.0447 29.6376 22.9962 29.5705 22.9671C29.5034 22.9379 29.4291 22.9295 29.3571 22.9428C29.2852 22.9562 29.2189 22.9907 29.1667 23.042L24.5 27.292C24.4405 27.2928 24.382 27.3081 24.3296 27.3364C24.2773 27.3648 24.2325 27.4053 24.1992 27.4547C24.1659 27.5041 24.145 27.5608 24.1384 27.6199C24.1317 27.6791 24.1394 27.739 24.1609 27.7946C24.1824 27.8501 24.217 27.8996 24.2618 27.9389C24.3066 27.9782 24.3602 28.006 24.418 28.0201C24.4759 28.0342 24.5363 28.0341 24.5941 28.0198C24.6519 28.0055 24.7054 27.9774 24.75 27.938Z" fill="black" fill-opacity="0.32"/>
<path d="M24.7313 27.7374L29.3567 27.7167C29.3787 27.7138 29.3999 27.7068 29.4193 27.696C29.4429 27.6868 29.4642 27.6727 29.482 27.6547C29.4894 27.6483 29.4963 27.6414 29.5027 27.634C29.5165 27.6085 29.5236 27.5798 29.5233 27.5507C29.5307 27.5443 29.5376 27.5374 29.544 27.53L29.5853 23.3007C29.5801 23.2862 29.5731 23.2723 29.5647 23.2594C29.5614 23.2374 29.5544 23.2162 29.544 23.1967C29.5325 23.1808 29.5185 23.1669 29.5027 23.1554C29.4832 23.1448 29.4619 23.1378 29.44 23.1347C29.4061 23.124 29.3698 23.124 29.336 23.1347C29.3124 23.1439 29.2911 23.158 29.2733 23.176L24.6067 27.426C24.5896 27.4459 24.577 27.4692 24.5699 27.4945C24.5627 27.5197 24.5612 27.5462 24.5653 27.572C24.5653 27.6014 24.5727 27.63 24.586 27.6554C24.592 27.6634 24.6 27.6694 24.6067 27.676C24.6241 27.6944 24.6456 27.7085 24.6693 27.7174C24.6885 27.7279 24.7096 27.7347 24.7313 27.7374Z" fill="black" fill-opacity="0.33"/>
<path d="M29.3307 22.762L29.3447 27.4913H24.8067L29.3307 22.762Z" fill="url(#paint6_linear_17627_12559)"/>
<path d="M1.74999 22.896L1.77065 27.5213C1.76959 27.6311 1.79041 27.7399 1.83191 27.8415C1.87341 27.9431 1.93475 28.0354 2.01235 28.113C2.08995 28.1906 2.18224 28.2519 2.28382 28.2934C2.38541 28.3349 2.49426 28.3557 2.60399 28.3547L6.83332 28.396C7.16532 28.3993 7.46599 28.2033 7.59799 27.8987C7.66241 27.7497 7.68153 27.585 7.65296 27.4251C7.62438 27.2653 7.54939 27.1175 7.43732 27L3.18732 22.3333C3.07463 22.2098 2.92714 22.1234 2.76432 22.0854C2.60149 22.0475 2.43098 22.0598 2.27529 22.1207C2.1196 22.1817 1.98605 22.2884 1.89227 22.4268C1.79849 22.5652 1.74888 22.7288 1.74999 22.896Z" fill="black" fill-opacity="0.32"/>
<path d="M2.04131 22.91L2.06198 27.5353C2.06405 27.6783 2.12184 27.8149 2.22306 27.916C2.32427 28.0171 2.46094 28.0747 2.60398 28.0766L6.83331 28.118C6.94018 28.1196 7.0452 28.09 7.1355 28.0328C7.2258 27.9756 7.29745 27.8933 7.34168 27.796C7.38591 27.6987 7.40079 27.5906 7.3845 27.485C7.36821 27.3793 7.32146 27.2807 7.24998 27.2013L2.99998 22.5346C2.92492 22.452 2.82657 22.394 2.7179 22.3685C2.60923 22.3429 2.49536 22.3508 2.39131 22.3913C2.28734 22.4322 2.19822 22.5036 2.13572 22.5962C2.07323 22.6888 2.04031 22.7982 2.04131 22.91Z" fill="black" fill-opacity="0.32"/>
<path d="M2.20866 22.896L2.22932 27.5213C2.22838 27.5707 2.23746 27.6198 2.25602 27.6657C2.27458 27.7115 2.30224 27.7531 2.33732 27.788C2.40799 27.8593 2.50399 27.898 2.60466 27.896L6.83399 27.9373C6.90708 27.939 6.97902 27.9189 7.0406 27.8795C7.10219 27.8401 7.15061 27.7832 7.17968 27.7161C7.20875 27.649 7.21713 27.5748 7.20377 27.5029C7.1904 27.431 7.15589 27.3648 7.10466 27.3126L2.85466 22.646C2.80469 22.5894 2.73861 22.5496 2.66531 22.5317C2.59202 22.5139 2.51501 22.5189 2.44465 22.5461C2.3743 22.5734 2.31397 22.6215 2.27178 22.684C2.22959 22.7466 2.20756 22.8205 2.20866 22.896Z" fill="black" fill-opacity="0.32"/>
<path d="M2.39267 22.8806L2.41334 27.506C2.41626 27.528 2.42327 27.5492 2.434 27.5686C2.44339 27.5921 2.45746 27.6134 2.47534 27.6313C2.48134 27.6393 2.48867 27.6453 2.496 27.652C2.52158 27.6658 2.55025 27.6729 2.57934 27.6726C2.58534 27.6806 2.59267 27.6866 2.6 27.6933L6.82934 27.7346C6.84393 27.7295 6.85781 27.7226 6.87067 27.714C6.89259 27.7107 6.91379 27.7038 6.93334 27.6933C6.9492 27.6818 6.96315 27.6678 6.97467 27.652C6.98521 27.6325 6.99221 27.6113 6.99534 27.5893C7.00598 27.5555 7.00598 27.5192 6.99534 27.4853C6.98579 27.4619 6.97174 27.4406 6.954 27.4226L2.704 22.756C2.68427 22.7387 2.66092 22.726 2.63567 22.7188C2.61041 22.7117 2.58388 22.7103 2.558 22.7146C2.52896 22.7147 2.50036 22.7218 2.47467 22.7353C2.46713 22.7415 2.46021 22.7484 2.454 22.756C2.43591 22.7737 2.42182 22.795 2.41267 22.8186C2.40214 22.8379 2.39536 22.8589 2.39267 22.8806Z" fill="black" fill-opacity="0.33"/>
<path d="M6.93866 27.476H2.66666V22.8213L6.93866 27.476Z" fill="url(#paint7_linear_17627_12559)"/>
<path d="M7.95865 3.31269L3.33332 3.33336C3.22359 3.33229 3.11475 3.35311 3.01316 3.39462C2.91157 3.43612 2.81928 3.49746 2.74168 3.57505C2.66409 3.65265 2.60275 3.74494 2.56124 3.84653C2.51974 3.94812 2.49892 4.05696 2.49999 4.16669L2.45865 8.39603C2.45712 8.55838 2.50351 8.71758 2.59202 8.8537C2.68052 8.98982 2.80721 9.09681 2.95622 9.16128C3.10523 9.22576 3.26995 9.24485 3.42976 9.21616C3.58957 9.18748 3.73737 9.1123 3.85465 9.00003L8.52132 4.75003C8.64591 4.6378 8.73333 4.49026 8.77192 4.32707C8.81051 4.16389 8.79844 3.99282 8.73731 3.83667C8.67619 3.68053 8.56891 3.54673 8.42979 3.45311C8.29068 3.35949 8.12632 3.31051 7.95865 3.31269Z" fill="black" fill-opacity="0.32"/>
<path d="M7.95865 3.60475L3.33332 3.62542C3.19039 3.62749 3.0539 3.68518 2.95282 3.78626C2.85175 3.88733 2.79405 4.02382 2.79198 4.16675L2.75065 8.39609C2.75004 8.50246 2.78021 8.60673 2.83753 8.69634C2.89485 8.78595 2.97687 8.85706 3.07369 8.90111C3.17052 8.94515 3.27802 8.96024 3.38323 8.94457C3.48844 8.92889 3.58687 8.88311 3.66665 8.81275L8.33332 4.56275C8.41578 4.48774 8.47354 4.38946 8.49895 4.28091C8.52436 4.17236 8.51622 4.05866 8.47562 3.95483C8.43501 3.85101 8.36385 3.76196 8.27154 3.69945C8.17924 3.63694 8.07013 3.60392 7.95865 3.60475Z" fill="black" fill-opacity="0.32"/>
<path d="M7.95864 3.77139L3.33331 3.79206C3.28388 3.79125 3.2348 3.80038 3.18897 3.81893C3.14315 3.83747 3.10152 3.86503 3.06657 3.89999C3.03162 3.93494 3.00405 3.97657 2.98551 4.02239C2.96697 4.06821 2.95783 4.1173 2.95864 4.16672L2.91731 8.39606C2.91624 8.46887 2.93676 8.54037 2.97627 8.60154C3.01579 8.6627 3.07254 8.7108 3.13936 8.73975C3.20618 8.7687 3.28007 8.77722 3.35173 8.76422C3.42338 8.75122 3.48958 8.7173 3.54197 8.66672L8.20864 4.41672C8.26491 4.3667 8.30454 4.30068 8.32224 4.2275C8.33993 4.15432 8.33484 4.07748 8.30765 4.00728C8.28045 3.93707 8.23245 3.87686 8.17007 3.8347C8.10769 3.79254 8.03392 3.77045 7.95864 3.77139Z" fill="black" fill-opacity="0.32"/>
<path d="M7.95867 3.95862L3.33334 3.97928C3.31132 3.9821 3.29005 3.98911 3.27068 3.99995C3.24704 4.00933 3.22567 4.02365 3.20801 4.04195C3.20047 4.04816 3.19355 4.05508 3.18734 4.06262C3.17395 4.08837 3.16687 4.11693 3.16668 4.14595C3.15914 4.15216 3.15221 4.15908 3.14601 4.16662L3.10468 8.39595C3.10953 8.41066 3.11649 8.42458 3.12534 8.43728C3.12815 8.4593 3.13517 8.48058 3.14601 8.49995C3.15753 8.51581 3.17148 8.52976 3.18734 8.54128C3.20671 8.55212 3.22799 8.55914 3.25001 8.56195C3.28386 8.5726 3.32016 8.5726 3.35401 8.56195C3.37757 8.55273 3.39892 8.53865 3.41668 8.52062L8.08334 4.27062C8.10069 4.25091 8.1134 4.22756 8.12055 4.2023C8.1277 4.17704 8.12911 4.1505 8.12468 4.12462C8.12448 4.0956 8.1174 4.06703 8.10401 4.04128C8.0978 4.03375 8.09088 4.02682 8.08334 4.02062C8.06571 4.00244 8.04432 3.98834 8.02068 3.97928C8.00149 3.96856 7.98046 3.96154 7.95867 3.95862Z" fill="black" fill-opacity="0.33"/>
<path d="M3.29999 8.39867L3.32465 4.17667L7.95532 4.15601L3.29999 8.39867Z" fill="url(#paint8_linear_17627_12559)"/>
<path d="M7.31268 7.20873C7.23535 7.21673 7.16535 7.25806 7.12068 7.32206C7.07602 7.38606 7.06268 7.46673 7.08335 7.54206L7.54202 9.14606L10.7087 23.2294L10.4167 24.7707C10.4099 24.808 10.4112 24.8463 10.4204 24.8831C10.4297 24.9198 10.4468 24.9542 10.4705 24.9838C10.4942 25.0133 10.524 25.0375 10.5578 25.0546C10.5917 25.0716 10.6288 25.0812 10.6667 25.0827H15.2707C15.3107 25.0815 15.3499 25.0713 15.3854 25.0528C15.4209 25.0344 15.4518 25.0082 15.4759 24.9762C15.4999 24.9442 15.5164 24.9072 15.5241 24.8679C15.5319 24.8286 15.5307 24.7881 15.5207 24.7494L15.2287 23.2701L16.0207 20.2494L17 23.3127L16.5627 24.7294C16.5485 24.7694 16.5441 24.8123 16.5499 24.8543C16.5557 24.8964 16.5715 24.9364 16.596 24.9711C16.6205 25.0058 16.653 25.0341 16.6907 25.0536C16.7284 25.0732 16.7702 25.0834 16.8127 25.0834L22 25.1047C22.0425 25.1049 22.0845 25.0948 22.1222 25.0753C22.16 25.0558 22.1925 25.0275 22.2171 24.9927C22.2416 24.958 22.2574 24.9179 22.2631 24.8758C22.2689 24.8336 22.2644 24.7907 22.25 24.7507L21.646 23.1254L24.0207 9.47939L24.9167 7.58339C24.9347 7.54395 24.9428 7.50068 24.9402 7.45739C24.9377 7.41409 24.9245 7.37208 24.902 7.33504C24.8794 7.298 24.8481 7.26706 24.8108 7.24492C24.7735 7.22279 24.7313 7.21013 24.688 7.20806H20.1667C20.127 7.20662 20.0876 7.21409 20.0512 7.22993C20.0148 7.24576 19.9824 7.26956 19.9565 7.29956C19.9305 7.32956 19.9116 7.365 19.9011 7.40328C19.8907 7.44155 19.8889 7.48169 19.896 7.52073L20.1667 9.06206L18.604 17.8747L16.1667 8.45873C16.1483 8.4071 16.1144 8.36243 16.0697 8.33084C16.0249 8.29925 15.9715 8.28229 15.9167 8.28229C15.8619 8.28229 15.8085 8.29925 15.7637 8.33084C15.7189 8.36243 15.685 8.4071 15.6667 8.45873L13.3127 17.8127L11.354 9.06273L11.604 7.52139C11.6095 7.47929 11.6048 7.43649 11.5903 7.39658C11.5758 7.35667 11.5519 7.32083 11.5207 7.29206C11.4966 7.26632 11.4677 7.24568 11.4355 7.23136C11.4033 7.21704 11.3686 7.20935 11.3334 7.20873H7.33335C7.32648 7.20806 7.31956 7.20806 7.31268 7.20873Z" fill="black" fill-opacity="0.29"/>
<path d="M7.22933 6.99998C7.1656 7.01496 7.10557 7.04272 7.05289 7.08159C7.00022 7.12046 6.95598 7.16963 6.92288 7.22611C6.88978 7.28259 6.86849 7.34521 6.86032 7.41017C6.85215 7.47512 6.85725 7.54106 6.87533 7.60398L7.33333 9.18732H7.31267L10.4793 23.2287L10.1873 24.7287C10.1762 24.798 10.1803 24.869 10.1993 24.9366C10.2183 25.0043 10.2517 25.067 10.2973 25.1205C10.3429 25.174 10.3995 25.2169 10.4632 25.2464C10.527 25.2759 10.5964 25.2912 10.6667 25.2913H15.2707C15.343 25.2917 15.4145 25.2759 15.4799 25.2452C15.5454 25.2144 15.6031 25.1695 15.649 25.1136C15.6949 25.0578 15.7278 24.9924 15.7453 24.9222C15.7628 24.852 15.7644 24.7789 15.75 24.708L15.458 23.2913L16.0413 21.062L16.7707 23.312L16.354 24.666C16.3107 24.812 16.3387 24.9693 16.428 25.0926C16.5173 25.216 16.66 25.2886 16.812 25.2913L22 25.3127C22.0775 25.3125 22.1538 25.2938 22.2226 25.2581C22.2915 25.2225 22.3508 25.1709 22.3956 25.1077C22.4405 25.0445 22.4696 24.9715 22.4806 24.8948C22.4916 24.8181 22.484 24.7399 22.4587 24.6666L21.8753 23.0833L24.2293 9.58332L25.1253 7.68732C25.1585 7.61364 25.1728 7.53288 25.167 7.45229C25.1612 7.3717 25.1355 7.29382 25.0921 7.22565C25.0487 7.15749 24.9891 7.10117 24.9186 7.06178C24.848 7.02239 24.7688 7.00115 24.688 6.99998H20.1667C20.0965 7.00008 20.0271 7.01539 19.9634 7.04484C19.8997 7.07429 19.8431 7.1172 19.7976 7.1706C19.752 7.22401 19.7186 7.28665 19.6996 7.35421C19.6805 7.42177 19.6764 7.49265 19.6873 7.56198L19.9373 9.06198L18.5833 16.8127L16.396 8.39598C16.3762 8.28323 16.3173 8.18107 16.2296 8.10745C16.142 8.03384 16.0311 7.99348 15.9167 7.99348C15.8022 7.99348 15.6914 8.03384 15.6037 8.10745C15.516 8.18107 15.4571 8.28323 15.4373 8.39598L13.3127 16.8127L11.5833 8.99998L11.8127 7.56265C11.8239 7.49329 11.8199 7.42232 11.8009 7.35466C11.782 7.28699 11.7486 7.22426 11.703 7.1708C11.6574 7.11734 11.6007 7.07444 11.5369 7.04506C11.473 7.01567 11.4036 7.00052 11.3333 7.00065H7.33333C7.29879 6.99676 7.26393 6.99654 7.22933 6.99998Z" fill="black" fill-opacity="0.29"/>
<path d="M7.18733 6.79209C7.09366 6.81178 7.00509 6.85069 6.92723 6.90636C6.84936 6.96203 6.78389 7.03325 6.73496 7.11552C6.68602 7.19779 6.65469 7.28931 6.64293 7.38431C6.63118 7.47931 6.63926 7.57571 6.66667 7.66742L7.12533 9.23009V9.27142L10.2713 23.1881L9.97933 24.6881C9.944 24.8908 10 25.0981 10.1327 25.2561C10.2653 25.4121 10.4613 25.5021 10.6667 25.5008H15.2707C15.3743 25.502 15.4769 25.48 15.5709 25.4364C15.6649 25.3927 15.7479 25.3286 15.8138 25.2486C15.8798 25.1687 15.9269 25.075 15.9519 24.9744C15.9768 24.8738 15.9789 24.7689 15.958 24.6674L15.6667 23.2501L16.0627 21.7914L16.542 23.3121L16.146 24.6041C16.1142 24.708 16.1073 24.818 16.1259 24.9251C16.1444 25.0322 16.1879 25.1334 16.2528 25.2206C16.3177 25.3078 16.4022 25.3786 16.4994 25.4271C16.5967 25.4757 16.704 25.5007 16.8127 25.5001L22 25.5208C22.1093 25.5191 22.2168 25.4916 22.3134 25.4406C22.4101 25.3895 22.4934 25.3163 22.5564 25.2269C22.6194 25.1375 22.6603 25.0345 22.6759 24.9262C22.6915 24.818 22.6812 24.7076 22.646 24.6041L22.0833 23.0834L24.4373 9.62475L25.312 7.77075C25.3598 7.6657 25.3805 7.55037 25.3724 7.43525C25.3643 7.32013 25.3275 7.20887 25.2654 7.11157C25.2034 7.01427 25.118 6.93402 25.017 6.87811C24.9161 6.8222 24.8027 6.7924 24.6873 6.79142H20.1667C20.065 6.79043 19.9644 6.81186 19.872 6.85418C19.7796 6.8965 19.6977 6.95868 19.6321 7.03628C19.5664 7.11387 19.5187 7.20499 19.4923 7.30313C19.4659 7.40128 19.4615 7.50403 19.4793 7.60409L19.7293 9.06275L18.5213 15.8548L16.584 8.35475C16.543 8.20949 16.4557 8.08158 16.3354 7.99048C16.2151 7.89938 16.0683 7.85008 15.9173 7.85008C15.7664 7.85008 15.6196 7.89938 15.4993 7.99048C15.3789 8.08158 15.2916 8.20949 15.2507 8.35475L13.3333 15.9794L11.792 9.04209L12.0213 7.58342C12.0359 7.48488 12.0289 7.38436 12.0009 7.28876C11.9729 7.19317 11.9246 7.10475 11.8593 7.02958C11.7939 6.95441 11.7131 6.89427 11.6223 6.85327C11.5315 6.81228 11.4329 6.79141 11.3333 6.79209H7.33333C7.28481 6.78675 7.23585 6.78675 7.18733 6.79209Z" fill="black" fill-opacity="0.29"/>
<path d="M7.22934 6.54203C7.09312 6.55602 6.96158 6.59953 6.84388 6.66953C6.72617 6.73952 6.62514 6.83432 6.54779 6.94732C6.47044 7.06033 6.41865 7.18883 6.396 7.32388C6.37336 7.45894 6.38041 7.59731 6.41667 7.72936L6.87534 9.29203V9.33336L10.0213 23.2294L9.75067 24.6254C9.7238 24.7613 9.72724 24.9015 9.76077 25.0359C9.79429 25.1704 9.85706 25.2958 9.9446 25.4032C10.0321 25.5106 10.1423 25.5974 10.2672 25.6573C10.3922 25.7173 10.5288 25.7489 10.6673 25.75H15.2713C15.5773 25.7514 15.8647 25.6027 16.042 25.354C16.2193 25.6027 16.5067 25.7514 16.8127 25.75L22 25.7714C22.3073 25.7687 22.594 25.6167 22.7673 25.3634C22.9407 25.11 22.9813 24.7887 22.8747 24.5007L22.354 23.0634L24.6667 9.73003L25.5413 7.89669C25.6833 7.60336 25.664 7.25803 25.4907 6.98203C25.405 6.84662 25.2864 6.7352 25.1459 6.65824C25.0053 6.58127 24.8476 6.54128 24.6873 6.54203H20.1667C20.0285 6.54077 19.8917 6.5699 19.7661 6.62736C19.6404 6.68482 19.5289 6.76921 19.4395 6.87454C19.3501 6.97987 19.2849 7.10358 19.2486 7.2369C19.2122 7.37022 19.2057 7.50989 19.2293 7.64603L19.4793 9.06269L18.4793 14.6667L16.8333 8.29203C16.7845 8.08563 16.6674 7.90176 16.501 7.77018C16.3347 7.6386 16.1288 7.56702 15.9167 7.56702C15.7046 7.56702 15.4987 7.6386 15.3323 7.77018C15.166 7.90176 15.0489 8.08563 15 8.29203L13.354 14.8547L12.0413 9.02136L12.2707 7.62536C12.2911 7.49074 12.2821 7.35329 12.2443 7.22248C12.2065 7.09168 12.1408 6.97062 12.0517 6.86765C11.9626 6.76468 11.8523 6.68225 11.7282 6.62603C11.6042 6.56982 11.4695 6.54116 11.3333 6.54203H7.33334C7.2987 6.54003 7.26398 6.54003 7.22934 6.54203ZM16.0833 22.7087L16.2913 23.334L16.062 24.042L15.916 23.334L16.0833 22.7087Z" fill="black" fill-opacity="0.29"/>
<path d="M7.328 7.47935L7.802 9.07802L10.9793 23.2134L10.6667 24.818H15.276L14.958 23.2714L16.0047 19.3027L17.2653 23.3234L16.8173 24.818L22.01 24.8287L21.372 23.1334L23.7587 9.44535L24.6867 7.47668L20.1667 7.47935L20.4287 9.07002L18.6647 19.1254L15.9173 8.52135L13.292 18.938L11.084 9.02135L11.3333 7.47935H7.328Z" fill="black" fill-opacity="0.29"/>
<path d="M7.33334 7.47937L9.58601 9.14337L12.6013 23.1667L10.664 24.818L10.9793 23.2087L7.81268 9.08337L7.33334 7.47937Z" fill="url(#paint9_linear_17627_12559)"/>
<path d="M12.604 23.1666L10.664 24.818L15.2813 24.8126L13.5 23.1773L12.604 23.1666Z" fill="#792100"/>
<path d="M11.3227 7.49463L9.58801 9.14796L12.6033 23.166L13.4913 23.174L13.3127 18.8126L11.1667 9.0833L11.3227 7.49463Z" fill="url(#paint10_linear_17627_12559)"/>
<path d="M15.2787 24.8179L13.5027 23.1799L15.9947 13.6046L16.0053 19.2973L14.9587 23.2713L15.2787 24.8179Z" fill="url(#paint11_linear_17627_12559)"/>
<path d="M15.9167 8.5L16 13.5627L13.4973 23.1853L13.3333 18.854L15.9167 8.5Z" fill="url(#paint12_linear_17627_12559)"/>
<path d="M7.328 7.47937L9.58867 9.14604L11.3333 7.4847L7.328 7.47937Z" fill="url(#paint13_linear_17627_12559)"/>
<path d="M15.9113 8.51062L15.9947 13.5993L18.2887 23.1866L19.7193 23.194L15.9113 8.51062Z" fill="url(#paint14_linear_17627_12559)"/>
<path d="M15.9947 13.6046L16.0053 19.2866L17.2693 23.3206L16.8213 24.8113L18.302 23.1926L15.9947 13.6046Z" fill="url(#paint15_linear_17627_12559)"/>
<path d="M19.7133 23.1853L18.3073 23.1906L16.8113 24.818L22.0067 24.8273L19.7133 23.1853Z" fill="#792100"/>
<path d="M23.754 9.42339L24.6827 7.49072L22.1813 8.90539L19.7033 23.1894L22.012 24.8321L21.3727 23.1347L23.754 9.42339Z" fill="url(#paint16_linear_17627_12559)"/>
<path d="M20.4287 9.06263L20.1593 7.49463L22.184 8.89596L19.7033 23.1746L18.6627 19.1226L20.4287 9.06263Z" fill="url(#paint17_linear_17627_12559)"/>
<path d="M20.1567 7.48999L22.1713 8.91132L24.6933 7.48132L20.1567 7.48999Z" fill="url(#paint18_linear_17627_12559)"/>
<path d="M16 0.771362C7.60466 0.771362 0.791992 7.59336 0.791992 16.0007C0.791992 24.408 7.60466 31.2294 16 31.2294C24.396 31.2294 31.208 24.4074 31.208 16C31.208 7.5927 24.396 0.771362 16 0.771362ZM15.9373 3.39603C22.8233 3.39603 28.396 8.98203 28.396 15.896C28.396 22.81 22.8233 28.4167 15.9373 28.4167C9.05133 28.4167 3.45799 22.81 3.45799 15.896C3.45866 8.98203 9.05133 3.39603 15.9373 3.39603Z" fill="black" fill-opacity="0.26"/>
<path d="M16 0.541992C7.47932 0.541992 0.562653 7.46866 0.562653 16.0007C0.562653 24.532 7.47932 31.4593 16 31.4593C24.5207 31.4593 31.4373 24.532 31.4373 16.0007C31.4373 7.46866 24.5207 0.541992 16 0.541992ZM15.9373 3.62533C22.698 3.62533 28.1667 9.10666 28.1667 15.896C28.1667 22.6853 22.698 28.188 15.9373 28.188C9.17732 28.188 3.68732 22.6853 3.68732 15.896C3.68732 9.10733 9.17665 3.62533 15.9373 3.62533Z" fill="black" fill-opacity="0.28"/>
<path d="M16 0.166626C7.27668 0.166626 0.187347 7.26596 0.187347 16C0.187347 24.734 7.27668 31.8333 16 31.8333C24.724 31.8333 31.8127 24.734 31.8127 16C31.8127 7.26596 24.724 0.166626 16 0.166626ZM15.9373 3.99996C22.4953 3.99996 27.7913 9.30796 27.7913 15.896C27.7913 22.484 22.4933 27.8126 15.9373 27.8126C9.38135 27.8126 4.06268 22.482 4.06268 15.896C4.06268 9.30996 9.37935 3.99996 15.9373 3.99996Z" fill="black" fill-opacity="0.41"/>
<path d="M16 1C7.72666 1 1.02066 7.71533 1.02066 16C1.02066 24.2853 7.72666 31 16 31C24.2733 31 30.9793 24.2853 30.9793 16C30.9793 7.71533 24.2733 1 16 1ZM15.9373 3.16667C22.946 3.16667 28.6247 8.86067 28.6247 15.896C28.6247 22.9313 22.9453 28.646 15.9373 28.646C8.92933 28.646 3.22933 22.9313 3.22933 15.896C3.22933 8.86067 8.92933 3.16667 15.9373 3.16667Z" fill="url(#paint19_linear_17627_12559)"/>
<path d="M15.622 1.09802C7.76733 1.09802 1.414 7.46002 1.414 15.3274C1.414 23.1947 7.768 29.5567 15.622 29.5567C23.476 29.5567 29.8307 23.1947 29.8307 15.3274C29.8307 7.46002 23.4767 1.09802 15.622 1.09802ZM15.5593 1.72269C22.9867 1.72269 29.018 7.77069 29.018 15.2227C29.018 22.6747 22.9887 28.7434 15.5593 28.7434C8.13 28.7434 2.08067 22.6767 2.08067 15.2227C2.08067 7.76869 8.132 1.72269 15.5593 1.72269Z" fill="url(#paint20_linear_17627_12559)"/>
</g>
</g>
<defs>
<linearGradient id="paint0_linear_17627_12559" x1="7.96667" y1="-0.267342" x2="22.2333" y2="27.4327" gradientUnits="userSpaceOnUse">
<stop stop-color="#5B779E"/>
<stop offset="0.399" stop-color="#2D3B50"/>
<stop offset="1" stop-color="#0C0E14"/>
</linearGradient>
<linearGradient id="paint1_linear_17627_12559" x1="13.1667" y1="5.78595" x2="17.5" y2="15.2526" gradientUnits="userSpaceOnUse">
<stop stop-opacity="0"/>
<stop offset="1" stop-opacity="0.62"/>
</linearGradient>
<radialGradient id="paint2_radial_17627_12559" cx="0" cy="0" r="1" gradientTransform="matrix(18.7225 -3.8065 -1.98 -9.7385 11.0826 5.20551)" gradientUnits="userSpaceOnUse">
<stop stop-color="#BDD9F9"/>
<stop offset="0.065" stop-color="#BDD9F9"/>
<stop offset="1" stop-color="#1C3556" stop-opacity="0.1"/>
</radialGradient>
<linearGradient id="paint3_linear_17627_12559" x1="1.76667" y1="4.79937" x2="9.3" y2="20.966" gradientUnits="userSpaceOnUse">
<stop stop-opacity="0"/>
<stop offset="1" stop-opacity="0.62"/>
</linearGradient>
<radialGradient id="paint4_radial_17627_12559" cx="0" cy="0" r="1" gradientTransform="matrix(18.7225 -3.8065 -1.98 -9.7385 7.73962 9.1687)" gradientUnits="userSpaceOnUse">
<stop stop-color="#BDD9F9"/>
<stop offset="0.065" stop-color="#BDD9F9"/>
<stop offset="1" stop-color="#1C3556" stop-opacity="0.1"/>
</radialGradient>
<linearGradient id="paint5_linear_17627_12559" x1="25.3333" y1="3.35338" x2="29.5333" y2="7.06671" gradientUnits="userSpaceOnUse">
<stop stop-color="#FDEC97"/>
<stop offset="0.353" stop-color="#FDEC97"/>
<stop offset="0.513" stop-color="#FDEC97"/>
<stop offset="0.628" stop-color="#DB990F"/>
<stop offset="1" stop-color="#DB990F"/>
</linearGradient>
<linearGradient id="paint6_linear_17627_12559" x1="25.6667" y1="28.86" x2="30.0667" y2="24.36" gradientUnits="userSpaceOnUse">
<stop stop-color="#FFDC76"/>
<stop offset="0.327" stop-color="#E4903B"/>
<stop offset="0.451" stop-color="#CA4400"/>
<stop offset="0.58" stop-color="#FDEC97"/>
<stop offset="0.704" stop-color="#DB990F"/>
<stop offset="1" stop-color="#DB990F"/>
</linearGradient>
<linearGradient id="paint7_linear_17627_12559" x1="5.33332" y1="28.0533" x2="2.39999" y2="24.8133" gradientUnits="userSpaceOnUse">
<stop stop-color="#FFDC76"/>
<stop offset="0.327" stop-color="#E4903B"/>
<stop offset="0.451" stop-color="#CA4400"/>
<stop offset="0.58" stop-color="#FDEC97"/>
<stop offset="0.704" stop-color="#DB990F"/>
<stop offset="1" stop-color="#DB990F"/>
</linearGradient>
<linearGradient id="paint8_linear_17627_12559" x1="2.46665" y1="7.32667" x2="6.46665" y2="3.37334" gradientUnits="userSpaceOnUse">
<stop stop-color="#CA4400"/>
<stop offset="0.353" stop-color="#CA4400"/>
<stop offset="0.513" stop-color="#FDEC97"/>
<stop offset="0.628" stop-color="#DB990F"/>
<stop offset="1" stop-color="#DB990F"/>
</linearGradient>
<linearGradient id="paint9_linear_17627_12559" x1="8.00001" y1="7.58004" x2="11.6667" y2="23.7467" gradientUnits="userSpaceOnUse">
<stop stop-color="#DA940F"/>
<stop offset="0.235" stop-color="#EFD11A"/>
<stop offset="0.75" stop-color="#EFD11A"/>
<stop offset="0.908" stop-color="#EFD11A"/>
<stop offset="1" stop-color="#D3900E"/>
</linearGradient>
<linearGradient id="paint10_linear_17627_12559" x1="10.2667" y1="7.5333" x2="13.4667" y2="22.7733" gradientUnits="userSpaceOnUse">
<stop stop-color="#C63000"/>
<stop offset="0.491" stop-color="#DB9000"/>
<stop offset="0.8" stop-color="#DB9000"/>
<stop offset="1" stop-color="#C43B00"/>
</linearGradient>
<linearGradient id="paint11_linear_17627_12559" x1="16.6" y1="14.7399" x2="14.2667" y2="24.5333" gradientUnits="userSpaceOnUse">
<stop stop-color="#AD2F00"/>
<stop offset="1" stop-color="#CB7500"/>
</linearGradient>
<linearGradient id="paint12_linear_17627_12559" x1="16.6" y1="10.0867" x2="13.2" y2="20.4" gradientUnits="userSpaceOnUse">
<stop stop-color="#ECD500"/>
<stop offset="0.869" stop-color="#ECD500"/>
<stop offset="1" stop-color="#FFEF57"/>
</linearGradient>
<linearGradient id="paint13_linear_17627_12559" x1="9.26667" y1="7.40004" x2="10.1333" y2="9.17337" gradientUnits="userSpaceOnUse">
<stop stop-color="#FFD511"/>
<stop offset="1" stop-color="#FDF8DC"/>
</linearGradient>
<linearGradient id="paint14_linear_17627_12559" x1="15.3333" y1="9.77995" x2="19.2" y2="23.1933" gradientUnits="userSpaceOnUse">
<stop stop-color="#BD3300"/>
<stop offset="0.188" stop-color="#BD3300"/>
<stop offset="0.411" stop-color="#CB8500"/>
<stop offset="1" stop-color="#C26F00"/>
</linearGradient>
<linearGradient id="paint15_linear_17627_12559" x1="15.2" y1="14.9799" x2="17.8" y2="23.8999" gradientUnits="userSpaceOnUse">
<stop stop-color="#FFD303"/>
<stop offset="0.902" stop-color="#FFD303"/>
<stop offset="1" stop-color="#D27E00"/>
</linearGradient>
<linearGradient id="paint16_linear_17627_12559" x1="23.6667" y1="7.16672" x2="20.7333" y2="24.7201" gradientUnits="userSpaceOnUse">
<stop stop-color="#A51F00"/>
<stop offset="0.288" stop-color="#C67200"/>
<stop offset="0.644" stop-color="#C67200"/>
<stop offset="1" stop-color="#C25500"/>
</linearGradient>
<linearGradient id="paint17_linear_17627_12559" x1="21.4" y1="7.54663" x2="18.4667" y2="23.06" gradientUnits="userSpaceOnUse">
<stop stop-color="#CD7C00"/>
<stop offset="0.314" stop-color="#EED700"/>
<stop offset="1" stop-color="#EED700"/>
</linearGradient>
<linearGradient id="paint18_linear_17627_12559" x1="22.4" y1="7.39999" x2="23.1333" y2="8.91999" gradientUnits="userSpaceOnUse">
<stop stop-color="#FFD511"/>
<stop offset="1" stop-color="#FDF8DC"/>
</linearGradient>
<linearGradient id="paint19_linear_17627_12559" x1="-0.73334" y1="22.96" x2="33.8" y2="8.6" gradientUnits="userSpaceOnUse">
<stop stop-color="#51290E"/>
<stop offset="0.346" stop-color="#D08E29"/>
<stop offset="0.417" stop-color="#E1D02D"/>
<stop offset="0.498" stop-color="#F6E57F"/>
<stop offset="0.537" stop-color="#F6E57F"/>
<stop offset="0.605" stop-color="#E1D02D"/>
<stop offset="0.687" stop-color="#D08E29"/>
<stop offset="1" stop-color="#452A15"/>
</linearGradient>
<linearGradient id="paint20_linear_17627_12559" x1="24.2667" y1="27.6067" x2="6.4" y2="2.33336" gradientUnits="userSpaceOnUse">
<stop stop-color="#FFE12B"/>
<stop offset="0.136" stop-color="#FFF7C7" stop-opacity="0"/>
<stop offset="0.819" stop-color="#FFF7C7" stop-opacity="0"/>
<stop offset="1" stop-color="#FFE12B"/>
</linearGradient>
<clipPath id="clip0_17627_12559">
<rect width="32" height="32" fill="white"/>
</clipPath>
<clipPath id="clip1_17627_12559">
<rect width="32" height="32" fill="white"/>
</clipPath>
</defs>
</svg>
