<svg width="32" height="32" viewBox="0 0 32 32" fill="none" xmlns="http://www.w3.org/2000/svg">
<path d="M31.3309 8.29506C30.9622 6.91739 29.8794 5.83473 28.5017 5.46595C26.0073 4.79688 16 4.79688 16 4.79688C16 4.79688 5.99275 4.79688 3.49819 5.46595C2.12052 5.83473 1.03787 6.91739 0.669081 8.29506C2.38419e-07 10.7896 0 15.9973 0 15.9973C0 15.9973 2.38419e-07 21.2052 0.669081 23.6998C1.03787 25.0775 2.12052 26.16 3.49819 26.5287C5.99275 27.198 16 27.198 16 27.198C16 27.198 26.0073 27.198 28.5017 26.5287C29.8794 26.16 30.9622 25.0775 31.3309 23.6998C32 21.2052 32 15.9973 32 15.9973C32 15.9973 31.9973 10.7896 31.3309 8.29506Z" fill="#FF0000"/>
<path d="M12.7972 20.7974L21.1106 15.9978L12.7972 11.1984V20.7974Z" fill="white"/>
</svg>
