<svg width="32" height="32" viewBox="0 0 32 32" fill="none" xmlns="http://www.w3.org/2000/svg">
<g clip-path="url(#clip0_14384_93199)">
<path d="M16 23.9965C20.4183 23.9965 24 20.4147 24 15.9965C24 11.5782 20.4183 7.99646 16 7.99646C11.5817 7.99646 8 11.5782 8 15.9965C8 20.4147 11.5817 23.9965 16 23.9965Z" fill="white"/>
<path d="M16.0001 8.00003H29.8542C28.4504 5.56762 26.4308 3.54769 23.9987 2.14337C21.5665 0.739036 18.8075 -0.000195914 15.999 3.89466e-08C13.1906 0.000195991 10.4317 0.739813 7.9997 2.14448C5.56775 3.54915 3.54849 5.56936 2.14496 8.00196L9.07203 20L9.07823 19.9984C8.37356 18.7833 8.00169 17.4038 8.00011 15.9991C7.99854 14.5944 8.3673 13.2142 9.06923 11.9974C9.77116 10.7807 10.7815 9.77051 11.9983 9.06871C13.2151 8.36691 14.5954 7.9983 16.0001 8.00003Z" fill="url(#paint0_linear_14384_93199)"/>
<path d="M16 22.3333C19.4978 22.3333 22.3334 19.4978 22.3334 16C22.3334 12.5022 19.4978 9.66663 16 9.66663C12.5022 9.66663 9.66669 12.5022 9.66669 16C9.66669 19.4978 12.5022 22.3333 16 22.3333Z" fill="#1A73E8"/>
<path d="M22.9277 20.0019L16.0007 32C18.8091 32.0004 21.5682 31.2614 24.0004 29.8572C26.4327 28.4531 28.4523 26.4333 29.8564 24.001C31.2604 21.5687 31.9994 18.8096 31.9989 16.0012C31.9984 13.1927 31.2585 10.4339 29.8535 8.00208H15.9995L15.9978 8.00827C17.4025 8.00557 18.7831 8.37323 20.0004 9.0742C21.2177 9.77517 22.2287 10.7847 22.9314 12.0009C23.6342 13.2172 24.0039 14.5972 24.0032 16.0019C24.0026 17.4066 23.6316 18.7863 22.9277 20.0019Z" fill="url(#paint1_linear_14384_93199)"/>
<path d="M9.07213 20.0021L2.14507 8.00403C0.740483 10.436 0.000959166 13.195 0.000854503 16.0034C0.00074984 18.8119 0.740068 21.5709 2.14447 24.003C3.54887 26.4351 5.56886 28.4546 8.00131 29.8584C10.4338 31.2622 13.1929 32.0008 16.0014 32L22.9285 20.002L22.924 19.9974C22.224 21.2153 21.2153 22.227 19.9996 22.9308C18.7839 23.6345 17.4041 24.0052 15.9994 24.0057C14.5947 24.0062 13.2147 23.6363 11.9985 22.9334C10.7824 22.2306 9.77298 21.2195 9.07213 20.0021Z" fill="url(#paint2_linear_14384_93199)"/>
</g>
<defs>
<linearGradient id="paint0_linear_14384_93199" x1="2.14496" y1="10" x2="29.8542" y2="10" gradientUnits="userSpaceOnUse">
<stop stop-color="#D93025"/>
<stop offset="1" stop-color="#EA4335"/>
</linearGradient>
<linearGradient id="paint1_linear_14384_93199" x1="13.8148" y1="31.7861" x2="27.6695" y2="7.78914" gradientUnits="userSpaceOnUse">
<stop stop-color="#FCC934"/>
<stop offset="1" stop-color="#FBBC04"/>
</linearGradient>
<linearGradient id="paint2_linear_14384_93199" x1="17.7318" y1="31.001" x2="3.87713" y2="7.00403" gradientUnits="userSpaceOnUse">
<stop stop-color="#1E8E3E"/>
<stop offset="1" stop-color="#34A853"/>
</linearGradient>
<clipPath id="clip0_14384_93199">
<rect width="32" height="32" fill="white"/>
</clipPath>
</defs>
</svg>
